<?xml version="1.0" encoding="UTF-8" standalone="no"?><svg xmlns:svg="http://www.w3.org/2000/svg" xmlns="http://www.w3.org/2000/svg" version="1.1" width="35.433052" height="35.433121" id="svg3004" xml:space="preserve"><defs id="defs3008"/><g transform="matrix(1.25,0,0,-1.25,-0.47607375,36.568375)" id="g3012"><g transform="scale(0.1,0.1)" id="g3014"><path d="m 145.539,292.547 c 27.199,0 52.598,-7.664 74.18,-20.949 l 0,-35.032 c -1.563,1.356 -3.168,2.657 -4.805,3.922 l 0,33.625 -49.844,0 0,-11.59 c -6.347,1.102 -12.867,1.676 -19.531,1.676 -46.0429,0 -85.6757,-27.453 -103.4335,-66.886 -9.2344,-10.672 -14.1641,-24.458 -16.7071,-38.375 l -2.5859,-14.157 9.6094,-1.601 c 0.3945,-5.879 1.2344,-11.645 2.4883,-17.246 -2.3321,-2.868 -4.3985,-5.989 -6.1797,-9.336 -5.0469,-9.481 -7.211,-19.8597 -7.211,-30.5589 0,-1.3555 0.0391,-2.6953 0.1094,-4.0313 C 10.2813,102.387 3.80859,125.84 3.80859,150.816 c 0,78.262 63.46871,141.731 141.73041,141.731 z m 124.027,-73.109 c 11.274,-20.336 17.707,-43.731 17.707,-68.622 0,-24.894 -6.433,-48.277 -17.707,-68.6129 l 0,137.2349 z M 221.27,31.0156 C 199.363,17.1328 173.391,9.08203 145.539,9.08203 c -25.492,0 -49.4101,6.74217 -70.0859,18.53517 1.2891,-0.0625 2.5821,-0.1016 3.8867,-0.1016 10.6719,0 20.9102,2.4571 30.4922,7.125 2.746,1.3282 5.395,2.8125 7.953,4.4336 l 3.391,-8.0586 93.738,0 0,30.1407 c 1.637,1.2656 3.242,2.5703 4.805,3.9257 l 0,-34.0664 1.551,0" id="path3016" style="fill:#bdbcbc;fill-opacity:1;fill-rule:evenodd;stroke:none"/><path d="m 126.191,64.3906 c -7.199,-7.5508 -14.699,-13.1992 -22.55,-17 -7.8012,-3.8008 -15.8988,-5.7031 -24.3012,-5.7031 -13.3007,0 -23.8984,4 -31.7968,12.0039 -7.9024,8 -11.8516,18.8008 -11.8516,32.3477 0,9 1.8477,16.9489 5.5508,23.8989 3.6992,6.953 8.8008,12.351 15.25,16.253 6.4492,3.899 16.1992,6.801 29.3008,8.649 17.547,2.551 30.449,5.551 38.648,9.101 l 0.149,6.7 c 0,10.648 -1.899,18.148 -5.699,22.449 -5.352,6.25 -13.598,9.351 -24.7504,9.351 -10.0508,0 -17.5976,-2.054 -22.5508,-6.203 -5,-4.148 -8.6484,-11.949 -10.996,-23.398 l -21.254,3.551 c 3.0508,16.699 9.1524,28.847 18.4024,36.449 9.1992,7.601 22.4492,11.449 39.5976,11.449 13.3982,0 23.9022,-2.551 31.5002,-7.551 7.648,-5.047 12.453,-11.246 14.449,-18.699 2.004,-7.398 3.004,-18.25 3.004,-32.5 l 0,-35.148 c 0,-24.6019 0.445,-40.1527 1.398,-46.5004 0.899,-6.4023 2.75,-12.6523 5.5,-18.6992 l -22.601,0 c -2.25,5.3477 -3.699,11.75 -4.399,19.1992 z m -1.75,58.8984 c -7.898,-3.949 -19.652,-7.25 -35.2965,-10 -9.0547,-1.551 -15.4023,-3.351 -19.0547,-5.348 -3.5976,-2 -6.3984,-4.8 -8.3984,-8.4996 -2,-3.6523 -3,-7.8516 -3,-12.6484 0,-7.4024 2.3008,-13.3516 6.9024,-17.8047 4.5468,-4.4492 10.8984,-6.6485 18.996,-6.6485 7.75,0 14.75,2 21.0512,6 6.3,4 11,9.3516 14.148,16.0508 3.102,6.6485 4.652,16.3984 4.652,29.1994 l 0,9.699 z m 54.801,-78.0976 0,214.7496 21.5,0 0,-214.7496 -21.5,0 z m 54.649,0 0,214.7496 21.5,0 0,-214.7496 -21.5,0" id="path3018" style="fill:#bdbcbc;fill-opacity:1;fill-rule:nonzero;stroke:none"/></g></g></svg>