<?xml version="1.0" encoding="UTF-8" standalone="no"?><svg xmlns:svg="http://www.w3.org/2000/svg" xmlns="http://www.w3.org/2000/svg" version="1.1" width="35.433052" height="35.433121" id="svg3023" xml:space="preserve"><defs id="defs3027"/><g transform="matrix(1.25,0,0,-1.25,-0.47607375,36.568375)" id="g3031"><g transform="scale(0.1,0.1)" id="g3033"><path d="m 145.539,292.547 c 78.262,0 141.734,-63.469 141.734,-141.731 C 287.273,72.5547 223.801,9.08203 145.539,9.08203 67.2773,9.08203 3.80859,72.5547 3.80859,150.816 c 0,78.262 63.46871,141.731 141.73041,141.731 z m 0,-28.348 c 62.609,0 113.387,-50.777 113.387,-113.383 0,-62.609 -50.778,-113.3863 -113.387,-113.3863 -62.6054,0 -113.3827,50.7773 -113.3827,113.3863 0,62.606 50.7773,113.383 113.3827,113.383" id="path3035" style="fill:#bdbcbc;fill-opacity:1;fill-rule:evenodd;stroke:none"/><path d="m 165.07,53.457 0,220.656 49.844,0 0,-243.0974 -93.738,0 -3.391,8.0586 c -2.558,-1.6211 -5.207,-3.1054 -7.953,-4.4336 -9.582,-4.6679 -19.8203,-7.125 -30.4922,-7.125 -15.9023,0 -30.5898,4.7774 -41.8828,16.2188 -11.3398,11.4804 -15.9375,26.375 -15.9375,42.3047 0,10.6992 2.1641,21.0779 7.211,30.5589 4.8203,9.054 11.6562,16.414 20.4258,21.722 0.9179,0.555 1.8671,1.082 2.832,1.586 l -29.1758,4.875 2.5859,14.157 c 3.0938,16.933 9.7032,33.644 23.3204,44.835 13.5898,11.223 31.414,14.692 48.621,14.692 13.5622,0 27.7732,-2.309 39.3052,-9.895 9.855,-6.504 17.246,-15.347 20.328,-26.836 3.035,-11.211 3.492,-24.625 3.492,-36.195 l 0,-35.148 c 0,-13.0355 -0.668,-31.6566 1.258,-44.4965 0.597,-4.2734 1.746,-8.4453 3.347,-12.4375 z m -54.773,100.535 c -0.219,3.524 -0.801,8.278 -2.133,9.836 -3.234,3.774 -9.4101,4.438 -14.0234,4.438 -3.625,0 -10.4883,-0.411 -13.4843,-2.922 -3.1602,-2.625 -5.4063,-11.586 -6.1797,-15.356 l -0.5743,-2.804 c 3.3438,0.687 6.668,1.234 9.8672,1.683 7.8516,1.141 17.8555,2.672 26.5275,5.125 z m 109.422,-122.9764 0,243.0974 49.847,0 0,-243.0974 -49.847,0 z M 109.832,103.16 C 103.652,101.578 97.3984,100.348 91.5508,99.3242 87.8125,98.6836 80.2578,97.3477 76.957,95.543 75.6836,94.832 74.8438,93.9688 74.1289,92.6445 73.1563,90.8711 72.8633,88.793 72.8633,86.793 c 0,-2.8438 0.4922,-5.5938 2.625,-7.6563 2.2617,-2.2109 6.1172,-2.625 9.1015,-2.625 4.9063,0 9.3125,1.168 13.4532,3.793 4.004,2.543 6.898,5.8164 8.906,10.0859 1.598,3.4297 2.446,8.125 2.883,12.7694" id="path3037" style="fill:#ffffff;fill-opacity:1;fill-rule:evenodd;stroke:none"/><path d="m 126.191,64.3906 c -7.199,-7.5508 -14.699,-13.1992 -22.55,-17 -7.8012,-3.8008 -15.8988,-5.7031 -24.3012,-5.7031 -13.3007,0 -23.8984,4 -31.7968,12.0039 -7.9024,8 -11.8516,18.8008 -11.8516,32.3477 0,9 1.8477,16.9489 5.5508,23.8989 3.6992,6.953 8.8008,12.351 15.25,16.253 6.4492,3.899 16.1992,6.801 29.3008,8.649 17.547,2.551 30.449,5.551 38.648,9.101 l 0.149,6.7 c 0,10.648 -1.899,18.148 -5.699,22.449 -5.352,6.25 -13.598,9.351 -24.7504,9.351 -10.0508,0 -17.5976,-2.054 -22.5508,-6.203 -5,-4.148 -8.6484,-11.949 -10.996,-23.398 l -21.254,3.551 c 3.0508,16.699 9.1524,28.847 18.4024,36.449 9.1992,7.601 22.4492,11.449 39.5976,11.449 13.3982,0 23.9022,-2.551 31.5002,-7.551 7.648,-5.047 12.453,-11.246 14.449,-18.699 2.004,-7.398 3.004,-18.25 3.004,-32.5 l 0,-35.148 c 0,-24.6019 0.445,-40.1527 1.398,-46.5004 0.899,-6.4023 2.75,-12.6523 5.5,-18.6992 l -22.601,0 c -2.25,5.3477 -3.699,11.75 -4.399,19.1992 z m -1.75,58.8984 c -7.898,-3.949 -19.652,-7.25 -35.2965,-10 -9.0547,-1.551 -15.4023,-3.351 -19.0547,-5.348 -3.5976,-2 -6.3984,-4.8 -8.3984,-8.4996 -2,-3.6523 -3,-7.8516 -3,-12.6484 0,-7.4024 2.3008,-13.3516 6.9024,-17.8047 4.5468,-4.4492 10.8984,-6.6485 18.996,-6.6485 7.75,0 14.75,2 21.0512,6 6.3,4 11,9.3516 14.148,16.0508 3.102,6.6485 4.652,16.3984 4.652,29.1994 l 0,9.699 z m 54.801,-78.0976 0,214.7496 21.5,0 0,-214.7496 -21.5,0 z m 54.649,0 0,214.7496 21.5,0 0,-214.7496 -21.5,0" id="path3039" style="fill:#bdbcbc;fill-opacity:1;fill-rule:nonzero;stroke:none"/></g></g></svg>