<?xml version="1.0" encoding="UTF-8" standalone="no"?><svg xmlns:svg="http://www.w3.org/2000/svg" xmlns="http://www.w3.org/2000/svg" version="1.1" width="35.433071" height="35.433071" xml:space="preserve"><defs id="defs3027"/><g transform="matrix(1.25,0,0,-1.25,0,35.433064)" id="g3031"><g transform="matrix(0.1,0,0,0.1,-0.13437155,-0.00664757)" id="g3033"><path d="m 247.328,0.0664063 -242.703,0 0,283.4645937 141.5,0 101.203,-101.203 c 0.039,-18.64 0.047,-37.297 0.051,-55.953 l -19.535,0 0,35.805 -101.41,0 0,101.863 -102.3207,0 0,-244.4922 203.7307,0 0,8.9961 19.488,0 -0.004,-28.4804937 z M 220.434,181.664 l -74.512,74.516 0,-74.516 74.512,0" id="path3035" style="fill:#79b0e3;fill-opacity:1;fill-rule:evenodd;stroke:none"/><path d="m 231.836,77.1758 -19.125,29.1092 c -0.766,0.856 -1.77,1.317 -2.91,1.531 -2.215,0.438 -4.656,0.516 -6.903,0.516 l -2.835,0 0,9.539 36.453,0 0,-9.539 -2.832,0 c -1.2,0 -2.473,-0.273 -3.614,-0.605 l 10.989,-16.7348 10.156,15.1288 c 0.043,0.098 0.078,0.184 0.09,0.207 0,0.567 -0.336,0.828 -0.821,1.102 -1.019,0.597 -2.089,0.902 -3.273,0.902 l -2.832,0 0,9.539 32.527,0 0,-9.539 -2.836,0 c -4.808,0 -10.332,-0.887 -13.293,-5.047 L 246.746,82.3672 268.848,48.6758 c 0.836,-0.8711 1.843,-1.375 3.023,-1.6016 2.207,-0.4023 4.582,-0.4844 6.82,-0.4844 l 2.836,0 0,-9.539 -36.507,0 0,9.539 2.832,0 c 1.16,0 2.5,0.3204 3.605,0.629 L 237.516,68.5469 224.23,48.793 c -0.011,-0.0664 -0.015,-0.1328 -0.015,-0.1992 0,-0.5665 0.324,-0.836 0.801,-1.1133 0.992,-0.5821 2.035,-0.8907 3.183,-0.8907 l 2.836,0 0,-9.539 -32.527,0 0,9.539 2.836,0 c 4.785,0 10.328,0.8672 13.293,4.9961 l 17.199,25.5899 z M 67.5273,47.7891 l 0,59.8949 c 0,0.105 -0.0039,0.281 -0.0195,0.445 -0.8086,0.187 -2.1133,0.203 -2.7383,0.203 l -4.6172,0 c -3.4492,0 -8.3085,-0.461 -10.875,-3.137 -1.1601,-1.156 -1.7695,-3.355 -2.0742,-4.906 -0.6836,-3.5156 -1.0976,-7.1288 -1.4101,-10.6913 l -0.2266,-2.5899 -8.8476,0 2.5625,30.8632 72.4137,0 2.555,-30.8632 -8.895,0 -0.234,2.586 c -0.324,3.6445 -0.711,7.3867 -1.371,10.9802 -0.285,1.481 -0.871,3.5 -2.051,4.621 -2.5818,2.657 -7.4334,3.137 -10.9138,3.137 l -4.6211,0 c -0.8672,0 -1.7657,0.074 -2.7422,-0.094 -0.0586,-0.144 -0.0117,-0.398 -0.0117,-0.554 l 0,-59.8949 c 0.7148,-0.3164 2.1914,-0.5313 2.7265,-0.5938 3.4453,-0.418 6.918,-0.6055 10.3867,-0.6055 l 2.8321,0 0,-9.539 -47.7774,0 0,9.539 2.8321,0 c 3.4765,0 6.957,0.1836 10.414,0.6055 0.5274,0.0625 1.9922,0.2735 2.7031,0.5938 z m 62.9457,-0.1485 0,59.6404 c -1.52,0.93 -7.09,1.051 -8.496,1.051 l -2.832,0 0,9.539 67.531,0 3.75,-30.8788 -8.875,0 -0.309,2.4844 c -0.48,3.8828 -1.297,9.3867 -3.031,12.9214 -1.106,2.243 -2.836,3.661 -5.191,4.477 -3.754,1.305 -9.168,1.457 -13.114,1.457 l -10.797,0 c -0.855,0 -1.765,0.078 -2.738,-0.094 -0.066,-0.148 -0.019,-0.414 -0.019,-0.574 l 0,-24.0234 5.308,0 c 2.215,0 5.375,0.0742 7.492,0.7891 1.047,0.3516 1.692,0.9531 2.098,1.9726 0.77,1.9415 0.848,5.1954 0.848,7.2579 l 0,2.8359 8.84,0 0,-35.2266 -8.84,0 0,2.836 c 0,2.1015 -0.086,5.2578 -0.848,7.2265 -0.41,1.0313 -1.043,1.6289 -2.098,1.9844 -2.117,0.7149 -5.277,0.7891 -7.492,0.7891 l -5.308,0 0,-26.8672 c 0,-0.1016 0.003,-0.2774 0.019,-0.4336 0.817,-0.1953 2.082,-0.2149 2.738,-0.2149 l 11.661,0 c 3.75,0 7.984,0.1836 11.632,1.125 2.192,0.5586 4.379,1.5196 5.942,3.211 1.629,1.7461 2.695,3.9805 3.41,6.2305 1.219,3.8046 1.949,8.0703 2.559,12.0078 l 0.375,2.3984 8.925,0 -5.527,-34.5117 -68.941,0 0,9.539 2.832,0 c 1.406,0 6.976,0.1211 8.496,1.0508" id="path3037" style="fill:#277ebd;fill-opacity:1;fill-rule:evenodd;stroke:none"/></g></g></svg>