<?xml version="1.0" encoding="UTF-8" standalone="no"?><svg xmlns:svg="http://www.w3.org/2000/svg" xmlns="http://www.w3.org/2000/svg" viewBox="0 0 35.43307 35.43307" height="10mm" width="10mm" xml:space="preserve" version="1.1"><g transform="matrix(1.25,0,0,-1.25,0,35.433069)" id="g3363"><g transform="scale(0.1,0.1)" id="g3365"><path id="path3367" style="fill:#2596d8;fill-opacity:1;fill-rule:evenodd;stroke:none" d="m 274.512,0.00390625 -111.598,0 53.402,19.48439375 38.711,0 0,142.6287 -101.41,0 0,101.867 -102.3201,0 0,-86.355 -19.4883,-7.113 0,112.953 141.5004,0 101.203,-101.203 c 0.129,-60.703 0,-121.5004 0,-182.26209375 z m -203.4261,0 -39.2773,0 0,17.28519375 L 71.0859,0.00390625 Z M 247.617,181.602 l -74.512,74.515 0,-74.515 74.512,0"/><path id="path3369" style="fill:#2596d8;fill-opacity:1;fill-rule:evenodd;stroke:none" d="m 231.004,42.9766 0,94.0434 -37.699,16.593 -48.192,0 0,21.215 -15.636,6.883 -117.7036,-42.973 0,-94.0466 L 113.309,0 231.004,42.9766"/><path id="path3371" style="fill:#282523;fill-opacity:1;fill-rule:evenodd;stroke:none" d="m 129.684,188.137 15.429,-6.785 0,-6.528 -15.636,6.887 -50.7426,-18.531 16.8867,-7.434 c 5.3359,7.285 19.3909,10.051 25.4649,-3.273 5.5,12.449 17.848,11.218 24.027,5.297 l 0,-4.157 19.383,0 -15.992,-5.84 c -0.863,-3.324 -3.699,-5.648 -6.879,-7.062 -2.191,-0.953 -4.691,-1.594 -7.285,-1.996 l 37.715,-16.613 50.742,18.531 -29.496,12.98 14.832,0 25.961,-11.429 c 0,-33.571 0,-64.7465 0,-98.0863 C 193.227,29.1758 154.371,15 113.309,0 78.4961,15.3203 43.7109,30.6328 8.89453,45.9531 c 0,33.3008 0,64.4259 0,98.0939 41.25777,15.066 79.53517,29.023 120.78947,44.09 z m -13.633,-92.8401 0,-40.9063 53.222,19.4375 0,40.9059 -53.222,-19.4371 z m 0,-47.2696 0,-40.66792 53.222,19.42972 0,40.6757 -53.222,-19.4375 z m -5.973,-40.06246 0,40.43356 -44.4413,18.3907 0,-39.2735 44.4413,-19.55076 z m 0,46.90236 0,40.1758 -44.4413,19.559 0,-41.3403 44.4413,-18.3945 z m 2.594,45.5588 51.273,18.722 -42.566,18.731 -51.2618,-18.727 42.5548,-18.726 z m 115.437,35.789 -52.867,-19.305 0,-40.91 52.867,19.3086 0,40.9064 z m -168.4527,-18.981 -44.7774,19.711 0,-42.6833 44.7774,-18.5469 0,41.5192 z m -40.3086,24.27 42.8632,-18.871 44.1331,16.113 c -2.008,0.406 -3.938,0.957 -5.66,1.719 -3.9613,1.746 -7.391,5 -7.1567,9.683 L 70.6328,160.227 19.3477,141.504 Z m 97.5663,4.875 c -3.047,12.074 -11.73,10.508 -15.551,6.844 l 15.551,-6.844 z m 25.32,5.469 c -2.652,4.707 -13.902,8.742 -17.097,-6.235 l 17.097,6.235 z m 85.875,-62.9066 -52.867,-19.3047 0,-40.664 52.867,19.3086 0,40.6601 z M 59.6563,69.2578 14.8789,87.7852 l 0,-37.9297 44.7774,-19.7149 0,39.1172"/></g></g></svg>