<?xml version="1.0" encoding="UTF-8" standalone="no"?><svg xmlns:svg="http://www.w3.org/2000/svg" xmlns="http://www.w3.org/2000/svg" version="1.1" width="35.433071" height="35.433071" xml:space="preserve"><g transform="matrix(1.25,0,0,-1.25,0,35.433065)" id="g3012"><g transform="matrix(0.1,0,0,0.1,1.5727118,-0.00664677)" id="g3014"><path d="m 45.1797,164.012 59.5313,0 0,18.3164 -59.5313,0 0,-18.3164 z" id="path3016" style="fill:#5f4e6a;fill-opacity:1;fill-rule:evenodd;stroke:none"/><path d="m 45.1797,204.766 59.5313,0 0,18.3164 -59.5313,0 0,-18.3164 z" id="path3018" style="fill:#5f4e6a;fill-opacity:1;fill-rule:evenodd;stroke:none"/><path d="m 45.1797,123.254 161.648,0 0,18.3164 -161.648,0 0,-18.3164 z" id="path3020" style="fill:#5f4e6a;fill-opacity:1;fill-rule:evenodd;stroke:none"/><path d="m 45.1797,82.4961 161.648,0 0,18.3203 -161.648,0 0,-18.3203 z" id="path3022" style="fill:#5f4e6a;fill-opacity:1;fill-rule:evenodd;stroke:none"/><path d="m 45.1797,41.7422 161.648,0 0,18.3164 -161.648,0 0,-18.3164 z" id="path3024" style="fill:#5f4e6a;fill-opacity:1;fill-rule:evenodd;stroke:none"/><path d="m 247.328,0.0664063 -242.703,0 0,283.4645937 141.5,0 101.203,-101.203 c 0.129,-60.703 0,-121.4999 0,-182.2615937 z M 227.844,162.18 l -101.41,0 0,101.863 -102.3207,0 0,-244.4922 203.7307,0 0,142.6292 z m -7.41,19.484 -74.512,74.516 0,-74.516 74.512,0" id="path3026" style="fill:#5f4e6a;fill-opacity:1;fill-rule:evenodd;stroke:none"/></g></g></svg>