<?xml version="1.0" encoding="UTF-8" standalone="no"?><svg xmlns:svg="http://www.w3.org/2000/svg" xmlns="http://www.w3.org/2000/svg" version="1.1" width="35.433071" height="35.433071" xml:space="preserve"><defs id="defs3091"><clipPath id="clipPath3105"><path d="m 166.75,85.8633 c -3.566,0.668 -7.145,1.3008 -10.73,1.8789 -5.254,0.8437 -9.68,21.6128 -6.04,23.8708 1.829,1.137 3.629,2.301 5.422,3.489 3.703,2.445 10.645,5.761 8.578,11.308 -2.046,5.508 -8.925,17.524 -16.015,14.219 -4.203,-1.961 -8.117,-5.215 -11.875,-8.039 -4.145,-3.121 -21.68,8.39 -20.539,13.285 0.441,1.895 0.844,3.793 1.23,5.695 0.739,3.602 2.852,9.282 0.324,12.657 -2.753,3.668 -15.66,5.718 -19.855,4.464 -3.9219,-1.16 -4.3711,-6.246 -4.9727,-9.57 -0.4492,-2.48 -0.8789,-4.957 -1.2812,-7.453 -1.1523,-7.172 -21.8633,-9.758 -25.0195,-4.777 -1.7657,2.781 -3.5899,5.515 -5.4493,8.234 -5.9648,8.711 -14.5195,0.887 -20.5273,-4.02 -3.7031,-3.023 -3.0742,-6.699 -0.5508,-10.39 1.5625,-2.277 3.1367,-4.547 4.7383,-6.789 3.5938,-5.051 -7.543,-24.094 -15.1875,-22.766 -2.5625,0.442 -5.4219,1.512 -7.5625,1.91 C 11.457,114.938 11.6602,105.723 10.2031,98.4375 8.14453,88.1094 16.7734,87.8945 25.0391,86.5 32.0938,85.3164 36.7109,64.375 30.2344,60.1641 26.7422,57.9063 20.2969,55.0859 19.2266,50.6328 c -0.8946,-3.7187 2.789,-7.375 4.6836,-10.1406 1.8945,-2.7695 3.9687,-7.543 7.7734,-8.0508 4.9766,-0.668 10.8672,5.3399 14.6055,8.0274 9.4414,6.8203 23.3515,-4.5118 21.0039,-15.4102 -0.8985,-4.1602 -3.836,-11.5273 -0.9102,-15.44141 2.461,-3.27735 8.4688,-3.10547 12.0781,-3.85938 3.1329,-0.65625 7.4883,-1.98047 10.0118,0.8086 3.8007,4.21089 3.6836,13.26949 4.4921,18.63669 1.0274,6.8555 19.9062,9.2735 22.8242,4.5 1.754,-2.8672 3.594,-5.6836 5.473,-8.4726 2.89,-4.293 6.054,-8.918 11.597,-5.7774 3.844,2.1836 10.821,5.7969 12.887,9.8711 2.477,4.8946 -4.183,11.4453 -6.742,15.0235 -4.309,6.0039 5.769,24.1914 10.801,22.9882 2.211,-0.5312 4.437,-1.0156 6.664,-1.4726 4.285,-0.875 11.676,-3.5274 14.219,1.7539 3.453,7.1875 6.242,20.3398 -3.938,22.2461 l 0,0 z M 86.7031,64.5195 C 73.5781,66.9766 63.7188,79.6016 66.2383,93.043 68.7539,106.488 82.5156,114.699 95.6367,112.242 108.762,109.781 118.617,97.1523 116.102,83.7109 113.586,70.2656 99.8242,62.0625 86.7031,64.5195 z" id="path3107"/></clipPath><linearGradient x1="-8.16782" y1="0" x2="8.16782" y2="0" id="linearGradient3109" gradientUnits="userSpaceOnUse" gradientTransform="matrix(0.845075,0.534647,-0.534647,0.845075,9.21287,8.70854)" spreadMethod="pad"><stop id="stop3111" style="stop-color:#495363;stop-opacity:1" offset="0"/><stop id="stop3113" style="stop-color:#3775aa;stop-opacity:1" offset="1"/></linearGradient><clipPath id="clipPath3121"><path d="m 271.141,195.492 c -3.567,0.664 -7.145,1.305 -10.731,1.879 -5.254,0.844 -9.683,21.613 -6.039,23.871 1.828,1.133 3.629,2.301 5.422,3.485 3.703,2.449 10.641,5.765 8.582,11.312 -2.051,5.508 -8.93,17.527 -16.02,14.219 -4.203,-1.961 -8.117,-5.215 -11.871,-8.039 -4.148,-3.125 -21.683,8.39 -20.543,13.289 0.438,1.887 0.844,3.789 1.231,5.691 0.734,3.602 2.851,9.285 0.324,12.653 -2.754,3.671 -15.66,5.722 -19.851,4.472 -3.93,-1.168 -4.372,-6.25 -4.973,-9.574 -0.453,-2.48 -0.883,-4.961 -1.281,-7.453 -1.157,-7.172 -21.868,-9.758 -25.024,-4.781 -1.765,2.785 -3.59,5.523 -5.449,8.238 -5.965,8.707 -14.52,0.883 -20.527,-4.02 -3.703,-3.023 -3.075,-6.703 -0.551,-10.39 1.562,-2.278 3.14,-4.547 4.738,-6.789 3.594,-5.055 -7.539,-24.094 -15.191,-22.766 -2.559,0.445 -5.418,1.512 -7.559,1.91 -9.98,1.871 -9.781,-7.344 -11.234,-14.633 -2.063,-10.328 6.57,-10.546 14.836,-11.941 7.054,-1.18 11.672,-22.121 5.195,-26.328 -3.496,-2.262 -9.937,-5.082 -11.008,-9.539 -0.894,-3.719 2.789,-7.375 4.684,-10.137 1.89,-2.766 3.969,-7.543 7.773,-8.047 4.977,-0.672 10.867,5.336 14.606,8.028 9.441,6.82 23.347,-4.516 21.004,-15.414 -0.895,-4.157 -3.84,-11.524 -0.907,-15.442 2.457,-3.273 8.465,-3.105 12.075,-3.859 3.136,-0.657 7.488,-1.981 10.011,0.808 3.801,4.211 3.688,13.27 4.492,18.637 1.032,6.859 19.911,9.273 22.825,4.496 1.758,-2.867 3.593,-5.68 5.476,-8.469 2.883,-4.293 6.055,-8.918 11.594,-5.777 3.844,2.184 10.82,5.797 12.887,9.871 2.476,4.895 -4.188,11.442 -6.746,15.024 -4.305,6.003 5.773,24.191 10.804,22.984 2.211,-0.527 4.438,-1.012 6.664,-1.469 4.286,-0.879 11.676,-3.523 14.219,1.754 3.453,7.188 6.242,20.336 -3.937,22.246 l 0,0 z m -80.047,-21.344 c -13.125,2.457 -22.985,15.082 -20.469,28.528 2.52,13.445 16.277,21.648 29.406,19.191 13.121,-2.457 22.977,-15.086 20.461,-28.531 -2.519,-13.441 -16.277,-21.645 -29.398,-19.188 z" id="path3123"/></clipPath><linearGradient x1="-8.1274996" y1="0" x2="8.1274996" y2="0" id="linearGradient3125" gradientUnits="userSpaceOnUse" gradientTransform="matrix(0.856357,0.516384,-0.516384,0.856357,19.6516,19.6725)" spreadMethod="pad"><stop id="stop3127" style="stop-color:#495363;stop-opacity:1" offset="0"/><stop id="stop3129" style="stop-color:#3775aa;stop-opacity:1" offset="1"/></linearGradient></defs><g transform="matrix(1.25,0,0,-1.25,0,35.433065)" id="g3095"><g transform="matrix(0.1,0,0,0.1,-0.22689571,-0.00673397)" id="g3097"><path d="m 265.328,0.0664063 -132.922,0 c 2.469,0.3906247 5.032,1.2929737 7.703,2.8085937 7.153,4.05469 14.766,8.25 18.653,15.9102 l 0.375,0.7656 86.707,0 0,93.7772 c 6.703,3.813 13.566,7.945 17.187,15.086 5.547,10.953 0.137,18.926 -5.781,27.07 0.23,0.579 0.52,1.207 0.82,1.825 2.45,-0.5 4.891,-0.95 7.293,-1.223 0.055,-51.981 -0.035,-104.0079 -0.035,-156.0195937 z m -138.558,0 -24.985,0 c 3.492,5.3750037 4.176,11.0780937 4.871,17.2148937 0.899,-1.3829 1.813,-2.7579 2.735,-4.129 4.57,-6.78902 10.457,-11.96871 17.379,-13.0858937 z m -71.1372,0 -33.0078,0 0,20.3671937 c 1.9727,-1.1328 4.3125,-1.9297 7.2617,-2.3242 4.8477,-0.6524 8.7305,0.2148 12.2266,1.8789 l 0,-0.4375 9.3008,0 C 50.2461,13.2188 50.2031,7.26172 54.9375,0.945313 55.1641,0.640625 55.3984,0.347656 55.6328,0.0664063 z M 22.625,127.539 l 0,155.992 141.5,0 1.145,-1.144 c -9.899,3.222 -20.86,-2.977 -30.024,-10.457 -2.844,-2.325 -4.887,-5.008 -6.18,-7.887 l -86.9527,0 0,-94.188 c -3.8672,-2.031 -7.6367,-4.695 -11.1367,-7.558 -9.6524,-7.875 -10.0977,-19.863 -3.3282,-29.766 l 2.0235,-2.898 c -0.5703,-1.067 -1.293,-2.246 -1.9961,-3.238 -1.1406,0.335 -2.293,0.664 -3.461,0.882 -0.5429,0.102 -1.0703,0.188 -1.5898,0.262" id="path3099" style="fill:#5f4e6a;fill-opacity:1;fill-rule:evenodd;stroke:none"/><g id="g3101"><g clip-path="url(#clipPath3105)" id="g3103"><path d="m 166.75,85.8633 c -3.566,0.668 -7.145,1.3008 -10.73,1.8789 -5.254,0.8437 -9.68,21.6128 -6.04,23.8708 1.829,1.137 3.629,2.301 5.422,3.489 3.703,2.445 10.645,5.761 8.578,11.308 -2.046,5.508 -8.925,17.524 -16.015,14.219 -4.203,-1.961 -8.117,-5.215 -11.875,-8.039 -4.145,-3.121 -21.68,8.39 -20.539,13.285 0.441,1.895 0.844,3.793 1.23,5.695 0.739,3.602 2.852,9.282 0.324,12.657 -2.753,3.668 -15.66,5.718 -19.855,4.464 -3.9219,-1.16 -4.3711,-6.246 -4.9727,-9.57 -0.4492,-2.48 -0.8789,-4.957 -1.2812,-7.453 -1.1523,-7.172 -21.8633,-9.758 -25.0195,-4.777 -1.7657,2.781 -3.5899,5.515 -5.4493,8.234 -5.9648,8.711 -14.5195,0.887 -20.5273,-4.02 -3.7031,-3.023 -3.0742,-6.699 -0.5508,-10.39 1.5625,-2.277 3.1367,-4.547 4.7383,-6.789 3.5938,-5.051 -7.543,-24.094 -15.1875,-22.766 -2.5625,0.442 -5.4219,1.512 -7.5625,1.91 C 11.457,114.938 11.6602,105.723 10.2031,98.4375 8.14453,88.1094 16.7734,87.8945 25.0391,86.5 32.0938,85.3164 36.7109,64.375 30.2344,60.1641 26.7422,57.9063 20.2969,55.0859 19.2266,50.6328 c -0.8946,-3.7187 2.789,-7.375 4.6836,-10.1406 1.8945,-2.7695 3.9687,-7.543 7.7734,-8.0508 4.9766,-0.668 10.8672,5.3399 14.6055,8.0274 9.4414,6.8203 23.3515,-4.5118 21.0039,-15.4102 -0.8985,-4.1602 -3.836,-11.5273 -0.9102,-15.44141 2.461,-3.27735 8.4688,-3.10547 12.0781,-3.85938 3.1329,-0.65625 7.4883,-1.98047 10.0118,0.8086 3.8007,4.21089 3.6836,13.26949 4.4921,18.63669 1.0274,6.8555 19.9062,9.2735 22.8242,4.5 1.754,-2.8672 3.594,-5.6836 5.473,-8.4726 2.89,-4.293 6.054,-8.918 11.597,-5.7774 3.844,2.1836 10.821,5.7969 12.887,9.8711 2.477,4.8946 -4.183,11.4453 -6.742,15.0235 -4.309,6.0039 5.769,24.1914 10.801,22.9882 2.211,-0.5312 4.437,-1.0156 6.664,-1.4726 4.285,-0.875 11.676,-3.5274 14.219,1.7539 3.453,7.1875 6.242,20.3398 -3.938,22.2461 l 0,0 z M 86.7031,64.5195 C 73.5781,66.9766 63.7188,79.6016 66.2383,93.043 68.7539,106.488 82.5156,114.699 95.6367,112.242 108.762,109.781 118.617,97.1523 116.102,83.7109 113.586,70.2656 99.8242,62.0625 86.7031,64.5195" id="path3115" style="fill:url(#linearGradient3109);fill-opacity:1;fill-rule:nonzero;stroke:none"/></g></g><g id="g3117"><g clip-path="url(#clipPath3121)" id="g3119"><path d="m 271.141,195.492 c -3.567,0.664 -7.145,1.305 -10.731,1.879 -5.254,0.844 -9.683,21.613 -6.039,23.871 1.828,1.133 3.629,2.301 5.422,3.485 3.703,2.449 10.641,5.765 8.582,11.312 -2.051,5.508 -8.93,17.527 -16.02,14.219 -4.203,-1.961 -8.117,-5.215 -11.871,-8.039 -4.148,-3.125 -21.683,8.39 -20.543,13.289 0.438,1.887 0.844,3.789 1.231,5.691 0.734,3.602 2.851,9.285 0.324,12.653 -2.754,3.671 -15.66,5.722 -19.851,4.472 -3.93,-1.168 -4.372,-6.25 -4.973,-9.574 -0.453,-2.48 -0.883,-4.961 -1.281,-7.453 -1.157,-7.172 -21.868,-9.758 -25.024,-4.781 -1.765,2.785 -3.59,5.523 -5.449,8.238 -5.965,8.707 -14.52,0.883 -20.527,-4.02 -3.703,-3.023 -3.075,-6.703 -0.551,-10.39 1.562,-2.278 3.14,-4.547 4.738,-6.789 3.594,-5.055 -7.539,-24.094 -15.191,-22.766 -2.559,0.445 -5.418,1.512 -7.559,1.91 -9.98,1.871 -9.781,-7.344 -11.234,-14.633 -2.063,-10.328 6.57,-10.546 14.836,-11.941 7.054,-1.18 11.672,-22.121 5.195,-26.328 -3.496,-2.262 -9.937,-5.082 -11.008,-9.539 -0.894,-3.719 2.789,-7.375 4.684,-10.137 1.89,-2.766 3.969,-7.543 7.773,-8.047 4.977,-0.672 10.867,5.336 14.606,8.028 9.441,6.82 23.347,-4.516 21.004,-15.414 -0.895,-4.157 -3.84,-11.524 -0.907,-15.442 2.457,-3.273 8.465,-3.105 12.075,-3.859 3.136,-0.657 7.488,-1.981 10.011,0.808 3.801,4.211 3.688,13.27 4.492,18.637 1.032,6.859 19.911,9.273 22.825,4.496 1.758,-2.867 3.593,-5.68 5.476,-8.469 2.883,-4.293 6.055,-8.918 11.594,-5.777 3.844,2.184 10.82,5.797 12.887,9.871 2.476,4.895 -4.188,11.442 -6.746,15.024 -4.305,6.003 5.773,24.191 10.804,22.984 2.211,-0.527 4.438,-1.012 6.664,-1.469 4.286,-0.879 11.676,-3.523 14.219,1.754 3.453,7.188 6.242,20.336 -3.937,22.246 l 0,0 z m -80.047,-21.344 c -13.125,2.457 -22.985,15.082 -20.469,28.528 2.52,13.445 16.277,21.648 29.406,19.191 13.121,-2.457 22.977,-15.086 20.461,-28.531 -2.519,-13.441 -16.277,-21.645 -29.398,-19.188" id="path3131" style="fill:url(#linearGradient3125);fill-opacity:1;fill-rule:nonzero;stroke:none"/></g></g><path d="m 196.258,226.707 c 16.633,0 30.117,-13.488 30.117,-30.117 0,-16.633 -13.484,-30.121 -30.117,-30.121 -16.629,0 -30.117,13.488 -30.117,30.121 0,16.629 13.488,30.117 30.117,30.117 z m 0,-9.719 c 11.265,0 20.398,-9.133 20.398,-20.398 0,-11.266 -9.133,-20.399 -20.398,-20.399 -11.262,0 -20.395,9.133 -20.395,20.399 0,11.265 9.133,20.398 20.395,20.398" id="path3133" style="fill:#5f4e6a;fill-opacity:1;fill-rule:evenodd;stroke:none"/><path d="m 166.293,253.938 c 5.605,-8.84 31.988,-5.02 33.852,6.593 0.394,2.461 0.82,4.91 1.269,7.356 0.156,0.871 0.77,5.25 1.566,5.804 2.606,0.778 12.778,-0.859 14.7,-2.769 0.894,-1.195 -0.922,-7.27 -1.227,-8.758 -0.379,-1.859 -0.777,-3.715 -1.207,-5.562 -2.195,-9.454 20.289,-24.141 28.133,-18.235 3.418,2.574 7.137,5.715 11.012,7.524 3.007,1.402 8.621,-9.262 9.464,-11.532 0.567,-1.523 -5.82,-5.015 -6.722,-5.613 -1.75,-1.16 -3.516,-2.305 -5.301,-3.41 -7.855,-4.859 -1.644,-31.203 7.813,-32.723 3.523,-0.566 7.035,-1.191 10.539,-1.843 l 0.07,-0.016 c 6.012,-1.125 2.078,-12.094 0.484,-15.418 -0.668,-1.383 -7.886,0.668 -8.91,0.879 -2.176,0.441 -4.348,0.918 -6.504,1.433 -10.422,2.497 -22.238,-21.574 -15.851,-30.48 0.824,-1.148 7.125,-8.535 6.363,-10.035 -1.356,-2.68 -8.348,-6.375 -10.961,-7.86 -2.301,-1.304 -4,2.454 -5.223,4.278 -1.839,2.73 -3.644,5.484 -5.363,8.297 -5.34,8.742 -30,5.023 -31.699,-6.297 -0.57,-3.817 -0.813,-13.367 -3.301,-16.125 -0.769,-0.457 -4.652,0.508 -5.449,0.676 -1.434,0.3 -8.348,0.89 -9.207,2.035 -1.211,1.609 1.328,9.511 1.762,11.531 3.222,14.98 -15.317,29.891 -28.536,20.34 -1.941,-1.399 -8.718,-7.488 -11.144,-7.16 -1.016,0.132 -3.899,5.207 -4.438,5.992 -0.539,0.793 -4.214,5.301 -3.976,6.293 0.492,2.039 7.25,5.519 8.945,6.617 10.145,6.59 4.547,33.195 -7.019,35.133 -2.2,0.367 -9.258,1.133 -10.711,2.734 -0.672,0.754 -0.368,2.656 -0.196,3.508 0.422,2.113 1.211,9.266 2.707,10.648 0.61,0.563 2.223,0.321 2.914,0.192 2.543,-0.473 4.993,-1.469 7.622,-1.926 11.644,-2.016 26.269,21.418 19.941,30.309 l -4.688,6.718 c -1,1.461 -1.918,2.68 -0.378,3.93 2.945,2.41 10.085,10.031 13.503,5.031 1.825,-2.664 3.625,-5.355 5.352,-8.089 z m 59.059,22.804 c -4.047,5.395 -18.829,8.063 -25.082,6.199 -6.313,-1.871 -7.348,-7.828 -8.34,-13.332 -0.461,-2.511 -0.895,-5.027 -1.301,-7.55 -1.449,-2.59 -13.481,-4.297 -16.379,-2.664 -1.734,2.722 -3.531,5.41 -5.352,8.078 -8.285,12.097 -19.519,3.558 -27.554,-3.008 -5.75,-4.692 -5.399,-11.117 -1.481,-16.844 l 4.598,-6.601 c 0.504,-3.61 -6.832,-15.489 -10.273,-15.485 -2.52,0.442 -4.938,1.43 -7.473,1.903 -13.832,2.589 -14.906,-8.719 -16.848,-18.426 -2.828,-14.196 8.328,-15.879 18.762,-17.637 3.008,-1.43 5.91,-15.277 3.359,-17.547 -5.027,-3.258 -11.484,-5.906 -13.054,-12.441 -1.418,-5.903 2.433,-9.68 5.39,-13.992 2.953,-4.321 5.074,-9.297 11.114,-10.102 7.214,-0.973 12.785,5.105 18.058,8.895 5.824,4.21 14.895,-3.895 13.477,-10.489 -1.336,-6.199 -4.426,-13.504 -0.055,-19.344 3.809,-5.078 9.59,-4.566 14.949,-5.687 5.153,-1.078 10.488,-2.211 14.571,2.297 5.035,5.578 4.636,14.183 5.683,21.152 1.309,2.238 11.508,3.738 14.156,2.36 1.731,-2.813 3.536,-5.575 5.379,-8.309 4.321,-6.418 9.77,-11.926 17.969,-7.277 5.066,2.875 12.102,6.543 14.809,11.882 3.875,7.649 -3.071,14.344 -7.125,20.004 -1.442,2.692 3.695,13.188 6.648,15.293 1.973,-0.465 3.949,-0.89 5.941,-1.297 6.856,-1.406 15.543,-3.89 19.52,4.387 5.293,11.016 5.633,26.629 -7.387,29.07 l -0.074,0.012 -4.668,0.875 -5.469,0.903 c -2.105,2.359 -4.441,12.261 -3.933,15.734 l 4.566,2.957 c 5.879,3.887 13.66,8.336 10.438,17.004 -3.102,8.332 -11.993,21.844 -22.571,16.91 -4.453,-2.074 -8.257,-5.16 -12.14,-8.109 -3.223,0.293 -11.735,5.847 -13.367,8.679 l 1.082,5.039 c 1.125,5.516 3.304,11.379 -0.543,16.508" id="path3135" style="fill:#5f4e6a;fill-opacity:1;fill-rule:evenodd;stroke:none"/><path d="m 91.9883,117.074 c 16.6327,0 30.1167,-13.488 30.1167,-30.117 0,-16.6328 -13.484,-30.1172 -30.1167,-30.1172 -16.6289,0 -30.1172,13.4844 -30.1172,30.1172 0,16.629 13.4883,30.117 30.1172,30.117 z m 0,-9.719 c 11.2657,0 20.3987,-9.1362 20.3987,-20.398 0,-11.2656 -9.133,-20.3984 -20.3987,-20.3984 -11.2617,0 -20.3945,9.1328 -20.3945,20.3984 0,11.2618 9.1328,20.398 20.3945,20.398" id="path3137" style="fill:#5f4e6a;fill-opacity:1;fill-rule:evenodd;stroke:none"/><path d="m 62.0234,144.305 c 5.6055,-8.836 31.9844,-5.024 33.8516,6.597 0.3945,2.453 0.8203,4.907 1.2656,7.356 0.1563,0.867 0.7696,5.246 1.5703,5.805 2.6021,0.777 12.7731,-0.864 14.6951,-2.774 0.895,-1.195 -0.918,-7.269 -1.222,-8.758 -0.383,-1.859 -0.778,-3.711 -1.207,-5.558 -2.2,-9.457 20.289,-24.145 28.132,-18.239 3.418,2.575 7.137,5.719 11.012,7.524 3.008,1.402 8.621,-9.262 9.465,-11.531 0.566,-1.52 -5.824,-5.016 -6.723,-5.61 -1.754,-1.164 -3.515,-2.304 -5.3,-3.414 -7.856,-4.855 -1.649,-31.203 7.808,-32.7225 3.524,-0.5664 7.039,-1.1875 10.543,-1.8438 l 0.07,-0.0156 c 6.012,-1.125 2.079,-12.0938 0.481,-15.418 -0.668,-1.3789 -7.887,0.668 -8.91,0.8789 -2.176,0.4453 -4.348,0.918 -6.504,1.4375 -10.422,2.4922 -22.235,-21.5781 -15.848,-30.4843 0.82,-1.1446 7.125,-8.5352 6.363,-10.0313 -1.359,-2.6836 -8.347,-6.375 -10.964,-7.8633 -2.297,-1.3008 -3.997,2.4532 -5.223,4.2774 -1.836,2.7304 -3.641,5.4843 -5.359,8.2968 C 114.68,40.957 90.0195,37.2383 88.3203,25.918 87.7461,22.1055 87.5039,12.5508 85.0156,9.79297 84.25,9.33594 80.3633,10.3047 79.5664,10.4727 c -1.4297,0.2968 -8.3476,0.8906 -9.2031,2.0312 -1.211,1.6094 1.3242,9.5117 1.7617,11.5352 C 75.3477,39.0156 56.8086,53.9258 43.5898,44.375 41.6484,42.9805 34.8672,36.8906 32.4414,37.2148 31.4258,37.3516 28.5469,42.4219 28.0078,43.2109 27.4648,44 23.793,48.5117 24.0313,49.5 c 0.4882,2.0391 7.25,5.5234 8.9453,6.6211 10.1406,6.5898 4.5429,33.1914 -7.0235,35.1289 -2.1953,0.3672 -9.2539,1.1328 -10.707,2.7383 -0.6758,0.75 -0.3711,2.6562 -0.1992,3.5039 0.4258,2.1172 1.2109,9.2698 2.707,10.6488 0.6133,0.562 2.2266,0.32 2.918,0.191 2.5429,-0.473 4.9922,-1.469 7.6172,-1.926 11.6445,-2.015 26.2734,21.418 19.9453,30.309 l -4.6914,6.723 c -0.9961,1.457 -1.9141,2.675 -0.375,3.929 2.9453,2.41 10.082,10.031 13.5039,5.031 1.8242,-2.668 3.6211,-5.355 5.3515,-8.093 z m 59.0586,22.804 c -4.047,5.395 -18.832,8.063 -25.0859,6.2 -6.3086,-1.868 -7.3438,-7.825 -8.3398,-13.332 -0.4571,-2.508 -0.8946,-5.028 -1.2969,-7.551 -1.4492,-2.586 -13.4844,-4.297 -16.3789,-2.664 -1.7344,2.726 -3.5313,5.41 -5.3555,8.078 -8.2812,12.098 -19.5156,3.558 -27.5508,-3.004 -5.7539,-4.695 -5.3984,-11.121 -1.4804,-16.848 l 4.5976,-6.597 c 0.5039,-3.61 -6.832,-15.489 -10.2734,-15.485 -2.5196,0.438 -4.9414,1.426 -7.4766,1.899 C 8.61328,120.398 7.53906,109.09 5.59375,99.3789 2.76563,85.1875 13.9258,83.5039 24.3594,81.7422 27.3672,80.3125 30.2695,66.4648 27.7188,64.1953 22.6914,60.9414 16.2305,58.293 14.6602,51.7539 c -1.4141,-5.8984 2.4375,-9.6758 5.3945,-13.9883 2.9531,-4.3242 5.0742,-9.2968 11.1094,-10.1015 7.2187,-0.9727 12.789,5.1015 18.0586,8.8945 5.8281,4.207 14.8984,-3.8984 13.4765,-10.4922 -1.332,-6.1992 -4.4258,-13.5 -0.0508,-19.34374 3.8086,-5.07422 9.586,-4.56641 14.9493,-5.6875 5.1523,-1.0742225 10.4882,-2.21094 14.5664,2.30078 5.0351,5.57422 4.6367,14.17966 5.6836,21.14846 1.3125,2.2383 11.5113,3.7422 14.1603,2.3633 1.726,-2.8125 3.535,-5.5743 5.379,-8.3125 4.32,-6.418 9.769,-11.92582 17.968,-7.2774 5.067,2.875 12.102,6.5391 14.809,11.8828 3.875,7.6485 -3.07,14.3438 -7.125,20.0078 -1.445,2.6875 3.695,13.1836 6.649,15.2891 1.972,-0.4648 3.949,-0.8906 5.937,-1.2969 6.859,-1.4062 15.543,-3.8867 19.523,4.3867 5.293,11.0157 5.633,26.629 -7.386,29.0665 l -0.074,0.0156 -4.668,0.875 -5.469,0.9062 c -2.11,2.3555 -4.442,12.2574 -3.934,15.7344 l 4.567,2.957 c 5.879,3.883 13.66,8.332 10.433,17.004 -3.097,8.328 -11.988,21.844 -22.566,16.906 -4.453,-2.074 -8.262,-5.16 -12.141,-8.109 -3.222,0.297 -11.738,5.847 -13.371,8.68 l 1.086,5.039 c 1.125,5.515 3.305,11.378 -0.543,16.507" id="path3139" style="fill:#5f4e6a;fill-opacity:1;fill-rule:evenodd;stroke:none"/><path d="m 180.238,200.551 46.129,0 0,-0.762 c 4.238,1.695 8.735,2.465 13.36,2.465 10.796,0 20.5,-3.621 27.406,-12.199 6.953,-8.703 9.074,-20 9.074,-30.887 0,-8.148 -1.324,-16.246 -4.629,-23.746 -3.094,-6.969 -7.664,-12.949 -13.984,-17.25 -6.231,-4.262 -13.266,-6.332 -20.809,-6.332 -3.668,0 -7.16,0.484 -10.418,1.488 l 0,-31.9842 -46.129,0 0,32.1992 -37.23,0 -4.903,10.398 c -0.875,-1.847 -1.742,-3.671 -2.562,-5.453 l -2.277,-4.945 -54.5316,0 0.2461,0.371 c -6.5391,-1.516 -13.3438,-2.074 -19.9961,-2.074 -12.4922,0 -24.8281,2.957 -34.2461,11.601 -9.1797,8.45 -12.9414,19.723 -12.9414,32.043 0,8.293 1.5898,16.411 5.4375,23.805 3.8086,7.316 9.4609,13 16.6719,17.024 7.2734,4.023 15.207,5.941 23.5156,5.941 7.8867,0 15.7148,-1.453 22.6914,-5.277 1.5508,-0.852 3.0195,-1.793 4.4062,-2.817 l -4.0234,6.391 54.4569,0 4.992,-10.77 4.754,10.77 35.539,0 z m 0,-26.012 -10.769,-15.543 10.769,-17.801 0,33.344 z m -87.0349,-39.035 3.1485,4.777 -3.1485,0 0,-4.777 z m 5.8516,35.574 c 0.8242,-3.707 1.1953,-7.523 1.1953,-11.371 l 0,-13.508 7.398,11.231 -8.5933,13.648 z M 226.98,150.176 c 0.059,0 0.122,0 0.168,0 0.622,0 0.719,0.019 1.051,0.527 1.242,1.875 1.461,5.426 1.461,7.582 0,1.555 -0.101,4.192 -1.043,5.57 -0.219,0.094 -0.676,0.063 -0.906,0.063 -0.074,0 -0.191,0.008 -0.266,-0.012 -0.125,-0.082 -0.308,-0.336 -0.394,-0.449 -1.055,-1.453 -1.242,-4.156 -1.242,-5.875 l 0,-1.352 c 0,-1.765 0.183,-4.308 1.171,-6.054" id="path3141" style="fill:#ffffff;fill-opacity:1;fill-rule:evenodd;stroke:none"/><path d="m 48.4609,148.785 c 0.5118,-3.012 2.2383,-5.367 5.2032,-7.094 2.9648,-1.703 6.8828,-2.566 11.7578,-2.566 6.7929,0 13.207,1.305 19.2773,3.898 l 0,-18.457 c -7.0742,-2.824 -15.6367,-4.222 -25.7148,-4.222 -12.2031,0 -21.6992,3.125 -28.4883,9.355 -6.793,6.254 -10.1953,14.84 -10.1953,25.785 0,7.512 1.4883,14.137 4.4765,19.879 2.9883,5.739 7.3946,10.242 13.254,13.508 5.8593,3.246 12.3203,4.879 19.3906,4.879 7.2344,0 13.4375,-1.398 18.5937,-4.227 5.1328,-2.82 9.0547,-6.789 11.7149,-11.898 2.6601,-5.109 4.0156,-11.082 4.0156,-17.918 l 0,-10.922 -43.2852,0 z m 17.5,15.235 c 0,8.078 -2.8945,12.089 -8.6796,12.089 -2.4258,0 -4.4336,-1.093 -6.0899,-3.312 -1.6328,-2.195 -2.5898,-5.133 -2.8672,-8.777 l 17.6367,0 z m 93.3791,-4.711 22.543,-37.262 -33.485,0 -7.511,15.937 c -0.864,1.774 -1.844,4.2 -2.942,7.305 l -0.281,0 c -0.953,-3.105 -1.562,-4.996 -1.844,-5.719 -0.277,-0.699 -2.937,-6.535 -8,-17.523 l -33.3005,0 23.2425,35.277 -21.8636,34.723 33.6216,0 7.539,-16.266 c 1.004,-1.863 1.984,-4.433 2.988,-7.652 l 0.281,0 c 1.328,3.969 2.262,6.555 2.797,7.797 l 7.117,16.121 31.778,0 -22.68,-32.738 z m 108.363,-0.141 c 0,-7.652 -1.305,-14.418 -3.898,-20.297 -2.614,-5.879 -6.274,-10.457 -11.012,-13.676 -4.734,-3.242 -10.078,-4.851 -16.008,-4.851 -8.187,0 -14.418,2.988 -18.64,8.957 l -0.282,0 0,-39.4533 -29.121,0 0,102.1993 29.121,0 0,-9.5 0.282,0 c 2.308,3.504 5.32,6.254 9.003,8.238 3.711,1.985 7.891,2.965 12.579,2.965 9.031,0 15.937,-3.008 20.765,-9.008 4.809,-6.019 7.211,-14.558 7.211,-25.574 z m -29.539,-0.883 c 0,4.406 -0.863,7.887 -2.566,10.383 -1.707,2.492 -4.34,3.754 -7.887,3.754 -3.106,0 -5.602,-1.305 -7.539,-3.969 -1.914,-2.633 -2.867,-6.25 -2.867,-10.871 l 0,-1.352 c 0,-4.433 0.84,-7.957 2.472,-10.593 1.633,-2.66 4.106,-3.965 7.371,-3.965 3.524,0 6.231,1.445 8.145,4.34 1.914,2.89 2.871,6.972 2.871,12.273" id="path3143" style="fill:#d34a37;fill-opacity:1;fill-rule:nonzero;stroke:none"/></g></g></svg>