<?xml version="1.0" encoding="UTF-8" standalone="no"?><svg xmlns:svg="http://www.w3.org/2000/svg" xmlns="http://www.w3.org/2000/svg" version="1.1" width="35.433071" height="35.433071" xml:space="preserve"><defs id="defs3008"><clipPath id="clipPath3020"><path d="m 31.4297,88.2031 c 7.5625,-7.5976 9.9101,-26.6484 1.5469,-32.082 -1.6953,-1.0977 -8.4571,-4.582 -8.9453,-6.6211 -0.2383,-0.9883 3.4335,-5.5 3.9765,-6.2891 0.5391,-0.789 3.418,-5.8593 4.4336,-5.9961 2.4258,-0.3242 9.207,5.7657 11.1484,7.1602 13.2188,9.5508 31.7579,-5.3594 28.5352,-20.3359 -0.4375,-2.0235 -2.9727,-9.9258 -1.7617,-11.5352 0.8555,-1.1406 7.7734,-1.7344 9.2031,-2.0312 0.7969,-0.168 4.6836,-1.13676 5.4492,-0.67973 2.4883,2.75783 2.7305,12.31253 3.3047,16.12503 1.6992,11.3203 26.3597,15.039 31.6997,6.2968 1.718,-2.8125 3.523,-5.5664 5.359,-8.2968 1.226,-1.8242 2.926,-5.5782 5.223,-4.2774 2.617,1.4883 9.605,5.1797 10.964,7.8633 0.762,1.4961 -5.543,8.8867 -6.363,10.0313 -6.387,8.9062 5.426,32.9765 15.848,30.4843 2.156,-0.5195 4.328,-0.9922 6.504,-1.4375 1.023,-0.2109 8.242,-2.2578 8.91,-0.8789 1.598,3.3242 5.531,14.293 -0.481,15.418 l -0.07,0.0156 c -3.504,0.6563 -7.019,1.2774 -10.543,1.8438 -2.406,0.3828 -4.605,2.3867 -6.41,5.2226 l -26.887,0 c 0.016,-0.414 0.031,-0.8281 0.031,-1.2461 0,-16.6328 -13.484,-30.1172 -30.1167,-30.1172 -16.6289,0 -30.1172,13.4844 -30.1172,30.1172 0,0.418 0.0078,0.8321 0.0273,1.2461 l -30.4687,0 z" id="path3022"/></clipPath><linearGradient x1="-6.37708" y1="0" x2="6.37708" y2="0" id="linearGradient3024" gradientUnits="userSpaceOnUse" gradientTransform="matrix(0.936366,0.351025,-0.351025,0.936366,9.66135,4.89375)" spreadMethod="pad"><stop id="stop3026" style="stop-color:#495363;stop-opacity:1" offset="0"/><stop id="stop3028" style="stop-color:#3775aa;stop-opacity:1" offset="1"/></linearGradient><clipPath id="clipPath3036"><path d="m 255.066,195.391 c -6.617,7.222 -9.726,25.925 -3.234,29.945 1.785,1.105 3.551,2.25 5.301,3.41 0.902,0.598 7.289,4.09 6.722,5.613 -0.843,2.27 -6.457,12.934 -9.464,11.532 -3.875,-1.809 -7.594,-4.95 -11.012,-7.524 -7.844,-5.906 -30.328,8.781 -28.133,18.235 0.43,1.847 0.828,3.703 1.207,5.562 0.305,1.488 2.121,7.563 1.227,8.758 -1.922,1.91 -12.094,3.547 -14.7,2.769 -0.796,-0.554 -1.41,-4.933 -1.566,-5.804 -0.449,-2.446 -0.875,-4.895 -1.269,-7.356 -1.864,-11.613 -28.247,-15.433 -33.852,-6.593 -1.727,2.734 -3.527,5.425 -5.352,8.089 -3.418,5 -10.558,-2.621 -13.503,-5.031 -1.54,-1.25 -0.622,-2.469 0.378,-3.93 l 4.688,-6.718 c 6.328,-8.891 -8.297,-32.325 -19.941,-30.309 -2.629,0.457 -5.079,1.453 -7.622,1.926 -0.691,0.129 -2.304,0.371 -2.914,-0.192 -1.496,-1.382 -2.285,-8.535 -2.707,-10.648 -0.172,-0.852 -0.476,-2.754 0.196,-3.508 1.453,-1.601 8.511,-2.367 10.711,-2.734 2.925,-0.488 5.464,-2.567 7.468,-5.492 l 28.469,0 -0.023,1.199 c 0,16.629 13.488,30.117 30.117,30.117 16.633,0 30.117,-13.488 30.117,-30.117 0,-0.402 -0.016,-0.801 -0.027,-1.199 l 28.718,0 z" id="path3038"/></clipPath><linearGradient x1="-6.3622098" y1="0" x2="6.3622098" y2="0" id="linearGradient3040" gradientUnits="userSpaceOnUse" gradientTransform="matrix(0.936366,0.351025,-0.351025,0.936366,19.1498,23.4639)" spreadMethod="pad"><stop id="stop3042" style="stop-color:#495363;stop-opacity:1" offset="0"/><stop id="stop3044" style="stop-color:#3775aa;stop-opacity:1" offset="1"/></linearGradient></defs><g transform="matrix(1.25,0,0,-1.25,0,35.433065)" id="g3012"><g transform="matrix(0.1,0,0,0.1,-0.20023405,-0.00673397)" id="g3014"><g id="g3016"><g clip-path="url(#clipPath3020)" id="g3018"><path d="m 31.4297,88.2031 c 7.5625,-7.5976 9.9101,-26.6484 1.5469,-32.082 -1.6953,-1.0977 -8.4571,-4.582 -8.9453,-6.6211 -0.2383,-0.9883 3.4335,-5.5 3.9765,-6.2891 0.5391,-0.789 3.418,-5.8593 4.4336,-5.9961 2.4258,-0.3242 9.207,5.7657 11.1484,7.1602 13.2188,9.5508 31.7579,-5.3594 28.5352,-20.3359 -0.4375,-2.0235 -2.9727,-9.9258 -1.7617,-11.5352 0.8555,-1.1406 7.7734,-1.7344 9.2031,-2.0312 0.7969,-0.168 4.6836,-1.13676 5.4492,-0.67973 2.4883,2.75783 2.7305,12.31253 3.3047,16.12503 1.6992,11.3203 26.3597,15.039 31.6997,6.2968 1.718,-2.8125 3.523,-5.5664 5.359,-8.2968 1.226,-1.8242 2.926,-5.5782 5.223,-4.2774 2.617,1.4883 9.605,5.1797 10.964,7.8633 0.762,1.4961 -5.543,8.8867 -6.363,10.0313 -6.387,8.9062 5.426,32.9765 15.848,30.4843 2.156,-0.5195 4.328,-0.9922 6.504,-1.4375 1.023,-0.2109 8.242,-2.2578 8.91,-0.8789 1.598,3.3242 5.531,14.293 -0.481,15.418 l -0.07,0.0156 c -3.504,0.6563 -7.019,1.2774 -10.543,1.8438 -2.406,0.3828 -4.605,2.3867 -6.41,5.2226 l -26.887,0 c 0.016,-0.414 0.031,-0.8281 0.031,-1.2461 0,-16.6328 -13.484,-30.1172 -30.1167,-30.1172 -16.6289,0 -30.1172,13.4844 -30.1172,30.1172 0,0.418 0.0078,0.8321 0.0273,1.2461 l -30.4687,0" id="path3030" style="fill:url(#linearGradient3024);fill-opacity:1;fill-rule:nonzero;stroke:none"/></g></g><g id="g3032"><g clip-path="url(#clipPath3036)" id="g3034"><path d="m 255.066,195.391 c -6.617,7.222 -9.726,25.925 -3.234,29.945 1.785,1.105 3.551,2.25 5.301,3.41 0.902,0.598 7.289,4.09 6.722,5.613 -0.843,2.27 -6.457,12.934 -9.464,11.532 -3.875,-1.809 -7.594,-4.95 -11.012,-7.524 -7.844,-5.906 -30.328,8.781 -28.133,18.235 0.43,1.847 0.828,3.703 1.207,5.562 0.305,1.488 2.121,7.563 1.227,8.758 -1.922,1.91 -12.094,3.547 -14.7,2.769 -0.796,-0.554 -1.41,-4.933 -1.566,-5.804 -0.449,-2.446 -0.875,-4.895 -1.269,-7.356 -1.864,-11.613 -28.247,-15.433 -33.852,-6.593 -1.727,2.734 -3.527,5.425 -5.352,8.089 -3.418,5 -10.558,-2.621 -13.503,-5.031 -1.54,-1.25 -0.622,-2.469 0.378,-3.93 l 4.688,-6.718 c 6.328,-8.891 -8.297,-32.325 -19.941,-30.309 -2.629,0.457 -5.079,1.453 -7.622,1.926 -0.691,0.129 -2.304,0.371 -2.914,-0.192 -1.496,-1.382 -2.285,-8.535 -2.707,-10.648 -0.172,-0.852 -0.476,-2.754 0.196,-3.508 1.453,-1.601 8.511,-2.367 10.711,-2.734 2.925,-0.488 5.464,-2.567 7.468,-5.492 l 28.469,0 -0.023,1.199 c 0,16.629 13.488,30.117 30.117,30.117 16.633,0 30.117,-13.488 30.117,-30.117 0,-0.402 -0.016,-0.801 -0.027,-1.199 l 28.718,0" id="path3046" style="fill:url(#linearGradient3040);fill-opacity:1;fill-rule:nonzero;stroke:none"/></g></g><path d="m 265.328,0.0664063 -132.922,0 c 2.469,0.3906247 5.032,1.2929737 7.703,2.8085937 7.153,4.05469 14.766,8.25 18.653,15.9102 l 0.375,0.7656 86.707,0 0,30.707 19.492,0 -0.008,-50.1913937 z m -138.558,0 -24.985,0 c 3.492,5.3750037 4.176,11.0780937 4.871,17.2148937 0.899,-1.3829 1.813,-2.7579 2.735,-4.129 4.57,-6.78902 10.457,-11.96871 17.379,-13.0858937 z m -71.1372,0 -33.0078,0 0,20.3671937 c 1.9727,-1.1328 4.3125,-1.9297 7.2617,-2.3242 4.8477,-0.6524 8.7305,0.2148 12.2266,1.8789 l 0,-0.4375 9.3008,0 C 50.2461,13.2188 50.2031,7.26172 54.9375,0.945313 55.1641,0.640625 55.3984,0.347656 55.6328,0.0664063 z M 22.625,195.391 l 0,88.14 141.5,0 1.145,-1.144 c -9.899,3.222 -20.86,-2.977 -30.024,-10.457 -2.844,-2.325 -4.887,-5.008 -6.18,-7.887 l -86.9527,0 0,-68.652 -19.4883,0" id="path3048" style="fill:#5f4e6a;fill-opacity:1;fill-rule:evenodd;stroke:none"/><path d="m 196.258,226.707 c 16.633,0 30.117,-13.488 30.117,-30.117 0,-0.402 -0.016,-0.797 -0.027,-1.199 l -9.731,0 c 0.024,0.398 0.039,0.797 0.039,1.199 0,11.265 -9.133,20.398 -20.398,20.398 -11.262,0 -20.395,-9.133 -20.395,-20.398 0,-0.402 0.016,-0.801 0.039,-1.199 l -9.734,0 c -0.012,0.402 -0.027,0.797 -0.027,1.199 0,16.629 13.488,30.117 30.117,30.117" id="path3050" style="fill:#5f4e6a;fill-opacity:1;fill-rule:evenodd;stroke:none"/><path d="m 166.293,253.938 c 5.605,-8.84 31.988,-5.02 33.852,6.593 0.394,2.461 0.82,4.91 1.269,7.356 0.156,0.871 0.77,5.25 1.566,5.804 2.606,0.778 12.778,-0.859 14.7,-2.769 0.894,-1.195 -0.922,-7.27 -1.227,-8.758 -0.379,-1.859 -0.777,-3.715 -1.207,-5.562 -2.195,-9.454 20.289,-24.141 28.133,-18.235 3.418,2.574 7.137,5.715 11.012,7.524 3.007,1.402 8.621,-9.262 9.464,-11.532 0.567,-1.523 -5.82,-5.015 -6.722,-5.613 -1.75,-1.16 -3.516,-2.305 -5.301,-3.41 -6.496,-4.02 -3.383,-22.731 3.246,-29.945 l 24.985,0 c -1.735,2.402 -4.344,4.144 -8.032,4.839 l -0.074,0.012 -4.668,0.875 -5.469,0.903 c -2.105,2.359 -4.441,12.261 -3.933,15.734 l 4.566,2.957 c 5.879,3.887 13.66,8.336 10.438,17.004 -3.102,8.332 -11.993,21.844 -22.571,16.91 -4.453,-2.074 -8.257,-5.16 -12.14,-8.109 -3.223,0.293 -11.735,5.847 -13.367,8.679 l 1.082,5.039 c 1.125,5.516 3.304,11.379 -0.543,16.508 -4.047,5.395 -18.829,8.063 -25.082,6.199 -6.313,-1.871 -7.348,-7.828 -8.34,-13.332 -0.461,-2.511 -0.895,-5.027 -1.301,-7.55 -1.449,-2.59 -13.481,-4.297 -16.379,-2.664 -1.734,2.722 -3.531,5.41 -5.352,8.078 -8.285,12.097 -19.519,3.558 -27.554,-3.008 -5.75,-4.692 -5.399,-11.117 -1.481,-16.844 l 4.598,-6.601 c 0.504,-3.61 -6.832,-15.489 -10.273,-15.485 -2.52,0.442 -4.938,1.43 -7.473,1.903 -13.832,2.589 -14.906,-8.719 -16.848,-18.426 -1.441,-7.239 0.762,-11.219 4.641,-13.621 l 23.199,0 c -2.004,2.929 -4.551,5.004 -7.48,5.492 -2.2,0.367 -9.258,1.133 -10.711,2.734 -0.672,0.754 -0.368,2.656 -0.196,3.508 0.422,2.113 1.211,9.266 2.707,10.648 0.61,0.563 2.223,0.321 2.914,0.192 2.543,-0.473 4.993,-1.469 7.622,-1.926 11.644,-2.016 26.269,21.418 19.941,30.309 l -4.688,6.718 c -1,1.461 -1.918,2.68 -0.378,3.93 2.945,2.41 10.085,10.031 13.503,5.031 1.825,-2.664 3.625,-5.355 5.352,-8.089" id="path3052" style="fill:#5f4e6a;fill-opacity:1;fill-rule:evenodd;stroke:none"/><path d="m 122.074,88.2031 c 0.016,-0.414 0.031,-0.8281 0.031,-1.2461 0,-16.6328 -13.484,-30.1172 -30.1167,-30.1172 -16.6289,0 -30.1172,13.4844 -30.1172,30.1172 0,0.418 0.0156,0.8321 0.0312,1.2461 l 9.7305,0 c -0.0234,-0.4062 -0.039,-0.8281 -0.039,-1.2461 0,-11.2656 9.1328,-20.3984 20.3945,-20.3984 11.2657,0 20.3987,9.1328 20.3987,20.3984 0,0.418 -0.02,0.8399 -0.043,1.2461 l 9.73,0" id="path3054" style="fill:#5f4e6a;fill-opacity:1;fill-rule:evenodd;stroke:none"/><path d="m 148.961,88.2031 c 1.805,-2.8359 4.004,-4.8398 6.41,-5.2226 3.524,-0.5664 7.039,-1.1875 10.543,-1.8438 l 0.07,-0.0156 c 6.012,-1.125 2.079,-12.0938 0.481,-15.418 -0.668,-1.3789 -7.887,0.668 -8.91,0.8789 -2.176,0.4453 -4.348,0.918 -6.504,1.4375 -10.422,2.4922 -22.235,-21.5781 -15.848,-30.4843 0.82,-1.1446 7.125,-8.5352 6.363,-10.0313 -1.359,-2.6836 -8.347,-6.375 -10.964,-7.8633 -2.297,-1.3008 -3.997,2.4532 -5.223,4.2774 -1.836,2.7304 -3.641,5.4843 -5.359,8.2968 C 114.68,40.957 90.0195,37.2383 88.3203,25.918 87.7461,22.1055 87.5039,12.5508 85.0156,9.79297 84.25,9.33594 80.3633,10.3047 79.5664,10.4727 c -1.4297,0.2968 -8.3476,0.8906 -9.2031,2.0312 -1.211,1.6094 1.3242,9.5117 1.7617,11.5352 C 75.3477,39.0156 56.8086,53.9258 43.5898,44.375 41.6484,42.9805 34.8672,36.8906 32.4414,37.2148 31.4258,37.3516 28.5469,42.4219 28.0078,43.2109 27.4648,44 23.793,48.5117 24.0313,49.5 c 0.4882,2.0391 7.25,5.5234 8.9453,6.6211 8.3632,5.4336 6.0273,24.4844 -1.5391,32.082 l -24.03125,0 C 10.8594,83.9492 17.7461,82.8555 24.3594,81.7422 27.3672,80.3125 30.2695,66.4648 27.7188,64.1953 22.6914,60.9414 16.2305,58.293 14.6602,51.7539 c -1.4141,-5.8984 2.4375,-9.6758 5.3945,-13.9883 2.9531,-4.3242 5.0742,-9.2968 11.1094,-10.1015 7.2187,-0.9727 12.789,5.1015 18.0586,8.8945 5.8281,4.207 14.8984,-3.8984 13.4765,-10.4922 -1.332,-6.1992 -4.4258,-13.5 -0.0508,-19.34374 3.8086,-5.07422 9.586,-4.56641 14.9493,-5.6875 5.1523,-1.0742225 10.4882,-2.21094 14.5664,2.30078 5.0351,5.57422 4.6367,14.17966 5.6836,21.14846 1.3125,2.2383 11.5113,3.7422 14.1603,2.3633 1.726,-2.8125 3.535,-5.5743 5.379,-8.3125 4.32,-6.418 9.769,-11.92582 17.968,-7.2774 5.067,2.875 12.102,6.5391 14.809,11.8828 3.875,7.6485 -3.07,14.3438 -7.125,20.0078 -1.445,2.6875 3.695,13.1836 6.649,15.2891 1.972,-0.4648 3.949,-0.8906 5.937,-1.2969 5.109,-1.0468 11.215,-2.6836 15.652,-0.0429 l 0,29.8711 c 0,0.6835 -1.351,1.2343 -3.019,1.2343 l -19.297,0" id="path3056" style="fill:#5f4e6a;fill-opacity:1;fill-rule:evenodd;stroke:none"/><path d="m 87.4883,133.539 -53.8164,0 c 0.8515,-11.965 8.414,-17.957 22.6289,-17.957 9.0781,0 17.0508,2.145 23.9258,6.434 l 0,-18.371 C 72.6094,99.5742 62.7109,97.5391 50.5,97.5391 c -13.3086,0 -23.6484,3.6879 -31.0195,11.0819 -7.3438,7.371 -11.02737,17.684 -11.02737,30.883 0,13.695 3.96097,24.559 11.93357,32.559 7.9492,8.003 17.711,11.992 29.3164,11.992 12.0157,0 21.3399,-3.575 27.9141,-10.7 6.5703,-7.148 9.8711,-16.855 9.8711,-29.093 l 0,-10.723 z m -23.5938,15.645 c 0,11.8 -4.7851,17.711 -14.3554,17.711 -4.0703,0 -7.6172,-1.676 -10.5899,-5.059 -2.9961,-3.383 -4.7812,-7.621 -5.4453,-12.652 l 30.3906,0 z m 118.4145,32.863 -27.227,-39.957 27.063,-42.5431 -29.317,0 -11.933,22.2461 c -0.961,1.762 -2.118,4.266 -3.465,7.48 l -0.305,0 c -0.824,-2.253 -1.922,-4.671 -3.328,-7.257 l -11.988,-22.4691 -29.2621,0 27.8871,41.0861 -26.1801,41.414 29.4801,0 11.77,-23.129 c 1.57,-3.051 2.668,-5.637 3.301,-7.727 l 0.328,0 c 0.851,2.532 2.008,5.141 3.469,7.891 l 11.984,22.965 27.723,0 z m 37.211,-72.902 -0.332,0 0,-47.5473 -25.438,0 0,120.4493 25.438,0 0,-12.402 0.332,0 c 6.293,9.597 15.121,14.41 26.507,14.41 10.7,0 18.946,-3.657 24.778,-11 5.828,-7.317 8.746,-17.297 8.746,-29.918 0,-13.75 -3.41,-24.778 -10.207,-33.114 -6.789,-8.328 -15.836,-12.4839 -27.114,-12.4839 -9.925,0 -17.488,3.8519 -22.71,11.6059 z m -0.719,33.824 0,-6.598 c 0,-5.691 1.484,-10.344 4.512,-13.941 2.996,-3.606 6.957,-5.395 11.851,-5.395 5.774,0 10.285,2.231 13.473,6.711 3.191,4.481 4.816,10.836 4.816,19.059 0,14.519 -5.664,21.754 -16.941,21.754 -5.196,0 -9.461,-1.985 -12.758,-5.914 -3.301,-3.961 -4.953,-9.184 -4.953,-15.676" id="path3058" style="fill:#5f4e6a;fill-opacity:1;fill-rule:nonzero;stroke:none"/></g></g></svg>