<?xml version="1.0" encoding="UTF-8" standalone="no"?><svg xmlns:svg="http://www.w3.org/2000/svg" xmlns="http://www.w3.org/2000/svg" version="1.1" width="35.433071" height="35.433071" xml:space="preserve"><defs id="defs3083"><clipPath id="clipPath3095"><path d="M 25.9531,91.25 C 37.5195,89.3125 43.1172,62.7109 32.9766,56.1211 31.2813,55.0234 24.5195,51.5391 24.0313,49.5 23.793,48.5117 27.4648,44 28.0078,43.2109 c 0.5391,-0.789 3.418,-5.8593 4.4336,-5.9961 2.4258,-0.3242 9.207,5.7657 11.1484,7.1602 13.2188,9.5508 31.7579,-5.3594 28.5352,-20.3359 -0.4375,-2.0235 -2.9727,-9.9258 -1.7617,-11.5352 0.8555,-1.1406 7.7734,-1.7344 9.2031,-2.0312 0.7969,-0.168 4.6836,-1.13676 5.4492,-0.67973 2.4883,2.75783 2.7305,12.31253 3.3047,16.12503 1.6992,11.3203 26.3597,15.039 31.6997,6.2968 1.718,-2.8125 3.523,-5.5664 5.359,-8.2968 1.226,-1.8242 2.926,-5.5782 5.223,-4.2774 2.617,1.4883 9.605,5.1797 10.964,7.8633 0.762,1.4961 -5.543,8.8867 -6.363,10.0313 -6.387,8.9062 5.426,32.9765 15.848,30.4843 2.156,-0.5195 4.328,-0.9922 6.504,-1.4375 1.023,-0.2109 8.242,-2.2578 8.91,-0.8789 1.598,3.3242 5.531,14.293 -0.481,15.418 l -0.07,0.0156 c -3.504,0.6563 -7.019,1.2774 -10.543,1.8438 -9.457,1.5195 -15.664,27.8675 -7.808,32.7225 1.785,1.11 3.546,2.25 5.3,3.414 0.899,0.594 7.289,4.09 6.723,5.61 -0.844,2.269 -6.457,12.933 -9.465,11.531 -3.875,-1.805 -7.594,-4.949 -11.012,-7.524 -7.843,-5.906 -30.332,8.782 -28.132,18.239 l 1.207,5.558 c 0.304,1.489 2.117,7.563 1.222,8.758 -1.922,1.91 -12.093,3.551 -14.6951,2.774 -0.8007,-0.559 -1.414,-4.938 -1.5703,-5.805 l -1.2656,-7.356 c -1.8672,-11.621 -28.2461,-15.433 -33.8516,-6.597 -1.7304,2.738 -3.5273,5.425 -5.3515,8.093 -3.4219,5 -10.5586,-2.621 -13.5039,-5.031 -1.5391,-1.254 -0.6211,-2.472 0.375,-3.929 l 4.6914,-6.723 c 6.3281,-8.891 -8.3008,-32.324 -19.9453,-30.309 -2.625,0.457 -5.0743,1.453 -7.6172,1.926 -0.6914,0.129 -2.3047,0.371 -2.918,-0.191 -1.4961,-1.379 -2.2812,-8.5316 -2.707,-10.6488 -0.1719,-0.8477 -0.4766,-2.7539 0.1992,-3.5039 1.4531,-1.6055 8.5117,-2.3711 10.707,-2.7383 z m 35.918,-4.293 c 0,16.629 13.4883,30.117 30.1172,30.117 16.6327,0 30.1167,-13.488 30.1167,-30.117 0,-16.6328 -13.484,-30.1172 -30.1167,-30.1172 -16.6289,0 -30.1172,13.4844 -30.1172,30.1172 z" id="path3097"/></clipPath><linearGradient x1="-7.7539101" y1="0" x2="7.7539101" y2="0" id="linearGradient3099" gradientUnits="userSpaceOnUse" gradientTransform="matrix(0.936366,0.351025,-0.351025,0.936366,9.20181,8.69648)" spreadMethod="pad"><stop id="stop3101" style="stop-color:#495363;stop-opacity:1" offset="0"/><stop id="stop3103" style="stop-color:#3775aa;stop-opacity:1" offset="1"/></linearGradient><clipPath id="clipPath3111"><path d="m 132.277,152.84 c 0.539,-0.785 3.422,-5.86 4.438,-5.992 2.426,-0.328 9.203,5.761 11.144,7.16 13.219,9.551 31.758,-5.36 28.536,-20.34 -0.434,-2.02 -2.973,-9.922 -1.762,-11.531 0.859,-1.145 7.773,-1.735 9.207,-2.035 0.797,-0.168 4.68,-1.133 5.449,-0.676 2.488,2.758 2.731,12.308 3.301,16.125 1.699,11.32 26.359,15.039 31.699,6.297 1.719,-2.813 3.524,-5.567 5.363,-8.297 1.223,-1.824 2.922,-5.582 5.223,-4.278 2.613,1.485 9.605,5.18 10.961,7.86 0.762,1.5 -5.539,8.887 -6.363,10.035 -6.387,8.906 5.429,32.977 15.851,30.48 2.156,-0.515 4.328,-0.992 6.504,-1.433 1.024,-0.211 8.242,-2.262 8.91,-0.879 1.594,3.324 5.528,14.293 -0.484,15.418 l -0.07,0.016 c -3.504,0.652 -7.016,1.277 -10.539,1.843 -9.457,1.52 -15.668,27.864 -7.813,32.723 1.785,1.105 3.551,2.25 5.301,3.41 0.902,0.598 7.289,4.09 6.722,5.613 -0.843,2.27 -6.457,12.934 -9.464,11.532 -3.875,-1.809 -7.594,-4.95 -11.012,-7.524 -7.844,-5.906 -30.328,8.781 -28.133,18.235 0.43,1.847 0.828,3.703 1.207,5.562 0.305,1.488 2.121,7.563 1.227,8.758 -1.922,1.91 -12.094,3.547 -14.7,2.769 -0.796,-0.554 -1.41,-4.933 -1.566,-5.804 -0.449,-2.446 -0.875,-4.895 -1.269,-7.356 -1.864,-11.613 -28.247,-15.433 -33.852,-6.593 -1.727,2.734 -3.527,5.425 -5.352,8.089 -3.418,5 -10.558,-2.621 -13.503,-5.031 -1.54,-1.25 -0.622,-2.469 0.378,-3.93 l 4.688,-6.718 c 6.328,-8.891 -8.297,-32.325 -19.941,-30.309 -2.629,0.457 -5.079,1.453 -7.622,1.926 -0.691,0.129 -2.304,0.371 -2.914,-0.192 -1.496,-1.382 -2.285,-8.535 -2.707,-10.648 -0.172,-0.852 -0.476,-2.754 0.196,-3.508 1.453,-1.601 8.511,-2.367 10.711,-2.734 11.566,-1.938 17.164,-28.543 7.019,-35.133 -1.695,-1.098 -8.453,-4.578 -8.945,-6.617 -0.238,-0.992 3.437,-5.5 3.976,-6.293 z m 63.981,13.629 c -16.629,0 -30.117,13.488 -30.117,30.121 0,16.629 13.488,30.117 30.117,30.117 16.633,0 30.117,-13.488 30.117,-30.117 0,-16.633 -13.484,-30.121 -30.117,-30.121 z" id="path3113"/></clipPath><linearGradient x1="-7.7539101" y1="0" x2="7.7539101" y2="0" id="linearGradient3115" gradientUnits="userSpaceOnUse" gradientTransform="matrix(0.936366,0.351025,-0.351025,0.936366,19.6292,19.6594)" spreadMethod="pad"><stop id="stop3117" style="stop-color:#495363;stop-opacity:1" offset="0"/><stop id="stop3119" style="stop-color:#3775aa;stop-opacity:1" offset="1"/></linearGradient></defs><g transform="matrix(1.25,0,0,-1.25,0,35.433065)" id="g3087"><g transform="matrix(0.1,0,0,0.1,-0.22689571,-0.00673397)" id="g3089"><g id="g3091"><g clip-path="url(#clipPath3095)" id="g3093"><path d="M 25.9531,91.25 C 37.5195,89.3125 43.1172,62.7109 32.9766,56.1211 31.2813,55.0234 24.5195,51.5391 24.0313,49.5 23.793,48.5117 27.4648,44 28.0078,43.2109 c 0.5391,-0.789 3.418,-5.8593 4.4336,-5.9961 2.4258,-0.3242 9.207,5.7657 11.1484,7.1602 13.2188,9.5508 31.7579,-5.3594 28.5352,-20.3359 -0.4375,-2.0235 -2.9727,-9.9258 -1.7617,-11.5352 0.8555,-1.1406 7.7734,-1.7344 9.2031,-2.0312 0.7969,-0.168 4.6836,-1.13676 5.4492,-0.67973 2.4883,2.75783 2.7305,12.31253 3.3047,16.12503 1.6992,11.3203 26.3597,15.039 31.6997,6.2968 1.718,-2.8125 3.523,-5.5664 5.359,-8.2968 1.226,-1.8242 2.926,-5.5782 5.223,-4.2774 2.617,1.4883 9.605,5.1797 10.964,7.8633 0.762,1.4961 -5.543,8.8867 -6.363,10.0313 -6.387,8.9062 5.426,32.9765 15.848,30.4843 2.156,-0.5195 4.328,-0.9922 6.504,-1.4375 1.023,-0.2109 8.242,-2.2578 8.91,-0.8789 1.598,3.3242 5.531,14.293 -0.481,15.418 l -0.07,0.0156 c -3.504,0.6563 -7.019,1.2774 -10.543,1.8438 -9.457,1.5195 -15.664,27.8675 -7.808,32.7225 1.785,1.11 3.546,2.25 5.3,3.414 0.899,0.594 7.289,4.09 6.723,5.61 -0.844,2.269 -6.457,12.933 -9.465,11.531 -3.875,-1.805 -7.594,-4.949 -11.012,-7.524 -7.843,-5.906 -30.332,8.782 -28.132,18.239 l 1.207,5.558 c 0.304,1.489 2.117,7.563 1.222,8.758 -1.922,1.91 -12.093,3.551 -14.6951,2.774 -0.8007,-0.559 -1.414,-4.938 -1.5703,-5.805 l -1.2656,-7.356 c -1.8672,-11.621 -28.2461,-15.433 -33.8516,-6.597 -1.7304,2.738 -3.5273,5.425 -5.3515,8.093 -3.4219,5 -10.5586,-2.621 -13.5039,-5.031 -1.5391,-1.254 -0.6211,-2.472 0.375,-3.929 l 4.6914,-6.723 c 6.3281,-8.891 -8.3008,-32.324 -19.9453,-30.309 -2.625,0.457 -5.0743,1.453 -7.6172,1.926 -0.6914,0.129 -2.3047,0.371 -2.918,-0.191 -1.4961,-1.379 -2.2812,-8.5316 -2.707,-10.6488 -0.1719,-0.8477 -0.4766,-2.7539 0.1992,-3.5039 1.4531,-1.6055 8.5117,-2.3711 10.707,-2.7383 z m 35.918,-4.293 c 0,16.629 13.4883,30.117 30.1172,30.117 16.6327,0 30.1167,-13.488 30.1167,-30.117 0,-16.6328 -13.484,-30.1172 -30.1167,-30.1172 -16.6289,0 -30.1172,13.4844 -30.1172,30.1172" id="path3105" style="fill:url(#linearGradient3099);fill-opacity:1;fill-rule:nonzero;stroke:none"/></g></g><g id="g3107"><g clip-path="url(#clipPath3111)" id="g3109"><path d="m 132.277,152.84 c 0.539,-0.785 3.422,-5.86 4.438,-5.992 2.426,-0.328 9.203,5.761 11.144,7.16 13.219,9.551 31.758,-5.36 28.536,-20.34 -0.434,-2.02 -2.973,-9.922 -1.762,-11.531 0.859,-1.145 7.773,-1.735 9.207,-2.035 0.797,-0.168 4.68,-1.133 5.449,-0.676 2.488,2.758 2.731,12.308 3.301,16.125 1.699,11.32 26.359,15.039 31.699,6.297 1.719,-2.813 3.524,-5.567 5.363,-8.297 1.223,-1.824 2.922,-5.582 5.223,-4.278 2.613,1.485 9.605,5.18 10.961,7.86 0.762,1.5 -5.539,8.887 -6.363,10.035 -6.387,8.906 5.429,32.977 15.851,30.48 2.156,-0.515 4.328,-0.992 6.504,-1.433 1.024,-0.211 8.242,-2.262 8.91,-0.879 1.594,3.324 5.528,14.293 -0.484,15.418 l -0.07,0.016 c -3.504,0.652 -7.016,1.277 -10.539,1.843 -9.457,1.52 -15.668,27.864 -7.813,32.723 1.785,1.105 3.551,2.25 5.301,3.41 0.902,0.598 7.289,4.09 6.722,5.613 -0.843,2.27 -6.457,12.934 -9.464,11.532 -3.875,-1.809 -7.594,-4.95 -11.012,-7.524 -7.844,-5.906 -30.328,8.781 -28.133,18.235 0.43,1.847 0.828,3.703 1.207,5.562 0.305,1.488 2.121,7.563 1.227,8.758 -1.922,1.91 -12.094,3.547 -14.7,2.769 -0.796,-0.554 -1.41,-4.933 -1.566,-5.804 -0.449,-2.446 -0.875,-4.895 -1.269,-7.356 -1.864,-11.613 -28.247,-15.433 -33.852,-6.593 -1.727,2.734 -3.527,5.425 -5.352,8.089 -3.418,5 -10.558,-2.621 -13.503,-5.031 -1.54,-1.25 -0.622,-2.469 0.378,-3.93 l 4.688,-6.718 c 6.328,-8.891 -8.297,-32.325 -19.941,-30.309 -2.629,0.457 -5.079,1.453 -7.622,1.926 -0.691,0.129 -2.304,0.371 -2.914,-0.192 -1.496,-1.382 -2.285,-8.535 -2.707,-10.648 -0.172,-0.852 -0.476,-2.754 0.196,-3.508 1.453,-1.601 8.511,-2.367 10.711,-2.734 11.566,-1.938 17.164,-28.543 7.019,-35.133 -1.695,-1.098 -8.453,-4.578 -8.945,-6.617 -0.238,-0.992 3.437,-5.5 3.976,-6.293 z m 63.981,13.629 c -16.629,0 -30.117,13.488 -30.117,30.121 0,16.629 13.488,30.117 30.117,30.117 16.633,0 30.117,-13.488 30.117,-30.117 0,-16.633 -13.484,-30.121 -30.117,-30.121" id="path3121" style="fill:url(#linearGradient3115);fill-opacity:1;fill-rule:nonzero;stroke:none"/></g></g><path d="m 265.328,0.0664063 -132.922,0 c 2.469,0.3906247 5.032,1.2929737 7.703,2.8085937 7.153,4.05469 14.766,8.25 18.653,15.9102 l 0.375,0.7656 86.707,0 0,93.7772 c 6.703,3.813 13.566,7.945 17.187,15.086 5.547,10.953 0.137,18.926 -5.781,27.07 0.23,0.579 0.52,1.207 0.82,1.825 2.45,-0.5 4.891,-0.95 7.293,-1.223 0.055,-51.981 -0.035,-104.0079 -0.035,-156.0195937 z m -138.558,0 -24.985,0 c 3.492,5.3750037 4.176,11.0780937 4.871,17.2148937 0.899,-1.3829 1.813,-2.7579 2.735,-4.129 4.57,-6.78902 10.457,-11.96871 17.379,-13.0858937 z m -71.1372,0 -33.0078,0 0,20.3671937 c 1.9727,-1.1328 4.3125,-1.9297 7.2617,-2.3242 4.8477,-0.6524 8.7305,0.2148 12.2266,1.8789 l 0,-0.4375 9.3008,0 C 50.2461,13.2188 50.2031,7.26172 54.9375,0.945313 55.1641,0.640625 55.3984,0.347656 55.6328,0.0664063 z M 22.625,127.539 l 0,155.992 141.5,0 1.145,-1.144 c -9.899,3.222 -20.86,-2.977 -30.024,-10.457 -2.844,-2.325 -4.887,-5.008 -6.18,-7.887 l -86.9527,0 0,-94.188 c -3.8672,-2.031 -7.6367,-4.695 -11.1367,-7.558 -9.6524,-7.875 -10.0977,-19.863 -3.3282,-29.766 l 2.0235,-2.898 c -0.5703,-1.067 -1.293,-2.246 -1.9961,-3.238 -1.1406,0.335 -2.293,0.664 -3.461,0.882 -0.5429,0.102 -1.0703,0.188 -1.5898,0.262" id="path3123" style="fill:#5f4e6a;fill-opacity:1;fill-rule:evenodd;stroke:none"/><path d="m 196.258,226.707 c 16.633,0 30.117,-13.488 30.117,-30.117 0,-16.633 -13.484,-30.121 -30.117,-30.121 -16.629,0 -30.117,13.488 -30.117,30.121 0,16.629 13.488,30.117 30.117,30.117 z m 0,-9.719 c 11.265,0 20.398,-9.133 20.398,-20.398 0,-11.266 -9.133,-20.399 -20.398,-20.399 -11.262,0 -20.395,9.133 -20.395,20.399 0,11.265 9.133,20.398 20.395,20.398" id="path3125" style="fill:#5f4e6a;fill-opacity:1;fill-rule:evenodd;stroke:none"/><path d="m 166.293,253.938 c 5.605,-8.84 31.988,-5.02 33.852,6.593 0.394,2.461 0.82,4.91 1.269,7.356 0.156,0.871 0.77,5.25 1.566,5.804 2.606,0.778 12.778,-0.859 14.7,-2.769 0.894,-1.195 -0.922,-7.27 -1.227,-8.758 -0.379,-1.859 -0.777,-3.715 -1.207,-5.562 -2.195,-9.454 20.289,-24.141 28.133,-18.235 3.418,2.574 7.137,5.715 11.012,7.524 3.007,1.402 8.621,-9.262 9.464,-11.532 0.567,-1.523 -5.82,-5.015 -6.722,-5.613 -1.75,-1.16 -3.516,-2.305 -5.301,-3.41 -7.855,-4.859 -1.644,-31.203 7.813,-32.723 3.523,-0.566 7.035,-1.191 10.539,-1.843 l 0.07,-0.016 c 6.012,-1.125 2.078,-12.094 0.484,-15.418 -0.668,-1.383 -7.886,0.668 -8.91,0.879 -2.176,0.441 -4.348,0.918 -6.504,1.433 -10.422,2.497 -22.238,-21.574 -15.851,-30.48 0.824,-1.148 7.125,-8.535 6.363,-10.035 -1.356,-2.68 -8.348,-6.375 -10.961,-7.86 -2.301,-1.304 -4,2.454 -5.223,4.278 -1.839,2.73 -3.644,5.484 -5.363,8.297 -5.34,8.742 -30,5.023 -31.699,-6.297 -0.57,-3.817 -0.813,-13.367 -3.301,-16.125 -0.769,-0.457 -4.652,0.508 -5.449,0.676 -1.434,0.3 -8.348,0.89 -9.207,2.035 -1.211,1.609 1.328,9.511 1.762,11.531 3.222,14.98 -15.317,29.891 -28.536,20.34 -1.941,-1.399 -8.718,-7.488 -11.144,-7.16 -1.016,0.132 -3.899,5.207 -4.438,5.992 -0.539,0.793 -4.214,5.301 -3.976,6.293 0.492,2.039 7.25,5.519 8.945,6.617 10.145,6.59 4.547,33.195 -7.019,35.133 -2.2,0.367 -9.258,1.133 -10.711,2.734 -0.672,0.754 -0.368,2.656 -0.196,3.508 0.422,2.113 1.211,9.266 2.707,10.648 0.61,0.563 2.223,0.321 2.914,0.192 2.543,-0.473 4.993,-1.469 7.622,-1.926 11.644,-2.016 26.269,21.418 19.941,30.309 l -4.688,6.718 c -1,1.461 -1.918,2.68 -0.378,3.93 2.945,2.41 10.085,10.031 13.503,5.031 1.825,-2.664 3.625,-5.355 5.352,-8.089 z m 59.059,22.804 c -4.047,5.395 -18.829,8.063 -25.082,6.199 -6.313,-1.871 -7.348,-7.828 -8.34,-13.332 -0.461,-2.511 -0.895,-5.027 -1.301,-7.55 -1.449,-2.59 -13.481,-4.297 -16.379,-2.664 -1.734,2.722 -3.531,5.41 -5.352,8.078 -8.285,12.097 -19.519,3.558 -27.554,-3.008 -5.75,-4.692 -5.399,-11.117 -1.481,-16.844 l 4.598,-6.601 c 0.504,-3.61 -6.832,-15.489 -10.273,-15.485 -2.52,0.442 -4.938,1.43 -7.473,1.903 -13.832,2.589 -14.906,-8.719 -16.848,-18.426 -2.828,-14.196 8.328,-15.879 18.762,-17.637 3.008,-1.43 5.91,-15.277 3.359,-17.547 -5.027,-3.258 -11.484,-5.906 -13.054,-12.441 -1.418,-5.903 2.433,-9.68 5.39,-13.992 2.953,-4.321 5.074,-9.297 11.114,-10.102 7.214,-0.973 12.785,5.105 18.058,8.895 5.824,4.21 14.895,-3.895 13.477,-10.489 -1.336,-6.199 -4.426,-13.504 -0.055,-19.344 3.809,-5.078 9.59,-4.566 14.949,-5.687 5.153,-1.078 10.488,-2.211 14.571,2.297 5.035,5.578 4.636,14.183 5.683,21.152 1.309,2.238 11.508,3.738 14.156,2.36 1.731,-2.813 3.536,-5.575 5.379,-8.309 4.321,-6.418 9.77,-11.926 17.969,-7.277 5.066,2.875 12.102,6.543 14.809,11.882 3.875,7.649 -3.071,14.344 -7.125,20.004 -1.442,2.692 3.695,13.188 6.648,15.293 1.973,-0.465 3.949,-0.89 5.941,-1.297 6.856,-1.406 15.543,-3.89 19.52,4.387 5.293,11.016 5.633,26.629 -7.387,29.07 l -0.074,0.012 -4.668,0.875 -5.469,0.903 c -2.105,2.359 -4.441,12.261 -3.933,15.734 l 4.566,2.957 c 5.879,3.887 13.66,8.336 10.438,17.004 -3.102,8.332 -11.993,21.844 -22.571,16.91 -4.453,-2.074 -8.257,-5.16 -12.14,-8.109 -3.223,0.293 -11.735,5.847 -13.367,8.679 l 1.082,5.039 c 1.125,5.516 3.304,11.379 -0.543,16.508" id="path3127" style="fill:#5f4e6a;fill-opacity:1;fill-rule:evenodd;stroke:none"/><path d="m 91.9883,117.074 c 16.6327,0 30.1167,-13.488 30.1167,-30.117 0,-16.6328 -13.484,-30.1172 -30.1167,-30.1172 -16.6289,0 -30.1172,13.4844 -30.1172,30.1172 0,16.629 13.4883,30.117 30.1172,30.117 z m 0,-9.719 c 11.2657,0 20.3987,-9.1362 20.3987,-20.398 0,-11.2656 -9.133,-20.3984 -20.3987,-20.3984 -11.2617,0 -20.3945,9.1328 -20.3945,20.3984 0,11.2618 9.1328,20.398 20.3945,20.398" id="path3129" style="fill:#5f4e6a;fill-opacity:1;fill-rule:evenodd;stroke:none"/><path d="m 62.0234,144.305 c 5.6055,-8.836 31.9844,-5.024 33.8516,6.597 0.3945,2.453 0.8203,4.907 1.2656,7.356 0.1563,0.867 0.7696,5.246 1.5703,5.805 2.6021,0.777 12.7731,-0.864 14.6951,-2.774 0.895,-1.195 -0.918,-7.269 -1.222,-8.758 -0.383,-1.859 -0.778,-3.711 -1.207,-5.558 -2.2,-9.457 20.289,-24.145 28.132,-18.239 3.418,2.575 7.137,5.719 11.012,7.524 3.008,1.402 8.621,-9.262 9.465,-11.531 0.566,-1.52 -5.824,-5.016 -6.723,-5.61 -1.754,-1.164 -3.515,-2.304 -5.3,-3.414 -7.856,-4.855 -1.649,-31.203 7.808,-32.7225 3.524,-0.5664 7.039,-1.1875 10.543,-1.8438 l 0.07,-0.0156 c 6.012,-1.125 2.079,-12.0938 0.481,-15.418 -0.668,-1.3789 -7.887,0.668 -8.91,0.8789 -2.176,0.4453 -4.348,0.918 -6.504,1.4375 -10.422,2.4922 -22.235,-21.5781 -15.848,-30.4843 0.82,-1.1446 7.125,-8.5352 6.363,-10.0313 -1.359,-2.6836 -8.347,-6.375 -10.964,-7.8633 -2.297,-1.3008 -3.997,2.4532 -5.223,4.2774 -1.836,2.7304 -3.641,5.4843 -5.359,8.2968 C 114.68,40.957 90.0195,37.2383 88.3203,25.918 87.7461,22.1055 87.5039,12.5508 85.0156,9.79297 84.25,9.33594 80.3633,10.3047 79.5664,10.4727 c -1.4297,0.2968 -8.3476,0.8906 -9.2031,2.0312 -1.211,1.6094 1.3242,9.5117 1.7617,11.5352 C 75.3477,39.0156 56.8086,53.9258 43.5898,44.375 41.6484,42.9805 34.8672,36.8906 32.4414,37.2148 31.4258,37.3516 28.5469,42.4219 28.0078,43.2109 27.4648,44 23.793,48.5117 24.0313,49.5 c 0.4882,2.0391 7.25,5.5234 8.9453,6.6211 10.1406,6.5898 4.5429,33.1914 -7.0235,35.1289 -2.1953,0.3672 -9.2539,1.1328 -10.707,2.7383 -0.6758,0.75 -0.3711,2.6562 -0.1992,3.5039 0.4258,2.1172 1.2109,9.2698 2.707,10.6488 0.6133,0.562 2.2266,0.32 2.918,0.191 2.5429,-0.473 4.9922,-1.469 7.6172,-1.926 11.6445,-2.015 26.2734,21.418 19.9453,30.309 l -4.6914,6.723 c -0.9961,1.457 -1.9141,2.675 -0.375,3.929 2.9453,2.41 10.082,10.031 13.5039,5.031 1.8242,-2.668 3.6211,-5.355 5.3515,-8.093 z m 59.0586,22.804 c -4.047,5.395 -18.832,8.063 -25.0859,6.2 -6.3086,-1.868 -7.3438,-7.825 -8.3398,-13.332 -0.4571,-2.508 -0.8946,-5.028 -1.2969,-7.551 -1.4492,-2.586 -13.4844,-4.297 -16.3789,-2.664 -1.7344,2.726 -3.5313,5.41 -5.3555,8.078 -8.2812,12.098 -19.5156,3.558 -27.5508,-3.004 -5.7539,-4.695 -5.3984,-11.121 -1.4804,-16.848 l 4.5976,-6.597 c 0.5039,-3.61 -6.832,-15.489 -10.2734,-15.485 -2.5196,0.438 -4.9414,1.426 -7.4766,1.899 C 8.61328,120.398 7.53906,109.09 5.59375,99.3789 2.76563,85.1875 13.9258,83.5039 24.3594,81.7422 27.3672,80.3125 30.2695,66.4648 27.7188,64.1953 22.6914,60.9414 16.2305,58.293 14.6602,51.7539 c -1.4141,-5.8984 2.4375,-9.6758 5.3945,-13.9883 2.9531,-4.3242 5.0742,-9.2968 11.1094,-10.1015 7.2187,-0.9727 12.789,5.1015 18.0586,8.8945 5.8281,4.207 14.8984,-3.8984 13.4765,-10.4922 -1.332,-6.1992 -4.4258,-13.5 -0.0508,-19.34374 3.8086,-5.07422 9.586,-4.56641 14.9493,-5.6875 5.1523,-1.0742225 10.4882,-2.21094 14.5664,2.30078 5.0351,5.57422 4.6367,14.17966 5.6836,21.14846 1.3125,2.2383 11.5113,3.7422 14.1603,2.3633 1.726,-2.8125 3.535,-5.5743 5.379,-8.3125 4.32,-6.418 9.769,-11.92582 17.968,-7.2774 5.067,2.875 12.102,6.5391 14.809,11.8828 3.875,7.6485 -3.07,14.3438 -7.125,20.0078 -1.445,2.6875 3.695,13.1836 6.649,15.2891 1.972,-0.4648 3.949,-0.8906 5.937,-1.2969 6.859,-1.4062 15.543,-3.8867 19.523,4.3867 5.293,11.0157 5.633,26.629 -7.386,29.0665 l -0.074,0.0156 -4.668,0.875 -5.469,0.9062 c -2.11,2.3555 -4.442,12.2574 -3.934,15.7344 l 4.567,2.957 c 5.879,3.883 13.66,8.332 10.433,17.004 -3.097,8.328 -11.988,21.844 -22.566,16.906 -4.453,-2.074 -8.262,-5.16 -12.141,-8.109 -3.222,0.297 -11.738,5.847 -13.371,8.68 l 1.086,5.039 c 1.125,5.515 3.305,11.378 -0.543,16.507" id="path3131" style="fill:#5f4e6a;fill-opacity:1;fill-rule:evenodd;stroke:none"/></g></g></svg>