<?xml version="1.0" encoding="UTF-8" standalone="no"?><svg xmlns:svg="http://www.w3.org/2000/svg" xmlns="http://www.w3.org/2000/svg" version="1.1" width="35.433071" height="35.433071" xml:space="preserve"><clipPath id="clipPath3022"><path d="m 166.77,85.875 c -3.551,0.6719 -7.204,1.3203 -10.754,1.8867 -5.203,0.8477 -9.723,21.5703 -6.063,23.8123 1.805,1.192 3.641,2.379 5.469,3.547 3.668,2.406 10.641,5.785 8.578,11.27 -2.062,5.535 -8.934,17.574 -16.035,14.242 -4.207,-1.945 -8.094,-5.227 -11.867,-8.07 -4.168,-3.114 -21.707,8.363 -20.582,13.32 0.496,1.902 0.863,3.793 1.25,5.683 0.797,3.563 2.933,9.231 0.316,12.664 -2.73,3.696 -15.629,5.688 -19.8359,4.5 -3.9023,-1.175 -4.3164,-6.281 -4.9766,-9.593 -0.4336,-2.481 -0.8828,-4.969 -1.2382,-7.446 -1.2032,-7.148 -21.8985,-9.796 -25.043,-4.769 -1.7852,2.754 -3.6055,5.484 -5.4922,8.207 -5.9258,8.715 -14.4883,0.867 -20.457,-4.027 -3.7735,-3.079 -3.0977,-6.735 -0.5938,-10.434 1.5625,-2.23 3.1836,-4.496 4.7305,-6.734 3.582,-5.079 -7.5352,-24.129 -15.1563,-22.711 -2.6015,0.351 -5.4531,1.418 -7.582,1.859 C 11.4766,114.961 11.6211,105.758 10.207,98.4297 8.17969,88.1328 16.7461,87.918 25.043,86.4805 32.0781,85.3047 36.7031,64.3359 30.1836,60.1992 26.7773,57.9453 20.2422,55.0938 19.1953,50.5938 c -0.8398,-3.6485 2.8438,-7.336 4.7422,-10.1016 1.8984,-2.793 3.9453,-7.5195 7.8008,-8.0508 4.9648,-0.6719 10.7969,5.3516 14.5664,7.9883 9.4414,6.8516 23.3125,-4.5156 20.9336,-15.418 C 66.4258,20.8984 63.4648,13.5664 66.4258,9.64844 68.8438,6.32813 74.8281,6.51563 78.4961,5.75 c 3.1289,-0.58984 7.4375,-1.96094 9.9414,0.84375 3.832,4.17185 3.6758,13.21485 4.5391,18.57035 1.0156,6.8867 19.9104,9.3125 22.8044,4.5351 1.782,-2.8594 3.641,-5.707 5.477,-8.4375 2.918,-4.3476 6.082,-8.9297 11.566,-5.7929 3.922,2.1796 10.848,5.7929 12.875,9.8125 2.496,4.9726 -4.133,11.4609 -6.703,15.039 -4.293,6.0391 5.742,24.211 10.859,22.9805 2.137,-0.5039 4.348,-0.9453 6.641,-1.4414 4.27,-0.8516 11.637,-3.5391 14.211,1.7773 3.41,7.1406 6.223,20.3477 -3.937,22.2383 l 0,0 z M 86.6367,64.5313 C 73.5703,66.9805 63.7578,79.6094 66.2617,93.0273 68.793,106.5 82.5,114.68 95.6367,112.258 108.801,109.805 118.605,97.1445 116.082,83.7461 113.539,70.25 99.793,62.0859 86.6367,64.5313 z" id="path3024"/></clipPath><linearGradient x1="-8.1202097" y1="0" x2="8.1202097" y2="0" id="linearGradient3026" gradientUnits="userSpaceOnUse" gradientTransform="matrix(0.980819,0.194919,-0.194919,0.980819,9.21289,8.70977)" spreadMethod="pad"><stop id="stop3028" style="stop-color:#495363;stop-opacity:1" offset="0"/><stop id="stop3030" style="stop-color:#3775aa;stop-opacity:1" offset="1"/></linearGradient><clipPath id="clipPath3038"><path d="m 271.141,195.492 c -3.567,0.664 -7.141,1.305 -10.735,1.875 -5.25,0.848 -9.679,21.617 -6.035,23.875 1.828,1.133 3.629,2.297 5.422,3.485 3.703,2.449 10.641,5.765 8.582,11.312 -2.051,5.508 -8.93,17.527 -16.02,14.219 -4.203,-1.961 -8.117,-5.215 -11.871,-8.043 -4.148,-3.121 -21.683,8.394 -20.543,13.293 0.438,1.887 0.844,3.793 1.231,5.691 0.734,3.602 2.851,9.285 0.324,12.653 -2.754,3.668 -15.66,5.722 -19.851,4.468 -3.926,-1.164 -4.372,-6.246 -4.973,-9.57 -0.453,-2.48 -0.883,-4.957 -1.281,-7.453 -1.157,-7.172 -21.868,-9.758 -25.028,-4.781 -1.761,2.785 -3.59,5.519 -5.445,8.238 -5.961,8.711 -14.52,0.883 -20.527,-4.02 -3.703,-3.023 -3.075,-6.703 -0.551,-10.39 1.562,-2.278 3.14,-4.547 4.738,-6.789 3.594,-5.051 -7.539,-24.094 -15.191,-22.766 -2.563,0.445 -5.418,1.512 -7.559,1.91 -9.98,1.871 -9.781,-7.344 -11.234,-14.633 -2.063,-10.328 6.57,-10.546 14.836,-11.937 7.054,-1.184 11.672,-22.125 5.195,-26.332 -3.496,-2.262 -9.937,-5.086 -11.008,-9.539 -0.894,-3.719 2.789,-7.375 4.684,-10.137 1.89,-2.766 3.969,-7.543 7.773,-8.047 4.977,-0.672 10.867,5.336 14.606,8.028 9.437,6.82 23.351,-4.516 21.004,-15.414 -0.895,-4.161 -3.84,-11.528 -0.907,-15.442 2.457,-3.273 8.465,-3.105 12.075,-3.859 3.136,-0.657 7.488,-1.981 10.011,0.808 3.801,4.211 3.688,13.274 4.492,18.637 1.032,6.856 19.911,9.27 22.825,4.5 1.758,-2.871 3.597,-5.68 5.472,-8.477 2.887,-4.289 6.059,-8.914 11.598,-5.773 3.844,2.184 10.82,5.797 12.887,9.871 2.476,4.895 -4.188,11.442 -6.746,15.024 -4.305,6.003 5.773,24.191 10.804,22.988 2.211,-0.531 4.438,-1.016 6.664,-1.473 4.286,-0.879 11.676,-3.523 14.219,1.754 3.453,7.184 6.242,20.34 -3.937,22.246 l 0,0 z m -80.047,-21.344 c -13.125,2.457 -22.981,15.082 -20.469,28.528 2.52,13.445 16.277,21.648 29.406,19.191 13.121,-2.453 22.977,-15.086 20.461,-28.531 -2.519,-13.441 -16.277,-21.648 -29.398,-19.188 z" id="path3040"/></clipPath><linearGradient x1="-8.1943998" y1="0" x2="8.1943998" y2="0" id="linearGradient3042" gradientUnits="userSpaceOnUse" gradientTransform="matrix(0.984747,0.173992,-0.173992,0.984747,19.6516,19.6725)" spreadMethod="pad"><stop id="stop3044" style="stop-color:#495363;stop-opacity:1" offset="0"/><stop id="stop3046" style="stop-color:#3775aa;stop-opacity:1" offset="1"/></linearGradient></defs><g transform="matrix(1.25,0,0,-1.25,0,35.433064)" id="g3012"><g transform="matrix(0.1,0,0,0.1,-0.22689571,-0.00673477)" id="g3014"><path d="m 265.328,0.0664063 -132.922,0 c 2.469,0.3906247 5.032,1.2929737 7.703,2.8085937 7.153,4.05469 14.766,8.25 18.653,15.9102 l 0.375,0.7656 86.707,0 0,93.7772 c 6.703,3.813 13.566,7.945 17.187,15.086 5.547,10.953 0.137,18.926 -5.781,27.07 0.23,0.579 0.52,1.207 0.82,1.825 2.45,-0.5 4.891,-0.95 7.293,-1.223 0.055,-51.981 -0.035,-104.0079 -0.035,-156.0195937 z m -138.558,0 -24.985,0 c 3.492,5.3750037 4.176,11.0780937 4.871,17.2148937 0.899,-1.3829 1.813,-2.7579 2.735,-4.129 4.57,-6.78902 10.457,-11.96871 17.379,-13.0858937 z m -71.1372,0 -33.0078,0 0,20.3671937 c 1.9727,-1.1328 4.3125,-1.9297 7.2617,-2.3242 4.8477,-0.6524 8.7305,0.2148 12.2266,1.8789 l 0,-0.4375 9.3008,0 C 50.2461,13.2188 50.2031,7.26172 54.9375,0.945313 55.1641,0.640625 55.3984,0.347656 55.6328,0.0664063 z M 22.625,127.539 l 0,155.992 141.5,0 1.145,-1.144 c -9.899,3.222 -20.86,-2.977 -30.024,-10.457 -2.844,-2.325 -4.887,-5.008 -6.18,-7.887 l -86.9527,0 0,-94.188 c -3.8672,-2.031 -7.6367,-4.695 -11.1367,-7.558 -9.6524,-7.875 -10.0977,-19.863 -3.3282,-29.766 l 2.0235,-2.898 c -0.5703,-1.067 -1.293,-2.246 -1.9961,-3.238 -1.1406,0.335 -2.293,0.664 -3.461,0.882 -0.5429,0.102 -1.0703,0.188 -1.5898,0.262" id="path3016" style="fill:#5f4e6a;fill-opacity:1;fill-rule:evenodd;stroke:none"/><g id="g3018"><g clip-path="url(#clipPath3022)" id="g3020"><path d="m 166.77,85.875 c -3.551,0.6719 -7.204,1.3203 -10.754,1.8867 -5.203,0.8477 -9.723,21.5703 -6.063,23.8123 1.805,1.192 3.641,2.379 5.469,3.547 3.668,2.406 10.641,5.785 8.578,11.27 -2.062,5.535 -8.934,17.574 -16.035,14.242 -4.207,-1.945 -8.094,-5.227 -11.867,-8.07 -4.168,-3.114 -21.707,8.363 -20.582,13.32 0.496,1.902 0.863,3.793 1.25,5.683 0.797,3.563 2.933,9.231 0.316,12.664 -2.73,3.696 -15.629,5.688 -19.8359,4.5 -3.9023,-1.175 -4.3164,-6.281 -4.9766,-9.593 -0.4336,-2.481 -0.8828,-4.969 -1.2382,-7.446 -1.2032,-7.148 -21.8985,-9.796 -25.043,-4.769 -1.7852,2.754 -3.6055,5.484 -5.4922,8.207 -5.9258,8.715 -14.4883,0.867 -20.457,-4.027 -3.7735,-3.079 -3.0977,-6.735 -0.5938,-10.434 1.5625,-2.23 3.1836,-4.496 4.7305,-6.734 3.582,-5.079 -7.5352,-24.129 -15.1563,-22.711 -2.6015,0.351 -5.4531,1.418 -7.582,1.859 C 11.4766,114.961 11.6211,105.758 10.207,98.4297 8.17969,88.1328 16.7461,87.918 25.043,86.4805 32.0781,85.3047 36.7031,64.3359 30.1836,60.1992 26.7773,57.9453 20.2422,55.0938 19.1953,50.5938 c -0.8398,-3.6485 2.8438,-7.336 4.7422,-10.1016 1.8984,-2.793 3.9453,-7.5195 7.8008,-8.0508 4.9648,-0.6719 10.7969,5.3516 14.5664,7.9883 9.4414,6.8516 23.3125,-4.5156 20.9336,-15.418 C 66.4258,20.8984 63.4648,13.5664 66.4258,9.64844 68.8438,6.32813 74.8281,6.51563 78.4961,5.75 c 3.1289,-0.58984 7.4375,-1.96094 9.9414,0.84375 3.832,4.17185 3.6758,13.21485 4.5391,18.57035 1.0156,6.8867 19.9104,9.3125 22.8044,4.5351 1.782,-2.8594 3.641,-5.707 5.477,-8.4375 2.918,-4.3476 6.082,-8.9297 11.566,-5.7929 3.922,2.1796 10.848,5.7929 12.875,9.8125 2.496,4.9726 -4.133,11.4609 -6.703,15.039 -4.293,6.0391 5.742,24.211 10.859,22.9805 2.137,-0.5039 4.348,-0.9453 6.641,-1.4414 4.27,-0.8516 11.637,-3.5391 14.211,1.7773 3.41,7.1406 6.223,20.3477 -3.937,22.2383 l 0,0 z M 86.6367,64.5313 C 73.5703,66.9805 63.7578,79.6094 66.2617,93.0273 68.793,106.5 82.5,114.68 95.6367,112.258 108.801,109.805 118.605,97.1445 116.082,83.7461 113.539,70.25 99.793,62.0859 86.6367,64.5313" id="path3032" style="fill:url(#linearGradient3026);fill-opacity:1;fill-rule:nonzero;stroke:none"/></g></g><g id="g3034"><g clip-path="url(#clipPath3038)" id="g3036"><path d="m 271.141,195.492 c -3.567,0.664 -7.141,1.305 -10.735,1.875 -5.25,0.848 -9.679,21.617 -6.035,23.875 1.828,1.133 3.629,2.297 5.422,3.485 3.703,2.449 10.641,5.765 8.582,11.312 -2.051,5.508 -8.93,17.527 -16.02,14.219 -4.203,-1.961 -8.117,-5.215 -11.871,-8.043 -4.148,-3.121 -21.683,8.394 -20.543,13.293 0.438,1.887 0.844,3.793 1.231,5.691 0.734,3.602 2.851,9.285 0.324,12.653 -2.754,3.668 -15.66,5.722 -19.851,4.468 -3.926,-1.164 -4.372,-6.246 -4.973,-9.57 -0.453,-2.48 -0.883,-4.957 -1.281,-7.453 -1.157,-7.172 -21.868,-9.758 -25.028,-4.781 -1.761,2.785 -3.59,5.519 -5.445,8.238 -5.961,8.711 -14.52,0.883 -20.527,-4.02 -3.703,-3.023 -3.075,-6.703 -0.551,-10.39 1.562,-2.278 3.14,-4.547 4.738,-6.789 3.594,-5.051 -7.539,-24.094 -15.191,-22.766 -2.563,0.445 -5.418,1.512 -7.559,1.91 -9.98,1.871 -9.781,-7.344 -11.234,-14.633 -2.063,-10.328 6.57,-10.546 14.836,-11.937 7.054,-1.184 11.672,-22.125 5.195,-26.332 -3.496,-2.262 -9.937,-5.086 -11.008,-9.539 -0.894,-3.719 2.789,-7.375 4.684,-10.137 1.89,-2.766 3.969,-7.543 7.773,-8.047 4.977,-0.672 10.867,5.336 14.606,8.028 9.437,6.82 23.351,-4.516 21.004,-15.414 -0.895,-4.161 -3.84,-11.528 -0.907,-15.442 2.457,-3.273 8.465,-3.105 12.075,-3.859 3.136,-0.657 7.488,-1.981 10.011,0.808 3.801,4.211 3.688,13.274 4.492,18.637 1.032,6.856 19.911,9.27 22.825,4.5 1.758,-2.871 3.597,-5.68 5.472,-8.477 2.887,-4.289 6.059,-8.914 11.598,-5.773 3.844,2.184 10.82,5.797 12.887,9.871 2.476,4.895 -4.188,11.442 -6.746,15.024 -4.305,6.003 5.773,24.191 10.804,22.988 2.211,-0.531 4.438,-1.016 6.664,-1.473 4.286,-0.879 11.676,-3.523 14.219,1.754 3.453,7.184 6.242,20.34 -3.937,22.246 l 0,0 z m -80.047,-21.344 c -13.125,2.457 -22.981,15.082 -20.469,28.528 2.52,13.445 16.277,21.648 29.406,19.191 13.121,-2.453 22.977,-15.086 20.461,-28.531 -2.519,-13.441 -16.277,-21.648 -29.398,-19.188" id="path3048" style="fill:url(#linearGradient3042);fill-opacity:1;fill-rule:nonzero;stroke:none"/></g></g><path d="m 196.258,226.707 c 16.633,0 30.117,-13.488 30.117,-30.117 0,-16.633 -13.484,-30.121 -30.117,-30.121 -16.629,0 -30.117,13.488 -30.117,30.121 0,16.629 13.488,30.117 30.117,30.117 z m 0,-9.719 c 11.265,0 20.398,-9.133 20.398,-20.398 0,-11.266 -9.133,-20.399 -20.398,-20.399 -11.262,0 -20.395,9.133 -20.395,20.399 0,11.265 9.133,20.398 20.395,20.398" id="path3050" style="fill:#5f4e6a;fill-opacity:1;fill-rule:evenodd;stroke:none"/><path d="m 166.293,253.938 c 5.605,-8.84 31.988,-5.02 33.852,6.593 0.394,2.461 0.82,4.91 1.269,7.356 0.156,0.871 0.77,5.25 1.566,5.804 2.606,0.778 12.778,-0.859 14.7,-2.769 0.894,-1.195 -0.922,-7.27 -1.227,-8.758 -0.379,-1.859 -0.777,-3.715 -1.207,-5.562 -2.195,-9.454 20.289,-24.141 28.133,-18.235 3.418,2.574 7.137,5.715 11.012,7.524 3.007,1.402 8.621,-9.262 9.464,-11.532 0.567,-1.523 -5.82,-5.015 -6.722,-5.613 -1.75,-1.16 -3.516,-2.305 -5.301,-3.41 -7.855,-4.859 -1.644,-31.203 7.813,-32.723 3.523,-0.566 7.035,-1.191 10.539,-1.843 l 0.07,-0.016 c 6.012,-1.125 2.078,-12.094 0.484,-15.418 -0.668,-1.383 -7.886,0.668 -8.91,0.879 -2.176,0.441 -4.348,0.918 -6.504,1.433 -10.422,2.497 -22.238,-21.574 -15.851,-30.48 0.824,-1.148 7.125,-8.535 6.363,-10.035 -1.356,-2.68 -8.348,-6.375 -10.961,-7.86 -2.301,-1.304 -4,2.454 -5.223,4.278 -1.839,2.73 -3.644,5.484 -5.363,8.297 -5.34,8.742 -30,5.023 -31.699,-6.297 -0.57,-3.817 -0.813,-13.367 -3.301,-16.125 -0.769,-0.457 -4.652,0.508 -5.449,0.676 -1.434,0.3 -8.348,0.89 -9.207,2.035 -1.211,1.609 1.328,9.511 1.762,11.531 3.222,14.98 -15.317,29.891 -28.536,20.34 -1.941,-1.399 -8.718,-7.488 -11.144,-7.16 -1.016,0.132 -3.899,5.207 -4.438,5.992 -0.539,0.793 -4.214,5.301 -3.976,6.293 0.492,2.039 7.25,5.519 8.945,6.617 10.145,6.59 4.547,33.195 -7.019,35.133 -2.2,0.367 -9.258,1.133 -10.711,2.734 -0.672,0.754 -0.368,2.656 -0.196,3.508 0.422,2.113 1.211,9.266 2.707,10.648 0.61,0.563 2.223,0.321 2.914,0.192 2.543,-0.473 4.993,-1.469 7.622,-1.926 11.644,-2.016 26.269,21.418 19.941,30.309 l -4.688,6.718 c -1,1.461 -1.918,2.68 -0.378,3.93 2.945,2.41 10.085,10.031 13.503,5.031 1.825,-2.664 3.625,-5.355 5.352,-8.089 z m 59.059,22.804 c -4.047,5.395 -18.829,8.063 -25.082,6.199 -6.313,-1.871 -7.348,-7.828 -8.34,-13.332 -0.461,-2.511 -0.895,-5.027 -1.301,-7.55 -1.449,-2.59 -13.481,-4.297 -16.379,-2.664 -1.734,2.722 -3.531,5.41 -5.352,8.078 -8.285,12.097 -19.519,3.558 -27.554,-3.008 -5.75,-4.692 -5.399,-11.117 -1.481,-16.844 l 4.598,-6.601 c 0.504,-3.61 -6.832,-15.489 -10.273,-15.485 -2.52,0.442 -4.938,1.43 -7.473,1.903 -13.832,2.589 -14.906,-8.719 -16.848,-18.426 -2.828,-14.196 8.328,-15.879 18.762,-17.637 3.008,-1.43 5.91,-15.277 3.359,-17.547 -5.027,-3.258 -11.484,-5.906 -13.054,-12.441 -1.418,-5.903 2.433,-9.68 5.39,-13.992 2.953,-4.321 5.074,-9.297 11.114,-10.102 7.214,-0.973 12.785,5.105 18.058,8.895 5.824,4.21 14.895,-3.895 13.477,-10.489 -1.336,-6.199 -4.426,-13.504 -0.055,-19.344 3.809,-5.078 9.59,-4.566 14.949,-5.687 5.153,-1.078 10.488,-2.211 14.571,2.297 5.035,5.578 4.636,14.183 5.683,21.152 1.309,2.238 11.508,3.738 14.156,2.36 1.731,-2.813 3.536,-5.575 5.379,-8.309 4.321,-6.418 9.77,-11.926 17.969,-7.277 5.066,2.875 12.102,6.543 14.809,11.882 3.875,7.649 -3.071,14.344 -7.125,20.004 -1.442,2.692 3.695,13.188 6.648,15.293 1.973,-0.465 3.949,-0.89 5.941,-1.297 6.856,-1.406 15.543,-3.89 19.52,4.387 5.293,11.016 5.633,26.629 -7.387,29.07 l -0.074,0.012 -4.668,0.875 -5.469,0.903 c -2.105,2.359 -4.441,12.261 -3.933,15.734 l 4.566,2.957 c 5.879,3.887 13.66,8.336 10.438,17.004 -3.102,8.332 -11.993,21.844 -22.571,16.91 -4.453,-2.074 -8.257,-5.16 -12.14,-8.109 -3.223,0.293 -11.735,5.847 -13.367,8.679 l 1.082,5.039 c 1.125,5.516 3.304,11.379 -0.543,16.508" id="path3052" style="fill:#5f4e6a;fill-opacity:1;fill-rule:evenodd;stroke:none"/><path d="m 91.9883,117.074 c 16.6327,0 30.1167,-13.488 30.1167,-30.117 0,-16.6328 -13.484,-30.1172 -30.1167,-30.1172 -16.6289,0 -30.1172,13.4844 -30.1172,30.1172 0,16.629 13.4883,30.117 30.1172,30.117 z m 0,-9.719 c 11.2657,0 20.3987,-9.1362 20.3987,-20.398 0,-11.2656 -9.133,-20.3984 -20.3987,-20.3984 -11.2617,0 -20.3945,9.1328 -20.3945,20.3984 0,11.2618 9.1328,20.398 20.3945,20.398" id="path3054" style="fill:#5f4e6a;fill-opacity:1;fill-rule:evenodd;stroke:none"/><path d="m 62.0234,144.305 c 5.6055,-8.836 31.9844,-5.024 33.8516,6.597 0.3945,2.453 0.8203,4.907 1.2656,7.356 0.1563,0.867 0.7696,5.246 1.5703,5.805 2.6021,0.777 12.7731,-0.864 14.6951,-2.774 0.895,-1.195 -0.918,-7.269 -1.222,-8.758 -0.383,-1.859 -0.778,-3.711 -1.207,-5.558 -2.2,-9.457 20.289,-24.145 28.132,-18.239 3.418,2.575 7.137,5.719 11.012,7.524 3.008,1.402 8.621,-9.262 9.465,-11.531 0.566,-1.52 -5.824,-5.016 -6.723,-5.61 -1.754,-1.164 -3.515,-2.304 -5.3,-3.414 -7.856,-4.855 -1.649,-31.203 7.808,-32.7225 3.524,-0.5664 7.039,-1.1875 10.543,-1.8438 l 0.07,-0.0156 c 6.012,-1.125 2.079,-12.0938 0.481,-15.418 -0.668,-1.3789 -7.887,0.668 -8.91,0.8789 -2.176,0.4453 -4.348,0.918 -6.504,1.4375 -10.422,2.4922 -22.235,-21.5781 -15.848,-30.4843 0.82,-1.1446 7.125,-8.5352 6.363,-10.0313 -1.359,-2.6836 -8.347,-6.375 -10.964,-7.8633 -2.297,-1.3008 -3.997,2.4532 -5.223,4.2774 -1.836,2.7304 -3.641,5.4843 -5.359,8.2968 C 114.68,40.957 90.0195,37.2383 88.3203,25.918 87.7461,22.1055 87.5039,12.5508 85.0156,9.79297 84.25,9.33594 80.3633,10.3047 79.5664,10.4727 c -1.4297,0.2968 -8.3476,0.8906 -9.2031,2.0312 -1.211,1.6094 1.3242,9.5117 1.7617,11.5352 C 75.3477,39.0156 56.8086,53.9258 43.5898,44.375 41.6484,42.9805 34.8672,36.8906 32.4414,37.2148 31.4258,37.3516 28.5469,42.4219 28.0078,43.2109 27.4648,44 23.793,48.5117 24.0313,49.5 c 0.4882,2.0391 7.25,5.5234 8.9453,6.6211 10.1406,6.5898 4.5429,33.1914 -7.0235,35.1289 -2.1953,0.3672 -9.2539,1.1328 -10.707,2.7383 -0.6758,0.75 -0.3711,2.6562 -0.1992,3.5039 0.4258,2.1172 1.2109,9.2698 2.707,10.6488 0.6133,0.562 2.2266,0.32 2.918,0.191 2.5429,-0.473 4.9922,-1.469 7.6172,-1.926 11.6445,-2.015 26.2734,21.418 19.9453,30.309 l -4.6914,6.723 c -0.9961,1.457 -1.9141,2.675 -0.375,3.929 2.9453,2.41 10.082,10.031 13.5039,5.031 1.8242,-2.668 3.6211,-5.355 5.3515,-8.093 z m 59.0586,22.804 c -4.047,5.395 -18.832,8.063 -25.0859,6.2 -6.3086,-1.868 -7.3438,-7.825 -8.3398,-13.332 -0.4571,-2.508 -0.8946,-5.028 -1.2969,-7.551 -1.4492,-2.586 -13.4844,-4.297 -16.3789,-2.664 -1.7344,2.726 -3.5313,5.41 -5.3555,8.078 -8.2812,12.098 -19.5156,3.558 -27.5508,-3.004 -5.7539,-4.695 -5.3984,-11.121 -1.4804,-16.848 l 4.5976,-6.597 c 0.5039,-3.61 -6.832,-15.489 -10.2734,-15.485 -2.5196,0.438 -4.9414,1.426 -7.4766,1.899 C 8.61328,120.398 7.53906,109.09 5.59375,99.3789 2.76563,85.1875 13.9258,83.5039 24.3594,81.7422 27.3672,80.3125 30.2695,66.4648 27.7188,64.1953 22.6914,60.9414 16.2305,58.293 14.6602,51.7539 c -1.4141,-5.8984 2.4375,-9.6758 5.3945,-13.9883 2.9531,-4.3242 5.0742,-9.2968 11.1094,-10.1015 7.2187,-0.9727 12.789,5.1015 18.0586,8.8945 5.8281,4.207 14.8984,-3.8984 13.4765,-10.4922 -1.332,-6.1992 -4.4258,-13.5 -0.0508,-19.34374 3.8086,-5.07422 9.586,-4.56641 14.9493,-5.6875 5.1523,-1.0742225 10.4882,-2.21094 14.5664,2.30078 5.0351,5.57422 4.6367,14.17966 5.6836,21.14846 1.3125,2.2383 11.5113,3.7422 14.1603,2.3633 1.726,-2.8125 3.535,-5.5743 5.379,-8.3125 4.32,-6.418 9.769,-11.92582 17.968,-7.2774 5.067,2.875 12.102,6.5391 14.809,11.8828 3.875,7.6485 -3.07,14.3438 -7.125,20.0078 -1.445,2.6875 3.695,13.1836 6.649,15.2891 1.972,-0.4648 3.949,-0.8906 5.937,-1.2969 6.859,-1.4062 15.543,-3.8867 19.523,4.3867 5.293,11.0157 5.633,26.629 -7.386,29.0665 l -0.074,0.0156 -4.668,0.875 -5.469,0.9062 c -2.11,2.3555 -4.442,12.2574 -3.934,15.7344 l 4.567,2.957 c 5.879,3.883 13.66,8.332 10.433,17.004 -3.097,8.328 -11.988,21.844 -22.566,16.906 -4.453,-2.074 -8.262,-5.16 -12.141,-8.109 -3.222,0.297 -11.738,5.847 -13.371,8.68 l 1.086,5.039 c 1.125,5.515 3.305,11.378 -0.543,16.507" id="path3056" style="fill:#5f4e6a;fill-opacity:1;fill-rule:evenodd;stroke:none"/></g></g></svg>