<?xml version="1.0" encoding="UTF-8" standalone="no"?><svg xmlns:svg="http://www.w3.org/2000/svg" xmlns="http://www.w3.org/2000/svg" version="1.1" width="35.433052" height="35.433121" id="svg3135" xml:space="preserve"><defs id="defs3139"/><g transform="matrix(1.25,0,0,-1.25,-0.47607375,36.568375)" id="g3143"><g transform="scale(0.1,0.1)" id="g3145"><path d="m 145.539,292.547 c 78.262,0 141.734,-63.469 141.734,-141.731 C 287.273,72.5547 223.801,9.08203 145.539,9.08203 67.2773,9.08203 3.80859,72.5547 3.80859,150.816 c 0,78.262 63.46871,141.731 141.73041,141.731 z m 0,-28.348 c 62.609,0 113.387,-50.777 113.387,-113.383 0,-62.609 -50.778,-113.3863 -113.387,-113.3863 -62.6054,0 -113.3827,50.7773 -113.3827,113.3863 0,62.606 50.7773,113.383 113.3827,113.383" id="path3147" style="fill:#918f90;fill-opacity:1;fill-rule:evenodd;stroke:none"/><path d="m 80.3398,162.492 -19.1484,0 0,48.844 19.1484,0 0,2.379 c 0,10.617 0.8008,23.055 4.918,32.898 3.5586,8.68 9.3281,15.746 17.2772,20.59 8.192,5.125 17.613,6.985 27.176,6.985 7.945,0 15.863,-1.168 23.57,-3.055 l 12.457,-3.051 -0.226,-1.621 c 0.383,0.254 0.777,0.5 1.172,0.742 8.195,5.125 17.617,6.985 27.179,6.985 7.946,0 15.864,-1.168 23.571,-3.055 l 12.457,-3.051 -7.192,-50.906 -14.988,3.359 c -3.137,0.703 -6.379,1.156 -9.598,1.156 -0.648,0 -2.004,-0.046 -2.925,-0.25 -0.813,-2.574 -0.95,-7.867 -0.95,-9.925 l 0,-0.18 24.899,0 0,-48.844 -24.899,0 0,-135.0506 -49.75,0 0,135.0506 -14.402,0 0,-135.0506 -49.7462,0 0,135.0506 z m 64.2692,57.813 -1.046,0.23 c -3.137,0.703 -6.383,1.156 -9.602,1.156 -0.645,0 -2,-0.046 -2.922,-0.25 -0.812,-2.574 -0.953,-7.867 -0.953,-9.925 l 0,-0.18 14.402,0 0,2.379 c 0,2.137 0.032,4.34 0.121,6.59" id="path3149" style="fill:#ffffff;fill-opacity:1;fill-rule:evenodd;stroke:none"/><path d="m 94.5117,41.6172 0,135.0468 -19.1484,0 0,20.5 19.1484,0 0,16.551 c 0,12.25 1.3008,21.398 3.8516,27.5 2.4997,6.101 6.3987,10.75 11.6487,13.949 5.199,3.25 11.754,4.852 19.699,4.852 6.152,0 12.852,-0.848 20.199,-2.649 l -3.246,-23 c -4.453,0.996 -8.699,1.5 -12.703,1.5 -6.449,0 -11.098,-1.703 -13.848,-5.054 -2.8,-3.399 -4.199,-9.797 -4.199,-19.297 l 0,-14.352 24.899,0 0,-20.5 -24.899,0 0,-135.0468 -21.4023,0 z m 64.1523,0 0,135.0468 -19.148,0 0,20.5 19.148,0 0,16.551 c 0,12.25 1.301,21.398 3.852,27.5 2.5,6.101 6.398,10.75 11.648,13.949 5.199,3.25 11.75,4.852 19.699,4.852 6.153,0 12.848,-0.848 20.2,-2.649 l -3.25,-23 c -4.45,0.996 -8.7,1.5 -12.7,1.5 -6.449,0 -11.097,-1.703 -13.847,-5.054 -2.801,-3.399 -4.203,-9.797 -4.203,-19.297 l 0,-14.352 24.902,0 0,-20.5 -24.902,0 0,-135.0468 -21.399,0" id="path3151" style="fill:#918f90;fill-opacity:1;fill-rule:nonzero;stroke:none"/></g></g></svg>