<?xml version="1.0" encoding="UTF-8" standalone="no"?><svg xmlns:svg="http://www.w3.org/2000/svg" xmlns="http://www.w3.org/2000/svg" version="1.1" width="36.25" height="37.5" id="svg3131" xml:space="preserve"><defs id="defs3135"/><g transform="matrix(1.25,0,0,-1.25,0,37.5)" id="g3139"><g transform="scale(0.1,0.1)" id="g3141"><path d="m 145.539,292.547 c 28.324,0 54.699,-8.309 76.836,-22.625 l -4.941,1.211 c -7.707,1.887 -15.625,3.055 -23.571,3.055 -9.562,0 -18.984,-1.86 -27.179,-6.985 -0.395,-0.242 -0.789,-0.488 -1.172,-0.742 l 0.226,1.621 -12.457,3.051 c -7.707,1.887 -15.625,3.055 -23.57,3.055 -9.563,0 -18.984,-1.86 -27.176,-6.985 -7.8514,-4.781 -13.5702,-11.726 -17.1366,-20.262 -31.9726,-20.054 -53.2421,-55.613 -53.2421,-96.125 0,-38.339 19.0429,-72.234 48.1835,-92.7496 l 0,-30.625 49.7462,0 0,11.0469 c 4.719,-0.6406 9.519,-1 14.402,-1.0469 l 0,-10 49.75,0 0,20.9688 c 38.242,18.2226 64.688,57.2308 64.688,102.4058 0,31.77 -13.082,60.493 -34.145,81.082 l 4.68,33.125 C 264.516,239.219 287.273,197.668 287.273,150.816 287.273,72.5547 223.801,9.08203 145.539,9.08203 67.2773,9.08203 3.80859,72.5547 3.80859,150.816 c 0,78.262 63.46871,141.731 141.73041,141.731" id="path3143" style="fill:#918f90;fill-opacity:1;fill-rule:evenodd;stroke:none"/><path d="m 94.5117,41.6172 0,135.0468 -19.1484,0 0,20.5 19.1484,0 0,16.551 c 0,12.25 1.3008,21.398 3.8516,27.5 2.4997,6.101 6.3987,10.75 11.6487,13.949 5.199,3.25 11.754,4.852 19.699,4.852 6.152,0 12.852,-0.848 20.199,-2.649 l -3.246,-23 c -4.453,0.996 -8.699,1.5 -12.703,1.5 -6.449,0 -11.098,-1.703 -13.848,-5.054 -2.8,-3.399 -4.199,-9.797 -4.199,-19.297 l 0,-14.352 24.899,0 0,-20.5 -24.899,0 0,-135.0468 -21.4023,0 z m 64.1523,0 0,135.0468 -19.148,0 0,20.5 19.148,0 0,16.551 c 0,12.25 1.301,21.398 3.852,27.5 2.5,6.101 6.398,10.75 11.648,13.949 5.199,3.25 11.75,4.852 19.699,4.852 6.153,0 12.848,-0.848 20.2,-2.649 l -3.25,-23 c -4.45,0.996 -8.7,1.5 -12.7,1.5 -6.449,0 -11.097,-1.703 -13.847,-5.054 -2.801,-3.399 -4.203,-9.797 -4.203,-19.297 l 0,-14.352 24.902,0 0,-20.5 -24.902,0 0,-135.0468 -21.399,0" id="path3145" style="fill:#918f90;fill-opacity:1;fill-rule:nonzero;stroke:none"/></g></g></svg>