<?xml version="1.0" encoding="UTF-8" standalone="no"?><svg xmlns:svg="http://www.w3.org/2000/svg" xmlns="http://www.w3.org/2000/svg" version="1.1" width="35.433071" height="35.433071" xml:space="preserve"><g transform="matrix(1.25,0,0,-1.25,0,35.433065)" id="g3012"><g transform="matrix(0.1,0,0,0.1,1.2518992,-0.00664677)" id="g3014"><path d="m 250.539,0.0664063 -78.473,0 C 183.691,4.81641 194.355,11.4258 203.676,19.5508 l 27.375,0 0,35.6094 c 7.394,15.0586 11.547,31.9961 11.547,49.9028 0,17.906 -4.153,34.832 -11.547,49.886 l 0,46.864 19.488,-19.485 c 0.125,-60.703 0,-121.4999 0,-182.2615937 z m -164.1757,0 -78.53127,0 0,283.4645937 141.50397,0 19.484,-19.488 c -47.164,0 -94.3356,0 -141.4997,0 l 0,-109.219 c -7.3555,-15.027 -11.4961,-31.91 -11.4961,-49.761 0,-17.856 4.1406,-34.7505 11.4961,-49.7739 l 0,-35.7383 27.4414,0 C 64.0781,11.4297 74.7383,4.81641 86.3633,0.0664063" id="path3016" style="fill:#2369b5;fill-opacity:1;fill-rule:evenodd;stroke:none"/><path d="m 156.754,206.406 c 12.879,-3.492 24.781,-9.379 35.191,-17.148 l -35.191,0 0,17.148 z m 65.047,-51.82 c 7.91,-14.754 12.406,-31.617 12.406,-49.52 0,-57.9801 -47.019,-104.9995937 -105,-104.9995937 -57.9765,0 -104.9922,47.0194937 -104.9922,104.9995937 0,55.575 43.2149,101.082 97.8632,104.75 l 0,-55.23 99.723,0" id="path3018" style="fill:#417bc7;fill-opacity:1;fill-rule:evenodd;stroke:none"/><path d="m 128.969,154.586 c 0.035,-0.289 0.187,-0.555 0.488,-0.754 3.949,-2.656 15.398,-0.547 18.469,-0.648 0,0.277 0.5,0.754 0.519,1.402 l 3.477,0 -3.317,-4.305 c 12.321,-2.488 11.301,-1.843 14.735,0.309 0.984,0.617 -2.262,1.512 -0.672,1.941 4.266,1.141 7.461,-1.89 7.832,2.055 l 52.324,0 c 6.453,-10.773 10.797,-22.668 11.153,-35.121 1.238,-43.3986 -2.735,8.371 -6.582,-8.246 -1.418,-6.203 1.91,-13.2307 -6.508,-16.1487 -6.649,-2.3125 -14.223,5.6367 -8.227,10.9687 7.254,6.484 2.07,-9.5507 7.871,-7.7343 0.746,4.6403 11.891,28.0433 -1.695,18.4103 -4.613,-3.27 -6.32,-10.27 -8.57,-3.863 -0.09,0.222 3.25,17.464 -1.688,11.621 -0.644,-0.735 1.414,-5.95 -2.398,-3.891 -0.86,0.445 1.703,4.856 -1.133,2.75 -14.113,-10.379 -4.242,-9.133 -28.34,21.141 19.344,-31.723 8.191,-26.153 26.723,-26.153 8.172,0 2.847,-19.2067 -0.344,-14.215 -2.883,4.516 4.234,13.438 0.75,10.184 -5.836,-5.504 -17.391,-15.8827 -18.574,-23.7577 -0.68,-4.5118 -8.903,-6.4532 -11.992,-9.0352 -4.457,-3.75 -6.821,-15.1641 -9.59,-17.1094 -3.278,-2.3008 -15.414,-8.3476 -15.414,-0.9648 0,3.5429 -8.231,17.4258 -8.231,17.4258 -0.652,2.4414 -2.055,36.8003 -7.172,33.8823 -13.937,-7.851 -44.1091,13.004 -34.5817,23.579 4.1527,4.644 19.2107,12.5 23.2967,16.144 l 0.5,0.481 0,-0.348 6.891,0 z m -27.406,36.398 c 0.406,0.813 0.625,0.438 0,0 z m -0.583,-1.218 c -0.816,0.402 0.004,0.863 0.583,1.218 -0.18,-0.355 -0.387,-0.828 -0.583,-1.218 z M 51.2188,174.375 c 31.8945,35.566 53.0232,27.258 38.9609,20.32 14.6213,0.817 8.9258,15.137 14.9493,10.844 4.363,-3.113 -3.797,-8.976 -4.531,-14.301 -0.407,-2.898 -0.067,-2.429 0.382,-1.472 l 21.098,-2.239 0,-6.375 c -5.019,-2.191 -16.859,0.606 -20.305,-0.078 -3.8707,-0.738 9.106,-6.742 -4.7535,-2.996 -2.4843,0.668 -0.3672,2.34 -1.4297,3.344 -2.8476,2.687 -2.0625,-7.719 -6.7304,-7.719 -4.0391,0 -27.0508,-9.558 -32.7188,-13.926 -4.6679,-3.589 -5.6015,-10.605 -8.3047,-12.355 0.9688,-3.207 -9.4062,-0.195 -0.0156,-6.539 0.8203,-0.559 -1.7734,-2.684 -2.8203,-2.684 -1.0664,0 -6.3086,4.977 -5.6758,5.364 18.0821,10.914 -5.8867,12.171 -3.1836,-5.684 2.461,-16.289 -22.6953,0.187 32.9102,-24.793 C 68.6602,102.168 94.1094,98.3711 76.4805,90.9766 67.293,87.1094 76.0859,72.582 62.332,74.5508 57.7344,75.2109 48.1641,55.7969 48.5195,54.4531 c 0.7227,-2.7265 14.2813,-19.1172 4.9571,-17.414 -1.6368,0.3047 -17.6407,19.1367 -24.0391,37.5625 -12.6836,36.4844 3.5938,48.7814 3.168,51.1994 -0.3438,2.004 -4.6133,2.949 -4.6133,4.23 0,1.258 5.8281,24.981 23.2266,44.344 z m 105.5352,31.691 c 3.293,2.719 18.644,-4.003 34.805,-16.808 l -34.805,0 0,16.808 z M 122.078,158.09 c -0.535,0.285 -1.039,0.515 -0.855,0.906 0.179,0.379 0.5,0.414 0.855,0.356 l 0,-1.262 z m -11.637,35.719 c 1.004,0 -0.535,0 0,0 z m -1.062,5.691 c 5.867,5.586 7.773,8.598 12.699,9.223 l 0,-7.469 c -5.394,-3.684 -11.355,-7.445 -11.637,-7.445 -0.992,0 -2.461,4.351 -1.062,5.691 z M 205.805,94.7383 c 1.289,1.7734 4.797,4.9648 4.797,1.6406 0,-3.4258 -11.5,-10.8867 -4.797,-1.6406 z m 8.918,-8.3906 c 4.851,3.9101 4.836,-2.9727 5.144,-5.1797 7.91,-1.3086 10.871,5.5625 9.52,-0.4219 -7.524,-32.7344 -16.067,-22.7578 -15.692,-21.5117 1.121,3.6797 -6.715,-2.836 -9.242,3.2226 -1.984,4.7657 0.492,17.0469 0,20.9805 -0.484,3.7773 -5.687,-0.5469 0.332,2.25 1.699,0.8086 2.453,5.2188 4.469,1.6289 5.617,-10.0781 2.562,-3.3359 5.469,-0.9687 z M 168.152,68.9063 c 5.633,9.8867 4.309,8.1093 14.032,14.2109 1.539,0.9648 -10.954,-16.7852 -13.711,-15.8125 -2.727,0.9726 -0.321,1.6016 -0.321,1.6016 z M 189.02,52.4375 c -2.516,3.5859 5.722,15.7344 5.835,15.1875 1.29,-5.8125 -3.472,-18.5156 -5.835,-15.1875 z M 147.449,8.98047 161.832,6.07031 C 167.938,5.19141 145.184,-1.39063 121.449,0.535156 96.832,2.51563 82.5977,10.2266 84.8242,11.2578 c 2.2227,1.0547 6.9258,-1.1992 9.2422,-0.3281 1.9492,0.75 2.8633,8.207 5.1367,4.5703 1.4999,-2.4102 -1.9101,-6.58594 5.8129,-5.86328 0.289,0.01953 0.054,4.23828 14.718,0.65238 1.489,-0.3516 -1.925,-4.16801 8.547,-1.96488 3.199,0.67187 5.285,4.51558 8.563,2.60548 0.519,-0.3008 -1.125,-4.72267 5.82,-3.23829 0.93,0.1875 -0.418,3.48049 4.785,1.28906 z M 69.4023,107.699 c -0.5234,0.512 0.5352,-0.476 0,0 z m 90.0467,46.887 c -0.707,-0.371 -1.676,-0.461 -3.277,0 l 3.277,0" id="path3020" style="fill:#455446;fill-opacity:1;fill-rule:evenodd;stroke:none"/><path d="m 129.676,283.531 19.691,0 101.203,-101.203 0.024,-20.148 -120.918,0 0,121.351 z m 93.996,-101.867 -74.512,74.516 0,-74.516 74.512,0" id="path3022" style="fill:#2369b5;fill-opacity:1;fill-rule:evenodd;stroke:none"/></g></g></svg>