<?xml version="1.0" encoding="UTF-8" standalone="no"?><svg xmlns:svg="http://www.w3.org/2000/svg" xmlns="http://www.w3.org/2000/svg" version="1.1" width="35.433052" height="35.433121" id="svg3077" xml:space="preserve"><defs id="defs3081"/><g transform="matrix(1.25,0,0,-1.25,-0.47607375,36.568375)" id="g3085"><g transform="scale(0.1,0.1)" id="g3087"><path d="m 145.539,292.547 c 78.262,0 141.734,-63.469 141.734,-141.731 C 287.273,72.5547 223.801,9.08203 145.539,9.08203 67.2773,9.08203 3.80859,72.5547 3.80859,150.816 c 0,78.262 63.46871,141.731 141.73041,141.731 z m 50.082,-39.992 c 37.492,-18.496 63.305,-57.114 63.305,-101.739 0,-56.9605 -42.039,-104.1129 -96.762,-112.1637 l 0,-11.2109 -49.75,0 0,14.918 C 65.9648,56.5391 32.1563,99.7305 32.1563,150.816 c 0,56.934 41.996,104.082 96.6917,112.164 1.777,1.551 3.691,2.961 5.761,4.223 8.196,5.125 17.618,6.985 27.18,6.985 7.945,0 15.863,-1.168 23.57,-3.055 l 12.457,-3.051 -2.195,-15.527" id="path3089" style="fill:#777372;fill-opacity:1;fill-rule:evenodd;stroke:none"/><path d="m 126.59,41.6172 0,135.0468 -19.149,0 0,20.5 19.149,0 0,16.551 c 0,12.25 1.301,21.398 3.851,27.5 2.5,6.101 6.399,10.75 11.649,13.949 5.199,3.25 11.75,4.852 19.699,4.852 6.152,0 12.848,-0.848 20.199,-2.649 l -3.25,-23 c -4.449,0.996 -8.699,1.5 -12.699,1.5 -6.449,0 -11.098,-1.703 -13.848,-5.054 -2.8,-3.399 -4.203,-9.797 -4.203,-19.297 l 0,-14.352 24.903,0 0,-20.5 -24.903,0 0,-135.0468 -21.398,0" id="path3091" style="fill:#777372;fill-opacity:1;fill-rule:nonzero;stroke:none"/></g></g></svg>