<?xml version="1.0" encoding="UTF-8" standalone="no"?><svg xmlns:svg="http://www.w3.org/2000/svg" xmlns="http://www.w3.org/2000/svg" viewBox="0 0 35.43307 35.43307" height="10mm" width="10mm" xml:space="preserve" version="1.1"><g transform="matrix(1.25,0,0,-1.25,0,35.433069)" id="g3482"><g transform="scale(0.1,0.1)" id="g3484"><path id="path3486" style="fill:#5e98ba;fill-opacity:1;fill-rule:evenodd;stroke:none" d="M 273.438,0 247.645,0 273.438,9.41016 273.438,0 Z M 159.793,0 30.7305,0 l 0,9.42188 c 23.5234,-5.8086 50.1367,-6.9375 66,-7.05469 11.1245,-0.08594 30.8005,0.21094 50.7385,3.05469 L 159.793,0 Z m -129.0625,78.0586 0,1.168 c 0.1914,-0.3711 0.3672,-0.7422 0.539,-1.1133 l -0.539,-0.0547 z m 0,71.1954 0,134.211 75.5235,0 1.059,-4.184 c 1.476,-5.82 1.136,-10.84 -0.442,-15.301 l -56.6522,0 0,-59 c -6.2657,-12.183 -5.0235,-24.117 0,-35.218 l 0,-15.239 c -6.6172,-1.203 -13.3086,-3.058 -19.4883,-5.269 z m 115.7345,134.211 25.769,0 101.204,-101.203 c 0.039,-20.532 0.05,-41.086 0.05,-61.637 l -1.617,0.711 -17.922,7.902 0,32.875 -101.41,0 0,45.203 c 5.559,3.575 10.52,6.52 12.691,7.782 l 6.797,3.937 0,-37.437 74.512,0 -74.512,74.515 0,-17.8 c -4.515,14.742 -14.898,31.777 -25.562,45.152" /><path id="path3488" style="fill:#f9f086;fill-opacity:1;fill-rule:evenodd;stroke:none" d="m 280.66,30.1563 0,64.2734 c -23.129,10.1873 -46.254,20.3863 -69.387,30.5433 l -8.636,-3.153 C 201.953,107.137 188.621,90.4414 154.676,81.5234 l -3.867,-1.0195 30.41,-13.6641 c 7.191,-3.2343 12.433,-9.6484 18.469,-14.5 l 3.496,-2.8046 -0.344,-4.4727 C 201.703,30.2891 184.148,21.8477 163.277,17.0508 L 200.227,0.78125 280.66,30.1563 Z m -116.629,77.5817 -9.183,-3.351 c -0.313,-1.133 -0.633,-2.266 -0.934,-3.407 3.008,1.766 6.688,4.102 10.117,6.758 z m -33.199,-51.9802 0,-4.9805 c 15.445,1.3243 28.598,3.2696 36.258,5.5899 0.117,0.0351 0.258,0.082 0.414,0.1289 L 148.117,72.5 c -0.242,-1.8477 -0.453,-3.6875 -0.629,-5.5234 l -0.48,-5.0157 -4.633,-1.9843 c -3.73,-1.6016 -7.586,-3.0078 -11.543,-4.2188 z m 16.031,40.3438 0,0" /><path id="path3490" style="fill:#282523;fill-opacity:1;fill-rule:evenodd;stroke:none" d="m 211.418,129.375 10.551,-4.641 c 14.355,-6.304 28.715,-12.632 43.051,-18.964 l 17.757,-7.8091 c 0,-22.9492 0,-44.2461 0,-67.0312 C 254.848,20.7344 228.289,11.0508 200.227,0.78125 l -36.95,16.26955 c 2.192,0.5039 4.344,1.043 6.446,1.6328 l 28.289,-12.45313 0,27.50783 c 1.883,2.2265 3.277,4.6758 4.086,7.3515 l 0,-3.1328 36.382,13.2891 0,27.9492 -36.382,-13.2773 0,-15.5078 -2.41,1.9296 c -0.567,0.4571 -1.122,0.9336 -1.676,1.4141 l 0,11.9961 -30.367,13.3633 0,-6.1758 -4.102,1.8438 0,6.1328 -4.313,1.9023 c 2.012,0.6016 3.965,1.2344 5.821,1.8945 l 0.25,-0.1093 30.164,11.0273 c -1.367,0.2656 -2.703,0.6406 -3.879,1.1602 -0.754,0.3359 -1.469,0.7578 -2.125,1.2539 2.293,1.9453 4.254,3.961 5.914,6.004 l 7.316,-3.231 c -1.027,4.071 -2.98,5.875 -5.015,6.368 0.789,1.214 1.476,2.437 2.07,3.664 2.274,-0.848 4.356,-2.696 5.789,-5.848 3.785,8.563 14.09,8.617 17.762,0.77 l 17.191,6.296 -18.519,8.215 -10.696,4.692 -8.636,-3.153 c 0.07,1.457 0.011,2.891 -0.16,4.297 l 8.941,3.258 z m -82.57,-78.7461 0,4.5547 c 1.382,0.3984 2.75,0.8164 4.109,1.2578 l 0,-5.4609 -4.109,-0.3516 z m 27.382,58.6171 15.286,5.578 c -2.004,-2.488 -4.696,-4.91 -7.547,-7.117 l -9.129,-3.328 c 0.453,1.629 0.914,3.25 1.39,4.867 z m 89.747,0.465 c -7.239,-2.645 -14.461,-5.277 -21.696,-7.926 -0.59,-2.2772 -2.539,-3.8592 -4.711,-4.8241 -1.484,-0.6523 -3.195,-1.0898 -4.968,-1.3593 l 25.769,-11.3594 34.695,12.6562 -20.16,8.8716 -8.929,3.941 z m -43.879,-76.1016 0,-27.77737 36.382,13.24607 0,27.8164 -36.382,-13.2851 z m -2.305,35.8125 35.039,12.7969 -29.105,12.8046 -35.02,-12.8046 29.086,-12.7969 z m 78.891,24.4531 -36.141,-13.1875 0,-27.9492 36.141,13.1914 0,27.9453 z M 143.953,60.6484 158.969,54.4297 c -2.309,-0.4531 -4.836,-0.8828 -7.543,-1.2891 l -12.821,5.3047 c 1.274,0.4883 2.528,0.9961 3.77,1.5313 l 1.578,0.6718 z m 19.59,-5.2265 0,4.3476 3.961,-3.2734 c -0.156,-0.0469 -0.297,-0.0938 -0.414,-0.1289 -1.078,-0.3281 -2.266,-0.6367 -3.547,-0.9453 z m 115.141,6.1562 -36.141,-13.1953 0,-27.8047 36.141,13.1953 0,27.8047" /><path id="path3492" style="fill:#5e98ba;fill-opacity:1;fill-rule:evenodd;stroke:none" d="M 139.023,67.7891 C 98.6719,50.4922 49.9961,61.1445 50.4414,71.9766 l -0.0234,0 c -1.8789,21.0742 -28.2266,43.3714 -28.6524,52.6324 -0.1875,0.196 0.4844,2.442 4.7735,4.528 22.7968,11.011 41.332,9.761 41.332,9.761 0,0 -47.7461,-11.343 -16.9063,-15.46 32.8047,-4.387 70.2152,0.089 102.7382,5.898 -7.906,-23.242 -12.984,-43.9376 -14.68,-61.5469" /><path id="path3494" style="fill:#ee5e1f;fill-opacity:1;fill-rule:evenodd;stroke:none" d="m 91.0977,145.617 c -21.2422,19.903 -35.211,37.719 -24.1055,54.395 17.9805,27 67.8128,40.082 56.8088,83.453 12.679,-12.723 29.172,-36.848 32.902,-53.656 C 99.418,196.613 110,186.961 123.801,167.582 c 14.777,-20.809 -17.399,-37.41 -17.399,-37.41 0.508,4.305 -11.6442,12.023 -15.3043,15.445" /><path id="path3496" style="fill:#5e98ba;fill-opacity:1;fill-rule:evenodd;stroke:none" d="m 177.73,59.082 c 0,0 7.43,-6.1289 -8.179,-10.8515 C 139.879,39.2422 46.0234,36.5234 19.957,47.8672 c -9.3711,4.0781 8.1953,9.7344 13.7227,10.9219 5.7773,1.25 9.0742,1.0234 9.0742,1.0234 C 34.375,65.7031 -4,52.8242 1.16016,44.3047 18.4297,9.75781 191.766,11.9141 194.359,45.7148 190.102,49.1367 182.961,56.7344 177.73,59.082" /><path id="path3498" style="fill:#5e98ba;fill-opacity:1;fill-rule:evenodd;stroke:none" d="m 153.504,91.0352 c 49.269,25.6098 26.488,50.2108 10.59,46.8948 -3.899,-0.809 -5.633,-1.508 -5.633,-1.508 0,0 1.441,2.262 4.207,3.242 31.461,11.059 55.652,-32.625 -10.156,-49.9179 0,0 0.761,0.6758 0.992,1.2891" /></g></g></svg>