<?xml version="1.0" encoding="UTF-8" standalone="no"?><svg xmlns:svg="http://www.w3.org/2000/svg" xmlns="http://www.w3.org/2000/svg" version="1.1" width="35.433052" height="35.433121" id="svg3185" xml:space="preserve"><defs id="defs3189"/><g transform="matrix(1.25,0,0,-1.25,-0.47607375,36.568375)" id="g3193"><g transform="scale(0.1,0.1)" id="g3195"><path d="m 145.539,292.547 c 25.856,0 50.082,-6.922 70.957,-19.02 -6.25,-0.925 -12.258,-2.902 -17.734,-6.324 -0.399,-0.242 -0.789,-0.488 -1.176,-0.742 l 0.23,1.621 -12.457,3.051 c -7.707,1.887 -15.625,3.055 -23.57,3.055 -9.562,0 -18.984,-1.86 -27.18,-6.985 -0.394,-0.242 -0.789,-0.488 -1.171,-0.742 l 0.23,1.621 -12.461,3.051 c -7.707,1.887 -15.625,3.055 -23.5703,3.055 -9.5625,0 -18.9804,-1.86 -27.1758,-6.985 -7.9492,-4.844 -13.7187,-11.91 -17.2773,-20.59 -4.1172,-9.843 -4.918,-22.281 -4.918,-32.898 l 0,-2.379 -19.1484,0 0,-48.844 3.6328,0 c -0.3945,-3.84 -0.5937,-7.738 -0.5937,-11.676 0,-21.3 5.8906,-41.222 16.1093,-58.2457 l 0,-44.8047 C 20.8945,73.6016 3.80859,110.219 3.80859,150.816 c 0,78.262 63.46871,141.731 141.73041,141.731 z m 112.113,-55.035 c 18.563,-23.969 29.621,-54.043 29.621,-86.696 0,-48.242 -24.128,-90.8472 -60.96,-116.4488 l 0,36.8984 c 20.16,20.4727 32.613,48.5544 32.613,79.5504 0,14.516 -2.735,28.399 -7.711,41.157 l 0,19.363 -9.797,0 c -2.223,3.516 -4.629,6.898 -7.215,10.137 1.879,-0.2 3.754,-0.528 5.586,-0.938 l 14.988,-3.359 2.875,20.336 z M 215.313,27.4414 C 194.715,15.7617 170.906,9.08203 145.539,9.08203 c -25.367,0 -49.1718,6.67967 -69.7695,18.35937 l 22.2422,0 0,20.4219 c 4.6403,-2.1445 9.4493,-3.9922 14.4023,-5.5039 l 0,-14.918 49.75,0 0,11.2109 c 4.91,0.7227 9.719,1.754 14.402,3.086 l 0,-14.2969 38.747,0" id="path3197" style="fill:#a5a3a2;fill-opacity:1;fill-rule:evenodd;stroke:none"/><path d="m 62.4375,41.6172 0,135.0468 -19.1484,0 0,20.5 19.1484,0 0,16.551 c 0,12.25 1.3008,21.398 3.8516,27.5 2.5,6.101 6.3984,10.75 11.6484,13.949 5.2031,3.25 11.7539,4.852 19.6992,4.852 6.1523,0 12.8513,-0.848 20.1993,-2.649 l -3.246,-23 c -4.449,0.996 -8.699,1.5 -12.703,1.5 -6.4495,0 -11.0979,-1.703 -13.8479,-5.054 -2.8008,-3.399 -4.1993,-9.797 -4.1993,-19.297 l 0,-14.352 24.8982,0 0,-20.5 -24.8982,0 0,-135.0468 -21.4023,0 z m 64.1525,0 0,135.0468 -19.149,0 0,20.5 19.149,0 0,16.551 c 0,12.25 1.301,21.398 3.851,27.5 2.5,6.101 6.399,10.75 11.649,13.949 5.199,3.25 11.75,4.852 19.699,4.852 6.152,0 12.848,-0.848 20.199,-2.649 l -3.25,-23 c -4.449,0.996 -8.699,1.5 -12.699,1.5 -6.449,0 -11.098,-1.703 -13.848,-5.054 -2.8,-3.399 -4.203,-9.797 -4.203,-19.297 l 0,-14.352 24.903,0 0,-20.5 -24.903,0 0,-135.0468 -21.398,0 z m 64.148,0 0,135.0468 -19.148,0 0,20.5 19.148,0 0,16.551 c 0,12.25 1.301,21.398 3.852,27.5 2.5,6.101 6.398,10.75 11.648,13.949 5.203,3.25 11.754,4.852 19.703,4.852 6.149,0 12.848,-0.848 20.2,-2.649 l -3.25,-23 c -4.45,0.996 -8.7,1.5 -12.703,1.5 -6.45,0 -11.098,-1.703 -13.848,-5.054 -2.801,-3.399 -4.199,-9.797 -4.199,-19.297 l 0,-14.352 24.898,0 0,-20.5 -24.898,0 0,-135.0468 -21.403,0" id="path3199" style="fill:#a5a3a2;fill-opacity:1;fill-rule:nonzero;stroke:none"/></g></g></svg>