<?xml version="1.0" encoding="UTF-8" standalone="no"?><svg xmlns:svg="http://www.w3.org/2000/svg" xmlns="http://www.w3.org/2000/svg" version="1.1" width="35.433071" height="35.433071" xml:space="preserve"><defs id="defs3008"><clipPath id="clipPath3020"><path d="M 37.0508,77.6914 C 39.3594,69.4023 38.5469,59.7422 32.9766,56.1211 31.2813,55.0234 24.5195,51.5391 24.0313,49.5 23.793,48.5117 27.4648,44 28.0078,43.2109 c 0.5391,-0.789 3.418,-5.8593 4.4336,-5.9961 2.4258,-0.3242 9.207,5.7657 11.1484,7.1602 13.2188,9.5508 31.7579,-5.3594 28.5352,-20.3359 -0.4375,-2.0235 -2.9727,-9.9258 -1.7617,-11.5352 0.8555,-1.1406 7.7734,-1.7344 9.2031,-2.0312 0.7969,-0.168 4.6836,-1.13676 5.4492,-0.67973 2.4883,2.75783 2.7305,12.31253 3.3047,16.12503 1.6992,11.3203 26.3597,15.039 31.6997,6.2968 1.718,-2.8125 3.523,-5.5664 5.359,-8.2968 1.226,-1.8242 2.926,-5.5782 5.223,-4.2774 2.617,1.4883 9.605,5.1797 10.964,7.8633 0.762,1.4961 -5.543,8.8867 -6.363,10.0313 -6.387,8.9062 5.426,32.9765 15.848,30.4843 2.156,-0.5195 4.328,-0.9922 6.504,-1.4375 1.023,-0.2109 8.242,-2.2578 8.91,-0.8789 1.094,2.2774 3.281,8.1563 2.617,11.9883 l -48.437,0 C 116.73,65.5938 105.387,56.8398 91.9883,56.8398 c -13.3945,0 -24.7578,8.754 -28.668,20.8516 l -26.2695,0 z" id="path3022"/></clipPath><linearGradient x1="-6.23318" y1="0" x2="6.23318" y2="0" id="linearGradient3024" gradientUnits="userSpaceOnUse" gradientTransform="matrix(0.936366,0.351025,-0.351025,0.936366,9.66133,4.36816)" spreadMethod="pad"><stop id="stop3026" style="stop-color:#6c5b43;stop-opacity:1" offset="0"/><stop id="stop3028" style="stop-color:#c58f30;stop-opacity:1" offset="1"/></linearGradient><clipPath id="clipPath3036"><path d="m 249.719,205.902 c -2.27,7.875 -2.137,16.805 2.113,19.434 1.785,1.105 3.551,2.25 5.301,3.41 0.902,0.598 7.289,4.09 6.722,5.613 -0.843,2.27 -6.457,12.934 -9.464,11.532 -3.875,-1.809 -7.594,-4.95 -11.012,-7.524 -7.844,-5.906 -30.328,8.781 -28.133,18.235 0.43,1.847 0.828,3.703 1.207,5.562 0.305,1.488 2.121,7.563 1.227,8.758 -1.922,1.91 -12.094,3.547 -14.7,2.769 -0.796,-0.554 -1.41,-4.933 -1.566,-5.804 -0.449,-2.446 -0.875,-4.895 -1.269,-7.356 -1.864,-11.613 -28.247,-15.433 -33.852,-6.593 -1.727,2.734 -3.527,5.425 -5.352,8.089 -3.418,5 -10.558,-2.621 -13.503,-5.031 -1.54,-1.25 -0.622,-2.469 0.378,-3.93 l 4.688,-6.718 c 6.328,-8.891 -8.297,-32.325 -19.941,-30.309 -2.629,0.457 -5.079,1.453 -7.622,1.926 -0.691,0.129 -2.304,0.371 -2.914,-0.192 -1.496,-1.382 -2.285,-8.535 -2.707,-10.648 -0.062,-0.305 -0.132,-0.75 -0.179,-1.223 l 48.464,0 c 3.926,12.071 15.278,20.805 28.653,20.805 13.379,0 24.711,-8.734 28.637,-20.805 l 24.824,0 z" id="path3038"/></clipPath><linearGradient x1="-6.2168598" y1="0" x2="6.2168598" y2="0" id="linearGradient3040" gradientUnits="userSpaceOnUse" gradientTransform="matrix(0.936366,0.351025,-0.351025,0.936366,19.1518,23.9895)" spreadMethod="pad"><stop id="stop3042" style="stop-color:#6c5b43;stop-opacity:1" offset="0"/><stop id="stop3044" style="stop-color:#c58f30;stop-opacity:1" offset="1"/></linearGradient></defs><g transform="matrix(1.25,0,0,-1.25,0,35.433065)" id="g3012"><g transform="matrix(0.1,0,0,0.1,-0.22694805,-0.00673397)" id="g3014"><g id="g3016"><g clip-path="url(#clipPath3020)" id="g3018"><path d="M 37.0508,77.6914 C 39.3594,69.4023 38.5469,59.7422 32.9766,56.1211 31.2813,55.0234 24.5195,51.5391 24.0313,49.5 23.793,48.5117 27.4648,44 28.0078,43.2109 c 0.5391,-0.789 3.418,-5.8593 4.4336,-5.9961 2.4258,-0.3242 9.207,5.7657 11.1484,7.1602 13.2188,9.5508 31.7579,-5.3594 28.5352,-20.3359 -0.4375,-2.0235 -2.9727,-9.9258 -1.7617,-11.5352 0.8555,-1.1406 7.7734,-1.7344 9.2031,-2.0312 0.7969,-0.168 4.6836,-1.13676 5.4492,-0.67973 2.4883,2.75783 2.7305,12.31253 3.3047,16.12503 1.6992,11.3203 26.3597,15.039 31.6997,6.2968 1.718,-2.8125 3.523,-5.5664 5.359,-8.2968 1.226,-1.8242 2.926,-5.5782 5.223,-4.2774 2.617,1.4883 9.605,5.1797 10.964,7.8633 0.762,1.4961 -5.543,8.8867 -6.363,10.0313 -6.387,8.9062 5.426,32.9765 15.848,30.4843 2.156,-0.5195 4.328,-0.9922 6.504,-1.4375 1.023,-0.2109 8.242,-2.2578 8.91,-0.8789 1.094,2.2774 3.281,8.1563 2.617,11.9883 l -48.437,0 C 116.73,65.5938 105.387,56.8398 91.9883,56.8398 c -13.3945,0 -24.7578,8.754 -28.668,20.8516 l -26.2695,0" id="path3030" style="fill:url(#linearGradient3024);fill-opacity:1;fill-rule:nonzero;stroke:none"/></g></g><g id="g3032"><g clip-path="url(#clipPath3036)" id="g3034"><path d="m 249.719,205.902 c -2.27,7.875 -2.137,16.805 2.113,19.434 1.785,1.105 3.551,2.25 5.301,3.41 0.902,0.598 7.289,4.09 6.722,5.613 -0.843,2.27 -6.457,12.934 -9.464,11.532 -3.875,-1.809 -7.594,-4.95 -11.012,-7.524 -7.844,-5.906 -30.328,8.781 -28.133,18.235 0.43,1.847 0.828,3.703 1.207,5.562 0.305,1.488 2.121,7.563 1.227,8.758 -1.922,1.91 -12.094,3.547 -14.7,2.769 -0.796,-0.554 -1.41,-4.933 -1.566,-5.804 -0.449,-2.446 -0.875,-4.895 -1.269,-7.356 -1.864,-11.613 -28.247,-15.433 -33.852,-6.593 -1.727,2.734 -3.527,5.425 -5.352,8.089 -3.418,5 -10.558,-2.621 -13.503,-5.031 -1.54,-1.25 -0.622,-2.469 0.378,-3.93 l 4.688,-6.718 c 6.328,-8.891 -8.297,-32.325 -19.941,-30.309 -2.629,0.457 -5.079,1.453 -7.622,1.926 -0.691,0.129 -2.304,0.371 -2.914,-0.192 -1.496,-1.382 -2.285,-8.535 -2.707,-10.648 -0.062,-0.305 -0.132,-0.75 -0.179,-1.223 l 48.464,0 c 3.926,12.071 15.278,20.805 28.653,20.805 13.379,0 24.711,-8.734 28.637,-20.805 l 24.824,0" id="path3046" style="fill:url(#linearGradient3040);fill-opacity:1;fill-rule:nonzero;stroke:none"/></g></g><path d="m 265.328,0.0664063 -132.922,0 c 2.469,0.3906247 5.032,1.2929737 7.703,2.8085937 7.153,4.05469 14.766,8.25 18.653,15.9102 l 0.375,0.7656 86.707,0 0,58.1406 19.519,0 c -0.015,-25.875 -0.035,-51.75 -0.035,-77.6249937 z m -138.558,0 -24.985,0 c 3.492,5.3750037 4.176,11.0780937 4.871,17.2148937 0.899,-1.3829 1.813,-2.7579 2.735,-4.129 4.57,-6.78902 10.457,-11.96871 17.379,-13.0858937 z m -71.1372,0 -33.0078,0 0,20.3671937 c 1.9727,-1.1328 4.3125,-1.9297 7.2617,-2.3242 4.8477,-0.6524 8.7305,0.2148 12.2266,1.8789 l 0,-0.4375 9.3008,0 C 50.2461,13.2188 50.2031,7.26172 54.9375,0.945313 55.1641,0.640625 55.3984,0.347656 55.6328,0.0664063 z M 22.625,205.902 l 0,77.629 141.5,0 1.145,-1.144 c -9.899,3.222 -20.86,-2.977 -30.024,-10.457 -2.844,-2.325 -4.887,-5.008 -6.18,-7.887 l -86.9527,0 0,-58.141 -19.4883,0" id="path3048" style="fill:#80544e;fill-opacity:1;fill-rule:evenodd;stroke:none"/><path d="m 196.258,226.707 c 13.383,0 24.719,-8.727 28.644,-20.805 l -10.496,0 c -3.383,6.586 -10.234,11.086 -18.148,11.086 -7.91,0 -14.766,-4.5 -18.145,-11.086 l -10.496,0 c 3.922,12.078 15.262,20.805 28.641,20.805" id="path3050" style="fill:#80544e;fill-opacity:1;fill-rule:evenodd;stroke:none"/><path d="m 166.293,253.938 c 5.605,-8.84 31.988,-5.02 33.852,6.593 0.394,2.461 0.82,4.91 1.269,7.356 0.156,0.871 0.77,5.25 1.566,5.804 2.606,0.778 12.778,-0.859 14.7,-2.769 0.894,-1.195 -0.922,-7.27 -1.227,-8.758 -0.379,-1.859 -0.777,-3.715 -1.207,-5.562 -2.195,-9.454 20.289,-24.141 28.133,-18.235 3.418,2.574 7.137,5.715 11.012,7.524 3.007,1.402 8.621,-9.262 9.464,-11.532 0.567,-1.523 -5.82,-5.015 -6.722,-5.613 -1.75,-1.16 -3.516,-2.305 -5.301,-3.41 -4.25,-2.633 -4.387,-11.551 -2.109,-19.434 l 10.183,0 c -1.359,3.938 -2.371,9.442 -2.019,11.852 l 4.566,2.957 c 5.879,3.887 13.66,8.336 10.438,17.004 -3.102,8.332 -11.993,21.844 -22.571,16.91 -4.453,-2.074 -8.257,-5.16 -12.14,-8.109 -3.223,0.293 -11.735,5.847 -13.367,8.679 l 1.082,5.039 c 1.125,5.516 3.304,11.379 -0.543,16.508 -4.047,5.395 -18.829,8.063 -25.082,6.199 -6.313,-1.871 -7.348,-7.828 -8.34,-13.332 -0.461,-2.511 -0.895,-5.027 -1.301,-7.55 -1.449,-2.59 -13.481,-4.297 -16.379,-2.664 -1.734,2.722 -3.531,5.41 -5.352,8.078 -8.285,12.097 -19.519,3.558 -27.554,-3.008 -5.75,-4.692 -5.399,-11.117 -1.481,-16.844 l 4.598,-6.601 c 0.504,-3.61 -6.832,-15.489 -10.273,-15.485 -2.52,0.442 -4.938,1.43 -7.473,1.903 -13.832,2.589 -14.906,-8.719 -16.848,-18.426 -0.222,-1.114 -0.351,-2.145 -0.406,-3.11 l 9.68,0 c 0.043,0.481 0.117,0.918 0.179,1.223 0.422,2.113 1.211,9.266 2.707,10.648 0.61,0.563 2.223,0.321 2.914,0.192 2.543,-0.473 4.993,-1.469 7.622,-1.926 11.644,-2.016 26.269,21.418 19.941,30.309 l -4.688,6.718 c -1,1.461 -1.918,2.68 -0.378,3.93 2.945,2.41 10.085,10.031 13.503,5.031 1.825,-2.664 3.625,-5.355 5.352,-8.089" id="path3052" style="fill:#80544e;fill-opacity:1;fill-rule:evenodd;stroke:none"/><path d="M 120.645,77.6914 C 116.73,65.5938 105.387,56.8398 91.9883,56.8398 c -13.3945,0 -24.7422,8.754 -28.6524,20.8516 l 10.4883,0 c 3.3789,-6.6055 10.2422,-11.1328 18.1641,-11.1328 7.9258,0 14.7887,4.5273 18.1637,11.1328 l 10.493,0" id="path3054" style="fill:#80544e;fill-opacity:1;fill-rule:evenodd;stroke:none"/><path d="m 169.082,77.6914 c 0.664,-3.832 -1.523,-9.7109 -2.617,-11.9883 -0.668,-1.3789 -7.887,0.668 -8.91,0.8789 -2.176,0.4453 -4.348,0.918 -6.504,1.4375 -10.422,2.4922 -22.235,-21.5781 -15.848,-30.4843 0.82,-1.1446 7.125,-8.5352 6.363,-10.0313 -1.359,-2.6836 -8.347,-6.375 -10.964,-7.8633 -2.297,-1.3008 -3.997,2.4532 -5.223,4.2774 -1.836,2.7304 -3.641,5.4843 -5.359,8.2968 C 114.68,40.957 90.0195,37.2383 88.3203,25.918 87.7461,22.1055 87.5039,12.5508 85.0156,9.79297 84.25,9.33594 80.3633,10.3047 79.5664,10.4727 c -1.4297,0.2968 -8.3476,0.8906 -9.2031,2.0312 -1.211,1.6094 1.3242,9.5117 1.7617,11.5352 C 75.3477,39.0156 56.8086,53.9258 43.5898,44.375 41.6484,42.9805 34.8672,36.8906 32.4414,37.2148 31.4258,37.3516 28.5469,42.4219 28.0078,43.2109 27.4648,44 23.793,48.5117 24.0313,49.5 c 0.4882,2.0391 7.25,5.5234 8.9453,6.6211 5.5703,3.6211 6.3984,13.2812 4.0898,21.5703 l -10.1445,0 c 1.7109,-4.707 2.5742,-11.9141 0.7969,-13.4961 -5.0274,-3.2539 -11.4883,-5.9023 -13.0586,-12.4414 -1.4141,-5.8984 2.4375,-9.6758 5.3945,-13.9883 2.9531,-4.3242 5.0742,-9.2968 11.1094,-10.1015 7.2187,-0.9727 12.789,5.1015 18.0586,8.8945 5.8281,4.207 14.8984,-3.8984 13.4765,-10.4922 -1.332,-6.1992 -4.4258,-13.5 -0.0508,-19.34374 3.8086,-5.07422 9.586,-4.56641 14.9493,-5.6875 5.1523,-1.0742225 10.4882,-2.21094 14.5664,2.30078 5.0351,5.57422 4.6367,14.17966 5.6836,21.14846 1.3125,2.2383 11.5113,3.7422 14.1603,2.3633 1.726,-2.8125 3.535,-5.5743 5.379,-8.3125 4.32,-6.418 9.769,-11.92582 17.968,-7.2774 5.067,2.875 12.102,6.5391 14.809,11.8828 3.875,7.6485 -3.07,14.3438 -7.125,20.0078 -1.445,2.6875 3.695,13.1836 6.649,15.2891 1.972,-0.4648 3.949,-0.8906 5.937,-1.2969 6.859,-1.4062 15.543,-3.8867 19.523,4.3867 2.399,4.9922 3.774,10.9375 3.356,16.1641 l -9.422,0" id="path3056" style="fill:#80544e;fill-opacity:1;fill-rule:evenodd;stroke:none"/><path d="m 58.7188,93.1875 c -4.8165,-2.7812 -11.7657,-4.1641 -20.836,-4.1641 -10.6094,0 -19.1953,3.1993 -25.7578,9.6485 -6.55859,6.4221 -9.85547,14.7071 -9.85547,24.8831 0,11.738 3.52344,20.972 10.54687,27.738 7.0391,6.766 16.4609,10.152 28.2422,10.152 8.125,0 14.0234,-1.082 17.6602,-3.222 l 0,-18.094 c -4.4454,3.34 -9.418,4.992 -14.8985,4.992 -6.1211,0 -10.957,-1.769 -14.543,-5.359 -3.5742,-3.567 -5.3671,-8.496 -5.3671,-14.801 0,-6.106 1.7265,-10.91 5.1328,-14.391 3.4062,-3.496 8.125,-5.226 14.0898,-5.226 5.3164,0 10.4961,1.66 15.586,4.996 l 0,-17.1525 z m 46.8672,-4.1641 c -11.5118,0 -20.5587,3.2227 -27.1446,9.668 -6.582,6.4456 -9.875,15.2186 -9.875,26.2696 0,11.418 3.4102,20.367 10.2461,26.816 6.8359,6.446 16.0664,9.668 27.7145,9.668 11.461,0 20.465,-3.222 26.981,-9.668 6.512,-6.449 9.785,-14.988 9.785,-25.597 0,-11.469 -3.363,-20.535 -10.086,-27.1878 -6.719,-6.6524 -15.93,-9.9688 -27.621,-9.9688 z m 0.551,56.0976 c -5.043,0 -8.9534,-1.726 -11.7386,-5.176 -2.789,-3.476 -4.1914,-8.379 -4.1914,-14.711 0,-13.257 5.3633,-19.89 16.066,-19.89 10.2,0 15.309,6.816 15.309,20.422 0,12.91 -5.156,19.355 -15.445,19.355 z m 117.676,-54.4179 -21.247,0 0,38.3749 c 0,10.703 -3.824,16.043 -11.464,16.043 -3.684,0 -6.723,-1.402 -9.09,-4.234 -2.395,-2.832 -3.594,-6.442 -3.594,-10.797 l 0,-39.3869 -21.293,0 0,69.0629 21.293,0 0,-10.934 0.277,0 c 5.086,8.422 12.477,12.613 22.192,12.613 15.285,0 22.926,-9.484 22.926,-28.453 l 0,-42.2889 z m 61.921,85.9139 c -2.734,1.082 -5.382,1.633 -7.89,1.633 -6.84,0 -10.246,-3.707 -10.246,-11.141 l 0,-7.343 15.769,0 0,-15.723 -15.769,0 0,-53.3399 -21.246,0 0,53.3399 -11.602,0 0,15.723 11.602,0 0,8.562 c 0,7.875 2.554,14.203 7.687,19.016 5.109,4.808 12.086,7.226 20.902,7.226 4.305,0 7.918,-0.461 10.793,-1.359 l 0,-16.594" id="path3058" style="fill:#80544e;fill-opacity:1;fill-rule:nonzero;stroke:none"/></g></g></svg>