<?xml version="1.0" encoding="UTF-8" standalone="no"?><svg xmlns:svg="http://www.w3.org/2000/svg" xmlns="http://www.w3.org/2000/svg" version="1.1" width="35.433155" height="35.433056" id="svg3366" xml:space="preserve"><defs id="defs3370"/><g transform="matrix(1.25,0,0,-1.25,-1.0429687,35.50825)" id="g3374"><g transform="scale(0.1,0.1)" id="g3376"><path d="m 150.078,284.066 c 31.09,0 59.832,-10.019 83.203,-26.996 -8.066,-5.797 -15.933,-11.918 -23.59,-18.281 -17.328,10.734 -37.742,16.93 -59.613,16.93 C 88.8242,255.719 38.9063,207.121 36.7734,146.387 29.75,141.859 23.4063,136.082 17.8906,130.254 L 9.84375,121.75 c -0.97656,6.723 -1.5,13.59 -1.5,20.586 0,78.262 63.47265,141.73 141.73425,141.73 z m 114.32,-57.972 c 17.227,-23.465 27.411,-52.43 27.411,-83.758 0,-78.2618 -63.469,-141.734437 -141.731,-141.734437 -21.375,0 -41.633,4.746097 -59.8046,13.222637 l 3.8594,3.6797 c 5.8047,5.5234 14.1762,11.1055 20.7692,15.6797 l 1.344,0.9102 c 10.688,-3.336 22.047,-5.1446 33.832,-5.1446 62.61,0 113.383,50.7774 113.383,113.3868 0,23.519 -7.168,45.375 -19.441,63.492 6.605,7.02 13.406,13.828 20.378,20.266 z M 70.3906,25.1289 C 41.1836,45.0313 19.7969,75.5625 11.8047,111.148 l 11.7773,-4.039 c 5.7969,-1.992 10.4688,-6.464 14.1172,-11.2457 7.4063,-9.5977 13.5899,-23.1641 18.3321,-34.2227 l 5.0195,-11.6992 c 3.1758,-7.7187 7.0039,-16.6055 9.3398,-24.8125" id="path3378" style="fill:#457e70;fill-opacity:1;fill-rule:evenodd;stroke:none"/><path d="m 271.574,264.891 6.332,-8.977 C 252.215,236.555 223.633,206.809 192.227,166.613 160.758,126.355 136.727,88.8008 120.195,53.8906 l -13.34,-9.0351 C 95.7891,37.1719 88.293,31.5156 84.3594,27.7695 82.8203,33.4258 79.3828,42.6406 74.0977,55.4844 l -5.043,11.7422 C 61.8672,84.0039 55.1641,96.4219 48.957,104.477 c -6.1445,8.046 -13.0898,13.398 -20.7734,16.039 12.9687,13.707 24.8281,20.527 35.6484,20.527 9.2188,0 19.4844,-12.539 30.793,-37.676 l 5.59,-12.5975 C 120.5,125 146.559,158.254 178.336,190.52 c 31.84,32.328 62.875,57.097 93.238,74.371" id="path3380" style="fill:#457e70;fill-opacity:1;fill-rule:nonzero;stroke:none"/></g></g></svg>