<?xml version="1.0" encoding="UTF-8" standalone="no"?><svg xmlns:svg="http://www.w3.org/2000/svg" xmlns="http://www.w3.org/2000/svg" id="svg3023" version="1.1" width="35.433155" height="35.433056" xml:space="preserve"><defs id="defs3027"/><g id="g3031" transform="matrix(1.25,0,0,-1.25,-1.0429687,35.508252)"><g id="g3033" transform="scale(0.1,0.1)"><path d="m 150.078,284.066 c 78.262,0 141.731,-63.468 141.731,-141.73 C 291.809,64.0742 228.34,0.601563 150.078,0.601563 71.8164,0.601563 8.34375,64.0742 8.34375,142.336 c 0,78.262 63.47265,141.73 141.73425,141.73 z m 0,-28.347 c 62.61,0 113.383,-50.778 113.383,-113.383 0,-62.6094 -50.773,-113.3868 -113.383,-113.3868 -62.6092,0 -113.3866,50.7774 -113.3866,113.3868 0,62.605 50.7774,113.383 113.3866,113.383" style="fill:#457e70;fill-opacity:1;fill-rule:evenodd;stroke:none" id="path3035"/><path d="m 8.34375,112.34 0,7.824 9.54685,10.09 c 11.9336,12.617 27.711,24.965 45.9414,24.965 17.5508,0 30.1407,-18.66 38.375,-34.793 19.324,28.73 41.746,55.375 66.023,80.031 28.625,29.066 60.774,56.523 96.336,76.754 l 11.176,6.355 16.067,-22.777 0,-12.141 -5.375,-4.05 C 255.508,221.289 227.137,188.273 203.398,157.887 176.832,123.906 151.496,86.8906 133.004,47.8242 l -1.656,-3.5 -16.446,-11.1406 C 108.309,28.6094 99.9375,23.0273 94.1328,17.5039 L 76.9023,1.10547 70.6797,24.0625 c -2.3008,8.4961 -6.3164,17.8281 -9.6289,25.8789 L 56.0313,61.6406 C 51.2891,72.6992 45.1055,86.2656 37.6992,95.8633 34.0508,100.645 29.3789,105.117 23.582,107.109 L 8.34375,112.34" style="fill:#ffffff;fill-opacity:1;fill-rule:evenodd;stroke:none" id="path3037"/><path d="m 271.574,264.891 6.332,-8.977 C 252.215,236.555 223.633,206.809 192.227,166.613 160.758,126.355 136.727,88.8008 120.195,53.8906 l -13.34,-9.0351 C 95.7891,37.1719 88.293,31.5156 84.3594,27.7695 82.8203,33.4258 79.3828,42.6406 74.0977,55.4844 l -5.043,11.7422 C 61.8672,84.0039 55.1641,96.4219 48.957,104.477 c -6.1445,8.046 -13.0898,13.398 -20.7734,16.039 12.9687,13.707 24.8281,20.527 35.6484,20.527 9.2188,0 19.4844,-12.539 30.793,-37.676 l 5.59,-12.5975 C 120.5,125 146.559,158.254 178.336,190.52 c 31.84,32.328 62.875,57.097 93.238,74.371" style="fill:#457e70;fill-opacity:1;fill-rule:nonzero;stroke:none" id="path3039"/></g></g></svg>