<?xml version="1.0" encoding="UTF-8" standalone="no"?>
<svg
   xmlns:svg="http://www.w3.org/2000/svg"
   xmlns="http://www.w3.org/2000/svg"
   viewBox="0 0 35.43307 35.433071"
   height="10mm"
   width="10mm"
   xml:space="preserve"
   version="1.1"><g
     transform="matrix(1.25,0,0,-1.25,0,35.433071)"
     id="g3427"><g
       transform="scale(0.1,0.1)"
       id="g3429"><path
         id="path3431"
         style="fill:#37a848;fill-opacity:1;fill-rule:evenodd;stroke:none"
         d="m 247.328,0.0664063 -242.703,0 0,283.4645937 141.5,0 101.203,-101.203 c 0.129,-60.703 0,-121.4999 0,-182.2615937 z M 227.844,162.18 l -101.41,0 0,101.863 -102.3207,0 0,-135.344 C 20.25,123.004 18.0156,116.078 18.0156,108.84 l 0,-68.09 c 0,-7.2344 2.2383,-14.168 6.0977,-19.8594 l 0,-1.3398 0.957,0 C 30.8477,11.8477 39.7461,6.72656 50.1523,6.72656 l 151.6997,0 c 10.406,0 19.32,5.12114 25.097,12.82424 l 0.895,0 0,1.2422 c 3.898,5.707 6.144,12.6797 6.144,19.957 l 0,68.09 c 0,7.277 -2.242,14.23 -6.144,19.945 l 0,33.395 z m -7.41,19.484 -74.512,74.516 0,-74.516 74.512,0" /><path
         id="path3433"
         style="fill:#bcbab9;fill-opacity:1;fill-rule:evenodd;stroke:none"
         d="m 50.1523,18.0664 151.6997,0 c 11.429,0 20.796,10.207 20.796,22.6836 l 0,68.09 c 0,12.48 -9.367,22.695 -20.796,22.695 l -34.602,0 0,3.094 c 0,10.566 -7.414,19.215 -16.477,19.215 l -35.128,0 c -9.059,0 -16.4692,-8.649 -16.4692,-19.215 l 0,-3.094 -21.543,0 c -0.5547,3.348 -1.289,5.383 -2.0742,5.383 l -23.5469,0 c -0.7851,0 -1.5117,-2.035 -2.0859,-5.383 -11.336,-0.14 -20.5703,-10.301 -20.5703,-22.695 l 0,-68.09 c 0,-12.4766 9.3672,-22.6836 20.7968,-22.6836" /><path
         id="path3435"
         style="fill:#929291;fill-opacity:1;fill-rule:evenodd;stroke:none"
         d="m 40.5234,26.6367 30.9336,0 c 2.1211,0 3.8672,1.8672 3.8672,4.1406 l 0,83.9177 c 0,2.278 -1.7461,4.149 -3.8672,4.149 l -30.9336,0 c -2.1171,0 -3.8593,-1.871 -3.8593,-4.149 l 0,-83.9177 c 0,-2.2734 1.7422,-4.1406 3.8593,-4.1406" /><path
         id="path3437"
         style="fill:#929291;fill-opacity:1;fill-rule:evenodd;stroke:none"
         d="m 131.488,121.531 c 25.059,0 45.387,-20.324 45.387,-45.3943 0,-25.0508 -20.328,-45.3789 -45.387,-45.3789 -25.062,0 -45.3903,20.3281 -45.3903,45.3789 0,25.0703 20.3283,45.3943 45.3903,45.3943" /><path
         id="path3439"
         style="fill:#488778;fill-opacity:1;fill-rule:evenodd;stroke:none"
         d="m 131.488,111.129 c 19.313,0 34.981,-15.672 34.981,-34.9923 0,-19.3203 -15.668,-34.9883 -34.981,-34.9883 -19.324,0 -34.9919,15.668 -34.9919,34.9883 0,19.3203 15.6679,34.9923 34.9919,34.9923" /></g></g></svg>