<?xml version="1.0" encoding="UTF-8" standalone="no"?><svg xmlns:svg="http://www.w3.org/2000/svg" xmlns="http://www.w3.org/2000/svg" version="1.1" width="35.433071" height="35.433071" xml:space="preserve"><g transform="matrix(1.25,0,0,-1.25,0,35.433065)" id="g3106"><g transform="matrix(0.1,0,0,0.1,-0.42694805,-0.00664677)" id="g3108"><path d="m 32.1211,273.473 0,-263.93784 227.7309,0 0,164.70684 -99.235,99.231 -128.4959,0" id="path3110" style="fill:#ffffff;fill-opacity:1;fill-rule:evenodd;stroke:none"/><path d="m 267.328,0.0664063 -242.703,0 0,32.1483937 18.8164,-16.3515 0,3.6875 c 68.3716,0 136.7496,0 205.1216,0 l 0,-3.6875 18.769,16.3047 -0.004,-32.1015937 z M 24.625,109.703 l 0,173.828 141.5,0 101.203,-101.203 c 0.051,-24.191 0.055,-48.402 0.047,-72.617 l -9.824,8.516 0,12.875 -9.707,0 0,31.078 -101.41,0 0,101.863 -102.3207,0 0,-137.445 C 37.6094,120.973 31.1172,115.332 24.625,109.703 z m 232.926,-36.4569 0,-4.668 2.894,2.3399 -2.894,2.3281 z m -213.4377,10.6055 0,-23.8086 -0.6719,-1.0157 0,2.2969 -11.8828,9.5938 11.8828,9.5429 0,4.3633 0.6719,-0.9726 z m 196.3207,97.8124 -74.512,74.516 0,-74.516 74.512,0" id="path3112" style="fill:#c1d18f;fill-opacity:1;fill-rule:evenodd;stroke:none"/><path d="m 226.77,42.4375 20.8594,0 0,78.7422 -20.8594,0 0,-78.7422 z" id="path3114" style="fill:#457e70;fill-opacity:1;fill-rule:nonzero;stroke:none"/><path d="m 123.855,99.4727 19.411,0 0,-8.3204 c 2.804,3.4805 5.613,5.9375 8.457,7.4219 2.84,1.4648 6.277,2.1988 10.304,2.1988 4.325,0 7.743,-0.8042 10.254,-2.4175 2.532,-1.6133 4.586,-4.0157 6.192,-7.2032 3.261,3.7227 6.242,6.2696 8.945,7.6055 2.687,1.3402 6,2.0152 9.957,2.0152 5.824,0 10.379,-1.8121 13.637,-5.4605 3.281,-3.6328 4.902,-9.3164 4.902,-17.0508 l 0,-35.8242 -20.836,0 0,32.4883 c 0,2.5859 -0.476,4.5117 -1.433,5.7578 -1.395,1.9609 -3.137,2.9492 -5.215,2.9492 -2.442,0 -4.43,-0.9336 -5.93,-2.7851 -1.496,-1.8711 -2.23,-4.8594 -2.23,-8.9844 l 0,-29.4258 -20.86,0 0,31.4258 c 0,2.5117 -0.137,4.1992 -0.398,5.0976 -0.453,1.4258 -1.219,2.5821 -2.301,3.461 -1.102,0.8789 -2.375,1.3242 -3.836,1.3242 -2.391,0 -4.348,-0.957 -5.879,-2.8438 -1.535,-1.9062 -2.305,-5.0234 -2.305,-9.3515 l 0,-29.1133 -20.836,0 0,57.0352" id="path3116" style="fill:#457e70;fill-opacity:1;fill-rule:nonzero;stroke:none"/><path d="m 45.4063,99.4727 24.6718,0 8.6367,-15.8946 10.0079,15.8946 22.9493,0 -18.504,-27.168 19.828,-29.8672 -24.2733,0 -10.0079,18.3711 -11.8085,-18.3711 -22.5313,0 19.7227,29.8672 -18.6914,27.168" id="path3118" style="fill:#457e70;fill-opacity:1;fill-rule:nonzero;stroke:none"/><path d="m 33.5195,37.625 -29.24997,25.4141 0,15.8906 29.24997,25.3553 0,-19.0662 -17.7773,-14.2813 17.7773,-14.3555 0,-18.957" id="path3120" style="fill:#457e70;fill-opacity:1;fill-rule:nonzero;stroke:none"/><path d="m 258.484,37.625 29.25,25.4141 0,15.8906 -29.25,25.3553 0,-19.0662 17.778,-14.2813 -17.778,-14.3555 0,-18.957" id="path3122" style="fill:#457e70;fill-opacity:1;fill-rule:nonzero;stroke:none"/></g></g></svg>