<?xml version="1.0" encoding="UTF-8" standalone="no"?><svg xmlns:svg="http://www.w3.org/2000/svg" xmlns="http://www.w3.org/2000/svg" version="1.1" width="35.433071" height="35.433071"   xml:space="preserve"><g transform="matrix(1.25,0,0,-1.25,0,35.433065)" id="g3085"><g transform="matrix(0.1,0,0,0.1,-0.11523855,-0.00664677)" id="g3087"><path d="m 267.328,0.0664063 -242.703,0 0,32.2929937 19.4883,0 0,-12.8086 203.7307,0 0,12.7812 19.488,0 -0.004,-32.2655937 z M 247.844,143.516 l 0,18.664 -101.41,0 0,101.863 -102.3207,0 0,-141.82 -19.4883,0 0,161.308 141.5,0 101.203,-101.203 c 0.027,-12.933 0.035,-25.875 0.043,-38.812 l -19.527,0 z m -7.41,38.148 -74.512,74.516 0,-74.516 74.512,0" id="path3089" style="fill:#99b455;fill-opacity:1;fill-rule:evenodd;stroke:none"/><path d="m 224.281,48.9961 0.024,83.7849 23.543,-0.015 -0.008,-83.7972 -23.559,0.0273 z m 60.336,20.7344 -0.015,15.4922 -27.414,26.2613 0.031,-18.8629 19.426,-15.2305 0,-0.2539 -19.446,-15.207 0.012,-18.8555 27.406,26.6563 z M 1.15234,69.7422 1.16016,85.2305 28.5469,111.48 28.5586,92.6211 9.10547,77.4219 9.11328,77.1563 28.5547,61.9297 28.5469,43.1016 1.15234,69.7422 z M 90.3398,79.0977 108.547,49 81.4922,48.9766 75.3945,61.8711 c -0.7109,1.4102 -1.4804,3.3867 -2.3828,5.9023 l -0.207,0.0079 C 72.0273,65.2539 71.543,63.7539 71.3203,63.1641 71.082,62.6016 68.9414,57.875 64.8203,48.9688 L 37.8984,48.9844 56.707,77.4961 39.0273,105.602 66.2305,105.57 72.3047,92.4258 c 0.8047,-1.5039 1.5976,-3.586 2.4219,-6.1719 l 0.2226,-0.0273 c 1.0703,3.2304 1.8321,5.3359 2.2617,6.3359 l 5.75,13.0235 25.7111,0 -18.3322,-26.4883 z m 101.0942,-30.1368 0.007,32.6563 c -0.007,2.7226 -0.464,4.7305 -1.453,6.0625 -0.98,1.3945 -2.578,2.0273 -4.804,2.0469 -2.145,-0.0118 -3.875,-0.8125 -5.071,-2.4532 -1.23,-1.6406 -1.828,-3.9375 -1.843,-6.8437 L 178.281,49 l -23.558,-0.0039 0.023,32.0273 c -0.004,5.8321 -1.98,8.6914 -5.941,8.6993 -2.367,-0.0079 -4.157,-0.8477 -5.403,-2.5157 -1.214,-1.6875 -1.828,-4.0859 -1.824,-7.2265 L 141.559,48.9883 118.047,49 l 0.008,56.582 23.543,0.023 -0.02,-8.9878 0.223,-0.0117 c 0.887,1.6093 2.269,3.2383 4.226,4.8595 1.922,1.656 4.114,2.965 6.551,3.98 2.442,1.012 5.059,1.508 7.926,1.532 3.976,-0.016 7.379,-0.809 10.113,-2.387 2.77,-1.582 5.051,-4.082 6.895,-7.4923 2.008,3.1723 4.629,5.5863 7.972,7.3123 3.309,1.707 7,2.551 11.043,2.543 5.926,0.024 10.504,-1.902 13.676,-5.785 3.141,-3.8672 4.75,-9.4571 4.742,-16.7774 l 0,-35.3906 -23.511,-0.0391" id="path3091" style="fill:#457e70;fill-opacity:1;fill-rule:nonzero;stroke:none"/></g></g></svg>