<?xml version="1.0" encoding="UTF-8" standalone="no"?><svg xmlns:svg="http://www.w3.org/2000/svg" xmlns="http://www.w3.org/2000/svg" version="1.1" width="35.433071" height="35.433071" xml:space="preserve"><g transform="matrix(1.25,0,0,-1.25,0,35.433065)" id="g3012"><g transform="matrix(0.1,0,0,0.1,1.5731505,-0.00664677)" id="g3014"><path d="m 45.1797,164.012 59.5313,0 0,18.3164 -59.5313,0 0,-18.3164 z" id="path3016" style="fill:#5f4e6a;fill-opacity:1;fill-rule:evenodd;stroke:none"/><path d="m 45.1797,204.766 59.5313,0 0,18.3164 -59.5313,0 0,-18.3164 z" id="path3018" style="fill:#5f4e6a;fill-opacity:1;fill-rule:evenodd;stroke:none"/><path d="m 45.1797,123.254 161.648,0 0,18.3164 -161.648,0 0,-18.3164 z" id="path3020" style="fill:#5f4e6a;fill-opacity:1;fill-rule:evenodd;stroke:none"/><path d="m 63.043,60.0586 7.4492,0 0.0351,-0.0156 0.0821,-0.043 0.0273,-0.0156 0.0156,-0.0117 0.0391,-0.0157 0.0234,-0.0156 0.0196,-0.0117 0.0429,-0.0234 0.0118,-0.0079 0.2773,-0.1679 0.0313,-0.0196 0.0078,-0.0078 0.5586,-0.3789 0.0625,-0.0469 0,0 0.082,-0.0625 2.8008,-2.1015 -1.9024,-1.25 c -2.1054,-1.3789 -4.4297,-2.4375 -6.9804,-2.4375 -0.5547,0 -2.0664,0.0469 -2.5782,0.3398 -0.4453,0.4571 -0.5234,2.6875 -0.5234,3.1758 l 0.0039,0.0352 0,0.2226 0.0078,0.1055 0,0.1016 0.0039,0.0703 0.0039,0.1054 0.0118,0.1641 0.0078,0.1055 0,0.1015 0.0078,0.0391 0.0039,0.0234 0,0.0508 0.0078,0.0547 0,0.0586 0.0078,0.0547 0,0.0156 0.0156,0.1992 0,0.0078 0.0078,0.0586 0.0118,0.0586 0,0.0508 0.0078,0.0273 0,0.0196 0.0117,0.0742 0.0039,0.0352 0.0039,0.0234 0.0117,0.1094 0.0039,0 0.0039,0.0586 0.0039,0.0078 0.0313,0.2031 0,0.0117 0.0117,0.0469 0.0235,0.1172 0.0039,0.0117 0.0195,0.0937 0.0039,0.0274 0.0937,0.3437 0.004,0.0196 0.0429,0.125 0.0039,0.0078 0.0117,0.0351 0,0.0039 0.0157,0.0313" id="path3022" style="fill:#5f4e6a;fill-opacity:1;fill-rule:evenodd;stroke:none"/><path d="m 247.328,0.0664063 -242.703,0 0,283.4645937 141.5,0 101.203,-101.203 c 0.051,-23.973 0.051,-47.965 0.047,-71.961 l -19.531,0 0,51.813 -101.41,0 0,101.863 -102.3207,0 0,-165.5625 L 23.1602,97.6328 23.1523,97.6211 22.2109,96.75 C 10.7656,85.7109 5.96875,71.168 5.96875,55.4688 5.96875,40.8203 10.8672,27.582 21.375,17.2852 31.957,6.89453 45.5117,2.33203 60.2383,2.33203 c 8.7617,0 18.039,1.02735 26.1836,4.56641 8.875,-3.14063 18.1641,-4.56641 27.5741,-4.56641 5.414,0 10.805,0.54297 16.102,1.67969 5.664,1.22266 11.097,3.27734 16.031,6.32808 l 0.191,0.1133 0.043,0.0274 0.145,0.0898 0.082,0.0547 0.101,0.0664 0.129,0.0781 0.059,0.0391 0.168,0.1094 0.019,0.0117 0.043,0.0273 0.293,0.1875 0.032,0.0235 0.066,0.0429 0.176,0.125 0.66,0.4532 0.047,0.0351 0.129,0.0938 0.207,0.1484 0.222,0.1641 0.25,0.1875 0.028,0.0195 0.027,0.0195 0.145,0.1133 0.07,0.0508 0.277,0.2109 0.145,0.1133 0.027,0.0195 0.172,0.1368 0.012,0.0117 0.156,0.125 0.051,0.039 0.117,0.0977 0.086,0.0742 0.086,0.0625 0.121,0.1016 0.371,0.3125 0.008,0.0039 0.031,0.0273 0.02,0.0157 0.254,0.2226 0.48,0.4219 0.027,0.0273 0.02,0.0157 c 0.371,0.332 0.73,0.6757 1.086,1.0195 l 0.074,0.0742 c 0.379,0.3711 0.75,0.7461 1.113,1.1328 l 0.004,0.0039 0.024,0.0235 0.004,0.0078 c 0.39,0.414 0.773,0.8359 1.144,1.2695 l 0.016,0.0234 0.734,0.879 0.094,0.1132 0.078,0.0938 0.059,0.0781 0.101,0.1367 0.027,0.0352 2.762,0 5.481,-15.46096 49.246,0 5.754,15.46096 8.121,0 0,21.8398 19.531,52.5078 C 247.359,62.625 247.328,31.3438 247.328,0.0664063 z M 220.434,181.664 l -74.512,74.516 0,-74.516 74.512,0" id="path3024" style="fill:#5f4e6a;fill-opacity:1;fill-rule:evenodd;stroke:none"/><path d="m 82.0313,23.6992 c -5.0352,-2.914 -12.3086,-4.3594 -21.793,-4.3594 -11.1094,0 -20.0899,3.3477 -26.957,10.0938 -6.8633,6.7187 -10.3047,15.3906 -10.3047,26.0352 0,12.2851 3.6797,21.9414 11.0273,29.0234 7.3711,7.082 17.2227,10.625 29.5547,10.625 8.5039,0 14.668,-1.1328 18.4727,-3.375 l 0,-18.9297 c -4.6485,3.4922 -9.8516,5.2266 -15.5821,5.2266 -6.4101,0 -11.4687,-1.8555 -15.2226,-5.6133 -3.7344,-3.7344 -5.6133,-8.8867 -5.6133,-15.4844 0,-6.3867 1.8086,-11.418 5.3711,-15.0547 3.5664,-3.664 8.5039,-5.4687 14.7383,-5.4687 5.5664,0 10.9882,1.7343 16.3086,5.2265 l 0,-17.9453 z M 91.9063,23 l 0,18.0664 c 3.6875,-2.2187 7.3476,-3.8555 10.9847,-4.9375 3.636,-1.0859 7.078,-1.6133 10.332,-1.6133 3.949,0 7.082,0.5274 9.343,1.6133 2.293,1.082 3.422,2.7188 3.422,4.9375 0,1.418 -0.504,2.6016 -1.539,3.5391 -1.035,0.9375 -2.363,1.7578 -4.004,2.457 -1.609,0.6992 -3.39,1.3516 -5.32,1.9023 -1.922,0.5782 -3.777,1.2071 -5.562,1.9063 -2.868,1.082 -5.395,2.2617 -7.586,3.4922 -2.1918,1.2539 -4.0239,2.6953 -5.5161,4.3594 -1.4687,1.6328 -2.6015,3.539 -3.375,5.707 -0.7929,2.168 -1.1796,4.7226 -1.1796,7.6836 0,4.0469 0.8945,7.539 2.6523,10.4531 1.7578,2.9141 4.1172,5.3008 7.0544,7.1524 2.942,1.8554 6.313,3.2304 10.09,4.0976 3.785,0.8672 7.735,1.3008 11.832,1.3008 3.203,0 6.43,-0.2422 9.727,-0.75 3.304,-0.4805 6.551,-1.2031 9.73,-2.1406 l 0,-17.2227 c -2.816,1.6602 -5.828,2.8906 -9.051,3.707 -3.234,0.8204 -6.386,1.2305 -9.492,1.2305 -1.472,0 -2.844,-0.1211 -4.121,-0.3867 -1.301,-0.2422 -2.453,-0.625 -3.445,-1.1328 -0.985,-0.4805 -1.758,-1.1328 -2.309,-1.9024 -0.578,-0.7695 -0.844,-1.6601 -0.844,-2.6484 0,-1.3008 0.411,-2.4336 1.25,-3.375 0.868,-0.9375 1.954,-1.7539 3.329,-2.4297 1.371,-0.6992 2.886,-1.3008 4.546,-1.832 1.665,-0.5508 3.325,-1.1094 4.989,-1.6602 2.961,-1.0351 5.636,-2.1679 8.043,-3.3984 2.386,-1.2266 4.457,-2.6485 6.168,-4.3125 1.711,-1.6328 3.035,-3.5625 3.949,-5.7774 0.914,-2.2148 1.375,-4.8398 1.375,-7.8984 0,-4.2891 -0.918,-7.9492 -2.793,-10.9844 -1.856,-3.0351 -4.313,-5.4922 -7.398,-7.3945 -3.083,-1.9023 -6.645,-3.3008 -10.672,-4.168 -4.02,-0.8672 -8.184,-1.3008 -12.52,-1.3008 -7.953,0 -15.2968,1.2305 -22.0897,3.6602 z m 137.1207,70.3555 -26.879,-72.2578 -25.406,0 -25.605,72.2578 23.847,0 12.547,-44.5352 c 1.422,-5.0351 2.239,-9.2969 2.477,-12.8359 l 0.293,0 c 0.312,3.3476 1.207,7.4922 2.601,12.4297 l 12.832,44.9414 23.293,0" id="path3026" style="fill:#5f4e6a;fill-opacity:1;fill-rule:nonzero;stroke:none"/></g></g></svg>