<?xml version="1.0" encoding="UTF-8" standalone="no"?>
<svg
   xmlns:svg="http://www.w3.org/2000/svg"
   xmlns="http://www.w3.org/2000/svg"
   viewBox="0 0 35.43307 35.433071"
   height="10mm"
   width="10mm"
   xml:space="preserve"
   version="1.1"><defs
     id="defs3483" /><g
     transform="matrix(1.25,0,0,-1.25,0,35.433071)"
     id="g3487"><g
       transform="scale(0.1,0.1)"
       id="g3489"><path
         id="path3491"
         style="fill:#a88a66;fill-opacity:1;fill-rule:evenodd;stroke:none"
         d="m 247.328,0.0664063 -242.703,0 0,283.4645937 141.5,0 101.203,-101.203 c 0.129,-60.703 0,-121.4999 0,-182.2615937 z M 227.844,162.18 l -101.41,0 0,101.863 -102.3207,0 0,-135.344 C 20.25,123.004 18.0156,116.078 18.0156,108.84 l 0,-68.09 c 0,-7.2344 2.2383,-14.168 6.0977,-19.8594 l 0,-1.3398 0.957,0 C 30.8477,11.8477 39.7461,6.72656 50.1523,6.72656 l 151.6997,0 c 10.406,0 19.32,5.12114 25.097,12.82424 l 0.895,0 0,1.2422 c 3.898,5.707 6.144,12.6797 6.144,19.957 l 0,68.09 c 0,7.277 -2.242,14.23 -6.144,19.945 l 0,33.395 z m -7.41,19.484 -74.512,74.516 0,-74.516 74.512,0" /><path
         id="path3493"
         style="fill:#bcbab9;fill-opacity:1;fill-rule:evenodd;stroke:none"
         d="m 50.1523,18.0586 151.6997,0 c 11.437,0 20.796,10.207 20.796,22.6914 l 0,68.086 c 0,12.484 -9.359,22.695 -20.796,22.695 l -34.594,0 0,3.098 c 0,10.566 -7.418,19.215 -16.485,19.215 l -35.121,0 c -9.062,0 -16.4801,-8.649 -16.4801,-19.215 l 0,-3.098 -21.5352,0 c -0.5625,3.356 -1.2929,5.387 -2.082,5.387 l -23.543,0 c -0.7929,0 -1.5195,-2.035 -2.0859,-5.391 -11.336,-0.132 -20.5703,-10.289 -20.5703,-22.691 l 0,-68.086 c 0,-12.4844 9.3593,-22.6914 20.7968,-22.6914" /><path
         id="path3495"
         style="fill:#929291;fill-opacity:1;fill-rule:evenodd;stroke:none"
         d="m 40.5313,26.6367 30.9257,0 c 2.1289,0 3.8672,1.8594 3.8672,4.1406 l 0,83.9177 c 0,2.282 -1.7383,4.141 -3.8672,4.141 l -30.9257,0 c -2.129,0 -3.8672,-1.859 -3.8672,-4.141 l 0,-83.9177 c 0,-2.2812 1.7382,-4.1406 3.8672,-4.1406" /><path
         id="path3497"
         style="fill:#929291;fill-opacity:1;fill-rule:evenodd;stroke:none"
         d="m 131.484,121.531 c 25.067,0 45.391,-20.328 45.391,-45.3943 0,-25.0625 -20.324,-45.3867 -45.391,-45.3867 -25.062,0 -45.3902,20.3242 -45.3902,45.3867 0,25.0663 20.3282,45.3943 45.3902,45.3943" /><path
         id="path3499"
         style="fill:#7e6b52;fill-opacity:1;fill-rule:evenodd;stroke:none"
         d="m 131.484,111.129 c 19.321,0 34.989,-15.6681 34.989,-34.9923 0,-19.3164 -15.668,-34.9844 -34.989,-34.9844 -19.32,0 -34.9879,15.668 -34.9879,34.9844 0,19.3242 15.6679,34.9923 34.9879,34.9923" /></g></g></svg>