<?xml version="1.0" encoding="UTF-8" standalone="no"?><svg xmlns:svg="http://www.w3.org/2000/svg" xmlns="http://www.w3.org/2000/svg" version="1.1" width="35.433056" height="35.433071" id="svg3004" xml:space="preserve"><defs id="defs3008"/><g transform="matrix(1.25,0,0,-1.25,-0.512695,36.109338)" id="g3012"><g transform="matrix(0.1,0,0,0.1,3.5107422e-7,2.9761339)" id="g3014"><path d="m 28.2227,215.906 103.9183,0 0,-34.328 140.472,0 c 0,0 0,0 0,-0.004 l 0,-161.6131 c 0,-0.0039 0,-0.0039 0,-0.0039 l -254.781,0 c 0,0 0,0 0,0.0039 l 0,161.6131 c 0,0.004 0,0.004 0,0.004 l 10.3907,0 0,34.328 z M 73.1836,91.6758 c 5.918,0 11.1953,-2.1016 15.2773,-6.3125 4.1329,-4.1328 6.2305,-9.3594 6.2305,-15.1914 0,-5.8321 -2.1719,-11.0235 -6.2812,-15.2031 -4.125,-4.129 -9.3907,-6.3008 -15.2266,-6.3008 -5.8359,0 -11.0977,2.1718 -15.25,6.3281 -4.082,4.1523 -6.2539,9.3437 -6.2539,15.1758 0,5.875 2.1484,11.1523 6.3281,15.3281 4.1328,4.0703 9.3789,6.1758 15.1758,6.1758" id="path3016" style="fill:#fef2b2;fill-opacity:1;fill-rule:evenodd;stroke:none"/><path d="m 42.1641,195.734 85.4409,0 0,16.61 -95.1558,0 0,-17.871 c 3.1055,0.824 6.3594,1.261 9.7149,1.261 z m 102.4529,0 104.883,0 c 20.938,0 38.066,-17.125 38.066,-38.062 l 0,-114.1993 C 287.566,22.5391 270.438,5.41016 249.5,5.41016 l -207.3359,0 C 21.2266,5.41016 4.10156,22.5391 4.10156,43.4727 l 0,114.1993 c 0,10.543 4.34766,20.125 11.33594,27.035 0,10.887 0,21.777 0,32.66 0,6.594 5.3906,11.985 11.9844,11.985 l 105.2111,0 c 6.594,0 11.984,-5.391 11.984,-11.985 0,-7.207 0,-14.426 0,-21.633 z m -102.4529,-17.007 207.3359,0 c 11.582,0 21.055,-9.473 21.055,-21.055 l 0,-114.1993 c 0,-11.5821 -9.473,-21.0547 -21.055,-21.0547 l -207.3359,0 c -11.5821,0 -21.0547,9.4726 -21.0547,21.0547 l 0,114.1993 c 0,11.582 9.4726,21.055 21.0547,21.055" id="path3018" style="fill:#5f4e6a;fill-opacity:1;fill-rule:evenodd;stroke:none"/><path d="m 73.1836,83.1719 c 3.6836,0 6.7617,-1.2383 9.2422,-3.8008 2.5195,-2.5195 3.7617,-5.6016 3.7617,-9.1992 0,-3.6016 -1.2812,-6.6406 -3.8047,-9.2031 -2.5195,-2.5196 -5.6015,-3.7969 -9.1992,-3.7969 -3.6016,0 -6.6797,1.2773 -9.1992,3.7969 -2.5196,2.5625 -3.8008,5.6015 -3.8008,9.2031 0,3.6797 1.2812,6.7578 3.8008,9.2812 2.5195,2.4805 5.5976,3.7188 9.1992,3.7188" id="path3020" style="fill:#5f4e6a;fill-opacity:1;fill-rule:nonzero;stroke:none"/></g></g></svg>