<?xml version="1.0" encoding="UTF-8" standalone="no"?><svg xmlns:svg="http://www.w3.org/2000/svg" xmlns="http://www.w3.org/2000/svg" version="1.1" width="35.433071" height="35.433071" xml:space="preserve"><defs id="defs8159"><clipPath id="clipPath8177"><path d="m 57.7734,122.055 c 9.8164,-1.649 14.5704,-24.2308 5.961,-29.8245 -1.4414,-0.9336 -7.1797,-3.8907 -7.5977,-5.625 -0.2031,-0.8399 2.918,-4.668 3.3789,-5.3399 0.4571,-0.6679 2.9024,-4.9726 3.7657,-5.0937 2.0546,-0.2735 7.8125,4.8984 9.4648,6.082 11.2227,8.1094 26.9648,-4.5508 24.2266,-17.2656 -0.3672,-1.7188 -2.5196,-8.4297 -1.4961,-9.793 0.7304,-0.9726 6.6014,-1.4765 7.8124,-1.7265 0.684,-0.1446 3.981,-0.9649 4.629,-0.5782 2.117,2.3438 2.32,10.4571 2.809,13.6914 1.441,9.6133 22.378,12.7735 26.91,5.3477 1.465,-2.3867 2.996,-4.7266 4.554,-7.0469 1.043,-1.5469 2.481,-4.7344 4.434,-3.6289 2.219,1.2617 8.152,4.3984 9.309,6.6719 0.648,1.2734 -4.707,7.5508 -5.403,8.5234 -5.426,7.5586 4.61,27.9958 13.453,25.8788 1.832,-0.437 3.676,-0.84 5.528,-1.219 0.867,-0.179 6.996,-1.9137 7.562,-0.746 1.356,2.821 4.696,12.137 -0.41,13.09 l -0.059,0.016 c -2.976,0.554 -5.957,1.086 -8.949,1.562 -8.031,1.293 -13.301,23.664 -6.629,27.789 1.512,0.938 3.008,1.907 4.5,2.899 0.762,0.5 6.188,3.469 5.707,4.761 -0.718,1.926 -5.484,10.981 -8.035,9.79 -3.289,-1.532 -6.449,-4.204 -9.351,-6.387 -6.66,-5.016 -25.754,7.453 -23.887,15.48 l 1.027,4.723 c 0.254,1.266 1.797,6.422 1.035,7.437 -1.628,1.622 -10.269,3.012 -12.476,2.352 -0.676,-0.469 -1.203,-4.187 -1.336,-4.926 l -1.07,-6.246 c -1.586,-9.863 -23.9847,-13.101 -28.7426,-5.601 -1.4726,2.324 -2.9961,4.605 -4.5468,6.871 -2.9063,4.246 -8.9649,-2.223 -11.4649,-4.27 -1.3047,-1.066 -0.5312,-2.098 0.3164,-3.336 l 3.9883,-5.707 c 5.3711,-7.551 -7.0469,-27.453 -16.9375,-25.734 -2.2305,0.387 -4.3086,1.23 -6.4687,1.633 -0.586,0.113 -1.9571,0.316 -2.4766,-0.164 -1.2695,-1.172 -1.9375,-7.243 -2.2969,-9.04 -0.1445,-0.718 -0.4062,-2.339 0.168,-2.976 1.2305,-1.363 7.2266,-2.012 9.0937,-2.324 z m 30.4922,-3.641 c 0,14.113 11.4532,25.566 25.5744,25.566 14.121,0 25.57,-11.453 25.57,-25.566 0,-14.125 -11.449,-25.5781 -25.57,-25.5781 -14.1212,0 -25.5744,11.4531 -25.5744,25.5781 z" id="path8179"/></clipPath><linearGradient x1="-6.58389" y1="0" x2="6.58389" y2="0" id="linearGradient8181" gradientUnits="userSpaceOnUse" gradientTransform="matrix(0.936366,0.351025,-0.351025,0.936366,11.3863,11.8416)" spreadMethod="pad"><stop id="stop8183" style="stop-color:#495363;stop-opacity:1" offset="0"/><stop id="stop8185" style="stop-color:#3775aa;stop-opacity:1" offset="1"/></linearGradient><clipPath id="clipPath8193"><path d="m 148.051,174.352 c 0.453,-0.668 2.902,-4.977 3.762,-5.09 2.058,-0.282 7.812,4.89 9.464,6.078 11.223,8.109 26.965,-4.551 24.231,-17.27 -0.371,-1.715 -2.524,-8.422 -1.496,-9.789 0.73,-0.972 6.597,-1.472 7.812,-1.73 0.68,-0.141 3.977,-0.961 4.629,-0.571 2.117,2.336 2.32,10.45 2.805,13.688 1.441,9.613 22.379,12.77 26.91,5.348 1.465,-2.387 2.996,-4.723 4.559,-7.047 1.039,-1.547 2.48,-4.735 4.433,-3.629 2.219,1.262 8.153,4.398 9.309,6.672 0.644,1.273 -4.707,7.547 -5.403,8.523 -5.425,7.559 4.606,27.996 13.454,25.879 1.832,-0.437 3.675,-0.84 5.527,-1.219 0.867,-0.175 6.996,-1.918 7.562,-0.746 1.352,2.824 4.696,12.137 -0.41,13.094 l -0.058,0.008 c -2.981,0.558 -5.957,1.086 -8.95,1.566 -8.031,1.289 -13.304,23.66 -6.632,27.789 1.515,0.938 3.011,1.907 4.5,2.895 0.765,0.508 6.187,3.472 5.711,4.765 -0.719,1.926 -5.485,10.981 -8.036,9.793 -3.293,-1.539 -6.449,-4.207 -9.351,-6.394 -6.664,-5.012 -25.754,7.457 -23.891,15.484 0.367,1.571 0.703,3.145 1.028,4.723 0.257,1.266 1.8,6.422 1.039,7.437 -1.633,1.621 -10.27,3.012 -12.481,2.352 -0.672,-0.469 -1.199,-4.188 -1.332,-4.926 -0.379,-2.078 -0.738,-4.16 -1.074,-6.246 -1.586,-9.867 -23.984,-13.105 -28.742,-5.601 -1.469,2.32 -2.996,4.605 -4.543,6.871 -2.907,4.242 -8.965,-2.227 -11.469,-4.274 -1.305,-1.062 -0.527,-2.094 0.32,-3.336 l 3.985,-5.703 c 5.371,-7.551 -7.043,-27.449 -16.934,-25.734 -2.23,0.386 -4.309,1.23 -6.469,1.633 -0.59,0.109 -1.961,0.316 -2.48,-0.165 -1.266,-1.171 -1.938,-7.242 -2.293,-9.039 -0.145,-0.722 -0.406,-2.339 0.164,-2.976 1.234,-1.363 7.227,-2.012 9.094,-2.324 9.82,-1.645 14.574,-24.231 5.961,-29.832 -1.442,-0.93 -7.18,-3.887 -7.594,-5.614 -0.203,-0.843 2.914,-4.672 3.379,-5.343 z m 54.32,11.57 c -14.117,0 -25.57,11.449 -25.57,25.57 0,14.125 11.453,25.574 25.57,25.574 14.121,0 25.574,-11.449 25.574,-25.574 0,-14.121 -11.453,-25.57 -25.574,-25.57 z" id="path8195"/></clipPath><linearGradient x1="-6.58392" y1="0" x2="6.58392" y2="0" id="linearGradient8197" gradientUnits="userSpaceOnUse" gradientTransform="matrix(0.936366,0.351025,-0.351025,0.936366,20.2398,21.1498)" spreadMethod="pad"><stop id="stop8199" style="stop-color:#495363;stop-opacity:1" offset="0"/><stop id="stop8201" style="stop-color:#3775aa;stop-opacity:1" offset="1"/></linearGradient></defs><g transform="matrix(1.25,0,0,-1.25,0,35.433072)" id="g8163"><g transform="matrix(0.1,0,0,0.1,-0.0828338,-0.77970885)" id="g8165"><path d="m 0.828125,7.79688 283.464995,0 0,283.465 -283.464995,0 0,-283.465 z" id="path8167" style="fill:#fffac6;fill-opacity:1;fill-rule:evenodd;stroke:none"/><path d="m 31.7148,38.6875 248.3712,0 c 0.785,0 1.426,-0.6367 1.426,-1.4062 l 0,-25.2969 c 0,-0.7735 -0.641,-1.4063 -1.426,-1.4063 -91.691,0 -183.3829,0 -275.07428,0 -0.77344,0 -1.40234,0.6797 -1.40234,1.5078 l 0,274.8911 c 0,0.828 0.6289,1.507 1.40234,1.507 l 25.30078,0 c 0.7695,0 1.4023,-0.679 1.4023,-1.507 l 0,-248.2895" id="path8169" style="fill:#3d3838;fill-opacity:1;fill-rule:evenodd;stroke:none"/><path d="m 7.04688,285.043 21.23042,0 0,-249.7969 249.7967,0 0,-21.2266 -271.02712,0 0,271.0235" id="path8171" style="fill:#fee702;fill-opacity:1;fill-rule:evenodd;stroke:none"/><g id="g8173"><g clip-path="url(#clipPath8177)" id="g8175"><path d="m 57.7734,122.055 c 9.8164,-1.649 14.5704,-24.2308 5.961,-29.8245 -1.4414,-0.9336 -7.1797,-3.8907 -7.5977,-5.625 -0.2031,-0.8399 2.918,-4.668 3.3789,-5.3399 0.4571,-0.6679 2.9024,-4.9726 3.7657,-5.0937 2.0546,-0.2735 7.8125,4.8984 9.4648,6.082 11.2227,8.1094 26.9648,-4.5508 24.2266,-17.2656 -0.3672,-1.7188 -2.5196,-8.4297 -1.4961,-9.793 0.7304,-0.9726 6.6014,-1.4765 7.8124,-1.7265 0.684,-0.1446 3.981,-0.9649 4.629,-0.5782 2.117,2.3438 2.32,10.4571 2.809,13.6914 1.441,9.6133 22.378,12.7735 26.91,5.3477 1.465,-2.3867 2.996,-4.7266 4.554,-7.0469 1.043,-1.5469 2.481,-4.7344 4.434,-3.6289 2.219,1.2617 8.152,4.3984 9.309,6.6719 0.648,1.2734 -4.707,7.5508 -5.403,8.5234 -5.426,7.5586 4.61,27.9958 13.453,25.8788 1.832,-0.437 3.676,-0.84 5.528,-1.219 0.867,-0.179 6.996,-1.9137 7.562,-0.746 1.356,2.821 4.696,12.137 -0.41,13.09 l -0.059,0.016 c -2.976,0.554 -5.957,1.086 -8.949,1.562 -8.031,1.293 -13.301,23.664 -6.629,27.789 1.512,0.938 3.008,1.907 4.5,2.899 0.762,0.5 6.188,3.469 5.707,4.761 -0.718,1.926 -5.484,10.981 -8.035,9.79 -3.289,-1.532 -6.449,-4.204 -9.351,-6.387 -6.66,-5.016 -25.754,7.453 -23.887,15.48 l 1.027,4.723 c 0.254,1.266 1.797,6.422 1.035,7.437 -1.628,1.622 -10.269,3.012 -12.476,2.352 -0.676,-0.469 -1.203,-4.187 -1.336,-4.926 l -1.07,-6.246 c -1.586,-9.863 -23.9847,-13.101 -28.7426,-5.601 -1.4726,2.324 -2.9961,4.605 -4.5468,6.871 -2.9063,4.246 -8.9649,-2.223 -11.4649,-4.27 -1.3047,-1.066 -0.5312,-2.098 0.3164,-3.336 l 3.9883,-5.707 c 5.3711,-7.551 -7.0469,-27.453 -16.9375,-25.734 -2.2305,0.387 -4.3086,1.23 -6.4687,1.633 -0.586,0.113 -1.9571,0.316 -2.4766,-0.164 -1.2695,-1.172 -1.9375,-7.243 -2.2969,-9.04 -0.1445,-0.718 -0.4062,-2.339 0.168,-2.976 1.2305,-1.363 7.2266,-2.012 9.0937,-2.324 z m 30.4922,-3.641 c 0,14.113 11.4532,25.566 25.5744,25.566 14.121,0 25.57,-11.453 25.57,-25.566 0,-14.125 -11.449,-25.5781 -25.57,-25.5781 -14.1212,0 -25.5744,11.4531 -25.5744,25.5781" id="path8187" style="fill:url(#linearGradient8181);fill-opacity:1;fill-rule:nonzero;stroke:none"/></g></g><g id="g8189"><g clip-path="url(#clipPath8193)" id="g8191"><path d="m 148.051,174.352 c 0.453,-0.668 2.902,-4.977 3.762,-5.09 2.058,-0.282 7.812,4.89 9.464,6.078 11.223,8.109 26.965,-4.551 24.231,-17.27 -0.371,-1.715 -2.524,-8.422 -1.496,-9.789 0.73,-0.972 6.597,-1.472 7.812,-1.73 0.68,-0.141 3.977,-0.961 4.629,-0.571 2.117,2.336 2.32,10.45 2.805,13.688 1.441,9.613 22.379,12.77 26.91,5.348 1.465,-2.387 2.996,-4.723 4.559,-7.047 1.039,-1.547 2.48,-4.735 4.433,-3.629 2.219,1.262 8.153,4.398 9.309,6.672 0.644,1.273 -4.707,7.547 -5.403,8.523 -5.425,7.559 4.606,27.996 13.454,25.879 1.832,-0.437 3.675,-0.84 5.527,-1.219 0.867,-0.175 6.996,-1.918 7.562,-0.746 1.352,2.824 4.696,12.137 -0.41,13.094 l -0.058,0.008 c -2.981,0.558 -5.957,1.086 -8.95,1.566 -8.031,1.289 -13.304,23.66 -6.632,27.789 1.515,0.938 3.011,1.907 4.5,2.895 0.765,0.508 6.187,3.472 5.711,4.765 -0.719,1.926 -5.485,10.981 -8.036,9.793 -3.293,-1.539 -6.449,-4.207 -9.351,-6.394 -6.664,-5.012 -25.754,7.457 -23.891,15.484 0.367,1.571 0.703,3.145 1.028,4.723 0.257,1.266 1.8,6.422 1.039,7.437 -1.633,1.621 -10.27,3.012 -12.481,2.352 -0.672,-0.469 -1.199,-4.188 -1.332,-4.926 -0.379,-2.078 -0.738,-4.16 -1.074,-6.246 -1.586,-9.867 -23.984,-13.105 -28.742,-5.601 -1.469,2.32 -2.996,4.605 -4.543,6.871 -2.907,4.242 -8.965,-2.227 -11.469,-4.274 -1.305,-1.062 -0.527,-2.094 0.32,-3.336 l 3.985,-5.703 c 5.371,-7.551 -7.043,-27.449 -16.934,-25.734 -2.23,0.386 -4.309,1.23 -6.469,1.633 -0.59,0.109 -1.961,0.316 -2.48,-0.165 -1.266,-1.171 -1.938,-7.242 -2.293,-9.039 -0.145,-0.722 -0.406,-2.339 0.164,-2.976 1.234,-1.363 7.227,-2.012 9.094,-2.324 9.82,-1.645 14.574,-24.231 5.961,-29.832 -1.442,-0.93 -7.18,-3.887 -7.594,-5.614 -0.203,-0.843 2.914,-4.672 3.379,-5.343 z m 54.32,11.57 c -14.117,0 -25.57,11.449 -25.57,25.57 0,14.125 11.453,25.574 25.57,25.574 14.121,0 25.574,-11.449 25.574,-25.574 0,-14.121 -11.453,-25.57 -25.574,-25.57" id="path8203" style="fill:url(#linearGradient8197);fill-opacity:1;fill-rule:nonzero;stroke:none"/></g></g><path d="m 202.371,237.066 c 14.125,0 25.574,-11.449 25.574,-25.57 0,-14.121 -11.449,-25.574 -25.574,-25.574 -14.117,0 -25.57,11.453 -25.57,25.574 0,14.121 11.453,25.57 25.57,25.57 z m 0,-8.25 c 9.57,0 17.32,-7.757 17.32,-17.32 0,-9.566 -7.75,-17.32 -17.32,-17.32 -9.562,0 -17.316,7.754 -17.316,17.32 0,9.563 7.754,17.32 17.316,17.32" id="path8205" style="fill:#5f4e6a;fill-opacity:1;fill-rule:evenodd;stroke:none"/><path d="m 176.93,260.188 c 4.758,-7.504 27.156,-4.266 28.742,5.601 0.336,2.086 0.695,4.168 1.074,6.246 0.133,0.738 0.656,4.457 1.332,4.926 2.211,0.66 10.848,-0.731 12.481,-2.352 0.761,-1.015 -0.782,-6.171 -1.039,-7.437 -0.325,-1.578 -0.661,-3.152 -1.028,-4.719 -1.863,-8.031 17.227,-20.5 23.891,-15.484 2.902,2.183 6.058,4.851 9.351,6.386 2.551,1.192 7.313,-7.863 8.036,-9.789 0.476,-1.293 -4.95,-4.261 -5.711,-4.765 -1.489,-0.988 -2.985,-1.957 -4.5,-2.895 -6.672,-4.129 -1.403,-26.5 6.632,-27.789 2.993,-0.48 5.969,-1.008 8.95,-1.566 l 0.054,-0.008 c 5.106,-0.957 1.766,-10.27 0.414,-13.094 -0.566,-1.172 -6.695,0.567 -7.566,0.746 -1.848,0.379 -3.691,0.778 -5.523,1.219 -8.848,2.117 -18.879,-18.32 -13.454,-25.879 0.696,-0.976 6.047,-7.25 5.403,-8.523 -1.156,-2.274 -7.09,-5.41 -9.309,-6.672 -1.953,-1.106 -3.394,2.082 -4.433,3.629 -1.563,2.32 -3.094,4.66 -4.555,7.047 -4.535,7.422 -25.473,4.265 -26.91,-5.348 -0.492,-3.238 -0.696,-11.348 -2.809,-13.688 -0.652,-0.39 -3.949,0.43 -4.629,0.571 -1.211,0.258 -7.086,0.758 -7.812,1.73 -1.028,1.367 1.125,8.074 1.496,9.789 2.734,12.719 -13.008,25.379 -24.231,17.27 -1.648,-1.188 -7.406,-6.36 -9.464,-6.078 -0.864,0.113 -3.309,4.422 -3.762,5.09 -0.465,0.668 -3.582,4.5 -3.379,5.343 0.414,1.727 6.156,4.684 7.594,5.618 8.613,5.597 3.859,28.183 -5.961,29.828 -1.867,0.312 -7.86,0.957 -9.094,2.324 -0.57,0.637 -0.313,2.254 -0.168,2.976 0.363,1.797 1.031,7.872 2.297,9.039 0.519,0.481 1.89,0.274 2.48,0.165 2.16,-0.403 4.239,-1.247 6.469,-1.633 9.887,-1.715 22.305,18.183 16.934,25.734 l -3.985,5.703 c -0.847,1.242 -1.625,2.274 -0.316,3.336 2.5,2.047 8.558,8.516 11.465,4.278 1.547,-2.27 3.074,-4.551 4.543,-6.875 z m 50.144,19.367 c -3.437,4.578 -15.988,6.84 -21.301,5.261 -5.355,-1.589 -6.234,-6.648 -7.078,-11.32 -0.39,-2.133 -0.757,-4.269 -1.105,-6.41 -1.227,-2.199 -11.445,-3.652 -13.906,-2.266 -1.473,2.313 -2.996,4.594 -4.543,6.86 -7.036,10.273 -16.571,3.019 -23.395,-2.551 -4.883,-3.988 -4.582,-9.445 -1.258,-14.305 l 3.907,-5.601 c 0.425,-3.067 -5.801,-13.153 -8.723,-13.149 -2.141,0.371 -4.195,1.211 -6.352,1.614 -11.738,2.199 -12.652,-7.399 -14.3,-15.645 -2.403,-12.051 7.07,-13.48 15.929,-14.973 2.555,-1.215 5.02,-12.976 2.856,-14.902 -4.27,-2.762 -9.754,-5.012 -11.09,-10.563 -1.199,-5.007 2.07,-8.214 4.578,-11.878 2.512,-3.668 4.309,-7.895 9.434,-8.579 6.128,-0.824 10.859,4.336 15.336,7.555 4.945,3.574 12.648,-3.308 11.441,-8.906 -1.129,-5.266 -3.754,-11.465 -0.043,-16.426 3.23,-4.312 8.141,-3.875 12.691,-4.832 4.375,-0.91 8.907,-1.875 12.371,1.953 4.274,4.735 3.934,12.039 4.829,17.961 1.109,1.899 9.765,3.176 12.019,2.004 1.465,-2.387 3,-4.73 4.567,-7.055 3.667,-5.453 8.296,-10.129 15.257,-6.179 4.301,2.441 10.274,5.554 12.571,10.09 3.293,6.492 -2.606,12.175 -6.047,16.984 -1.231,2.285 3.136,11.195 5.64,12.984 1.676,-0.394 3.36,-0.758 5.043,-1.101 5.825,-1.196 13.2,-3.305 16.578,3.726 4.497,9.352 4.782,22.61 -6.273,24.68 l -0.062,0.012 -3.961,0.738 -4.645,0.773 c -1.793,2 -3.773,10.407 -3.34,13.36 l 3.875,2.508 c 4.996,3.3 11.602,7.078 8.864,14.441 -2.633,7.07 -10.184,18.547 -19.168,14.352 -3.774,-1.758 -7.008,-4.379 -10.305,-6.883 -2.735,0.25 -9.965,4.965 -11.352,7.367 l 0.918,4.281 c 0.961,4.68 2.809,9.66 -0.457,14.02" id="path8207" style="fill:#5f4e6a;fill-opacity:1;fill-rule:evenodd;stroke:none"/><path d="m 113.84,143.98 c 14.121,0 25.57,-11.453 25.57,-25.57 0,-14.121 -11.449,-25.5741 -25.57,-25.5741 -14.1212,0 -25.5744,11.4531 -25.5744,25.5741 0,14.117 11.4532,25.57 25.5744,25.57 z m 0,-8.25 c 9.566,0 17.316,-7.757 17.316,-17.32 0,-9.566 -7.75,-17.316 -17.316,-17.316 -9.567,0 -17.3205,7.75 -17.3205,17.316 0,9.563 7.7535,17.32 17.3205,17.32" id="path8209" style="fill:#5f4e6a;fill-opacity:1;fill-rule:evenodd;stroke:none"/><path d="m 88.3984,167.102 c 4.7579,-7.5 27.1566,-4.262 28.7426,5.601 0.336,2.086 0.695,4.168 1.07,6.242 0.133,0.743 0.66,4.461 1.332,4.93 2.211,0.66 10.852,-0.727 12.48,-2.352 0.762,-1.015 -0.781,-6.171 -1.039,-7.437 -0.324,-1.578 -0.66,-3.152 -1.027,-4.723 -1.863,-8.027 17.227,-20.496 23.891,-15.48 2.902,2.183 6.062,4.855 9.351,6.387 2.551,1.191 7.317,-7.864 8.035,-9.793 0.481,-1.289 -4.945,-4.258 -5.711,-4.762 -1.488,-0.985 -2.984,-1.957 -4.496,-2.895 -6.672,-4.125 -1.402,-26.496 6.629,-27.785 2.992,-0.48 5.973,-1.012 8.949,-1.566 l 0.059,-0.012 c 5.106,-0.953 1.766,-10.273 0.41,-13.094 -0.566,-1.1677 -6.691,0.567 -7.562,0.746 -1.848,0.379 -3.696,0.782 -5.528,1.219 -8.843,2.121 -18.879,-18.3202 -13.453,-25.8788 0.699,-0.9726 6.051,-7.25 5.403,-8.5234 -1.153,-2.2735 -7.086,-5.4102 -9.309,-6.6719 -1.953,-1.1055 -3.395,2.082 -4.434,3.6328 -1.558,2.3164 -3.093,4.6563 -4.554,7.043 -4.535,7.4258 -25.469,4.2656 -26.91,-5.3477 -0.489,-3.2343 -0.692,-11.3476 -2.809,-13.6914 -0.648,-0.3906 -3.945,0.4336 -4.629,0.5782 -1.211,0.25 -7.082,0.7539 -7.8124,1.7265 -1.0274,1.3672 1.1289,8.0742 1.4961,9.793 2.7382,12.7148 -13.0039,25.3789 -24.2266,17.2656 -1.6523,-1.1836 -7.4102,-6.3555 -9.4648,-6.0781 -0.8633,0.1172 -3.3086,4.4219 -3.7657,5.0898 -0.4609,0.6719 -3.582,4.5 -3.375,5.3399 0.4141,1.7343 6.1524,4.6914 7.5938,5.6211 8.6094,5.5937 3.8554,28.1834 -5.961,29.8284 -1.8671,0.316 -7.8632,0.961 -9.0937,2.324 -0.5742,0.637 -0.3125,2.258 -0.168,2.976 0.3594,1.797 1.0274,7.868 2.2969,9.04 0.5195,0.48 1.8906,0.277 2.4766,0.164 2.1601,-0.403 4.2382,-1.246 6.4726,-1.633 9.8867,-1.715 22.3047,18.183 16.9297,25.734 l -3.9844,5.703 c -0.8476,1.242 -1.6211,2.274 -0.3164,3.34 2.5,2.047 8.5586,8.516 11.4649,4.27 1.5507,-2.262 3.0781,-4.547 4.5468,-6.871 z m 50.1406,19.363 c -3.434,4.578 -15.984,6.848 -21.297,5.262 -5.355,-1.586 -6.234,-6.645 -7.082,-11.317 -0.387,-2.133 -0.758,-4.265 -1.101,-6.41 -1.231,-2.199 -11.4457,-3.652 -13.9106,-2.262 -1.4687,2.309 -2.9961,4.59 -4.5429,6.856 -7.0313,10.273 -16.5703,3.023 -23.3946,-2.555 -4.8828,-3.98 -4.582,-9.437 -1.2539,-14.301 l 3.9063,-5.601 c 0.4219,-3.067 -5.8047,-13.153 -8.7227,-13.149 -2.1445,0.371 -4.1992,1.211 -6.3515,1.614 -11.7422,2.203 -12.6563,-7.403 -14.3047,-15.645 -2.3985,-12.051 7.0703,-13.48 15.9336,-14.973 2.5547,-1.214 5.0156,-12.972 2.8515,-14.8981 -4.2656,-2.7656 -9.7539,-5.0156 -11.0859,-10.5664 -1.2031,-5.0078 2.0664,-8.2148 4.5781,-11.875 2.5117,-3.6718 4.3086,-7.8945 9.4336,-8.582 6.1289,-0.8242 10.8555,4.3359 15.332,7.5547 4.9493,3.5703 12.6485,-3.3086 11.4454,-8.9102 -1.1329,-5.2578 -3.7579,-11.4609 -0.0469,-16.4179 3.2344,-4.3125 8.1445,-3.8789 12.6912,-4.8321 4.379,-0.914 8.91,-1.8789 12.371,1.9493 4.278,4.7382 3.938,12.0429 4.828,17.957 1.11,1.9023 9.77,3.1797 12.02,2.0078 1.469,-2.3867 3,-4.7344 4.566,-7.0547 3.668,-5.4492 8.297,-10.125 15.262,-6.1797 4.301,2.4414 10.274,5.5547 12.57,10.0899 3.289,6.4922 -2.609,12.1757 -6.046,16.9882 -1.231,2.2813 3.132,11.1915 5.64,12.9766 1.672,-0.3906 3.356,-0.7539 5.043,-1.0976 5.824,-1.1954 13.195,-3.3047 16.578,3.7226 4.492,9.3556 4.778,22.6136 -6.277,24.6836 l -0.063,0.012 -3.957,0.742 -4.648,0.769 c -1.789,2 -3.77,10.411 -3.34,13.36 l 3.879,2.508 c 4.992,3.3 11.598,7.082 8.863,14.441 -2.636,7.07 -10.183,18.547 -19.168,14.356 -3.777,-1.766 -7.008,-4.383 -10.304,-6.887 -2.739,0.25 -9.965,4.965 -11.352,7.367 l 0.918,4.281 c 0.957,4.684 2.809,9.664 -0.461,14.016" id="path8211" style="fill:#5f4e6a;fill-opacity:1;fill-rule:evenodd;stroke:none"/></g></g></svg>