<?xml version="1.0" encoding="UTF-8" standalone="no"?><svg xmlns:svg="http://www.w3.org/2000/svg" xmlns="http://www.w3.org/2000/svg" version="1.1" width="35.433052" height="35.433121" id="svg3293" xml:space="preserve"><defs id="defs3297"/><g transform="matrix(1.25,0,0,-1.25,-0.47607375,36.568375)" id="g3301"><g transform="scale(0.1,0.1)" id="g3303"><path d="m 145.539,292.547 c 6.934,0 13.742,-0.5 20.406,-1.461 l -19.246,-26.898 -1.16,0.011 c -62.6054,0 -113.3827,-50.777 -113.3827,-113.383 0,-34.429 15.3632,-65.2691 39.5937,-86.066 L 65.4648,33.8828 C 28.2383,59.4219 3.80859,102.27 3.80859,150.816 c 0,78.262 63.46871,141.731 141.73041,141.731 z m 50.891,-9.418 c 9.828,-3.785 19.133,-8.637 27.765,-14.406 l -24.547,0.871 -3.218,13.535 z m 46,-28.891 c 27.59,-25.859 44.843,-62.633 44.843,-103.422 0,-78.2613 -63.472,-141.73397 -141.734,-141.73397 -13.074,0 -25.723,1.78907 -37.746,5.10547 l 74.555,28.8555 -1.078,0.1484 c 45.105,14.9766 77.656,57.4996 77.656,107.6246 0,32.75 -13.906,62.266 -36.121,82.965 l 19.625,20.457" id="path3305" style="fill:#d34a37;fill-opacity:1;fill-rule:evenodd;stroke:none"/><path d="M 180.82,287.512 77.7305,143.438 161.371,141.898 91.9844,50.8438 86.3359,65.332 76.5508,17.293 l 49.7112,19.2422 -18.465,2.5664 108.687,129.2264 -74.32,1.871 80.949,84.379 -34.758,1.231 -7.535,31.703" id="path3307" style="fill:#d34a37;fill-opacity:1;fill-rule:evenodd;stroke:none"/></g></g></svg>