<?xml version="1.0" encoding="UTF-8" standalone="no"?><svg xmlns:svg="http://www.w3.org/2000/svg" xmlns="http://www.w3.org/2000/svg" version="1.1" width="35.433052" height="35.433121" id="svg3004" xml:space="preserve"><defs id="defs3008"/><g transform="matrix(1.25,0,0,-1.25,-0.47607375,36.568375)" id="g3012"><g transform="scale(0.1,0.1)" id="g3014"><path d="m 145.539,292.547 c 78.262,0 141.734,-63.469 141.734,-141.731 C 287.273,72.5547 223.801,9.08203 145.539,9.08203 67.2773,9.08203 3.80859,72.5547 3.80859,150.816 c 0,78.262 63.46871,141.731 141.73041,141.731 z m 0,-28.348 c 62.609,0 113.387,-50.777 113.387,-113.383 0,-62.609 -50.778,-113.3863 -113.387,-113.3863 -62.6054,0 -113.3827,50.7773 -113.3827,113.3863 0,62.606 50.7773,113.383 113.3827,113.383" id="path3016" style="fill:#d34a37;fill-opacity:1;fill-rule:evenodd;stroke:none"/><path d="m 166.992,292.547 28.383,-4.992 4.273,-17.961 43.301,-1.535 5.133,-7.922 -73.457,-76.578 71.672,-1.805 L 135.152,49.6055 182.348,43.043 94.6016,9.08203 62.5078,19.3711 82.0586,115.34 96.0156,79.5234 133.145,128.242 50.5195,129.766 166.992,292.547" id="path3018" style="fill:#ffffff;fill-opacity:1;fill-rule:evenodd;stroke:none"/><path d="M 180.82,287.512 77.7305,143.438 161.371,141.898 91.9844,50.8438 86.3359,65.332 76.5508,17.293 l 49.7112,19.2422 -18.465,2.5664 108.687,129.2264 -74.32,1.871 80.949,84.379 -34.758,1.231 -7.535,31.703" id="path3020" style="fill:#d34a37;fill-opacity:1;fill-rule:evenodd;stroke:none"/></g></g></svg>