<?xml version="1.0" encoding="UTF-8" standalone="no"?><svg xmlns:svg="http://www.w3.org/2000/svg" xmlns="http://www.w3.org/2000/svg" version="1.1" width="35.433071" height="35.433071" id="svg3004" xml:space="preserve"><defs id="defs3008"/><g transform="matrix(1.25,0,0,-1.25,-0.512695,36.109337)" id="g3012"><g transform="matrix(0.1,0,0,0.1,6.4545898e-6,2.9761331)" id="g3014"><path d="m 28.2227,215.906 103.9183,0 0,-34.328 140.472,0 c 0,0 0,0 0,-0.004 l 0,-161.6131 c 0,-0.0039 0,-0.0039 0,-0.0039 l -254.781,0 c 0,0 0,0 0,0.0039 l 0,161.6131 c 0,0.004 0,0.004 0,0.004 l 10.3907,0 0,34.328" id="path3016" style="fill:#fef2b2;fill-opacity:1;fill-rule:evenodd;stroke:none"/><path d="m 42.1641,195.734 85.4409,0 0,16.61 -95.1558,0 0,-17.871 c 3.1055,0.824 6.3594,1.261 9.7149,1.261 z m 102.4529,0 104.883,0 c 20.938,0 38.066,-17.125 38.066,-38.062 l 0,-114.1993 C 287.566,22.5391 270.438,5.41016 249.5,5.41016 l -207.3359,0 C 21.2266,5.41016 4.10156,22.5391 4.10156,43.4727 l 0,114.1993 c 0,10.543 4.34766,20.125 11.33594,27.035 0,10.887 0,21.777 0,32.66 0,6.594 5.3906,11.985 11.9844,11.985 l 105.2111,0 c 6.594,0 11.984,-5.391 11.984,-11.985 0,-7.207 0,-14.426 0,-21.633 z m -102.4529,-17.007 207.3359,0 c 11.582,0 21.055,-9.473 21.055,-21.055 l 0,-114.1993 c 0,-11.5821 -9.473,-21.0547 -21.055,-21.0547 l -207.3359,0 c -11.5821,0 -21.0547,9.4726 -21.0547,21.0547 l 0,114.1993 c 0,11.582 9.4726,21.055 21.0547,21.055" id="path3018" style="fill:#5f4e6a;fill-opacity:1;fill-rule:evenodd;stroke:none"/></g></g></svg>