<?xml version="1.0" encoding="UTF-8" standalone="no"?><svg xmlns:svg="http://www.w3.org/2000/svg" xmlns="http://www.w3.org/2000/svg" version="1.1" width="35.433052" height="35.433121" id="svg3004" xml:space="preserve"><defs id="defs3008"/><g transform="matrix(1.25,0,0,-1.25,-0.47607375,36.568378)" id="g3012"><g transform="scale(0.1,0.1)" id="g3014"><path d="m 145.539,292.547 c 78.262,0 141.734,-63.469 141.734,-141.731 C 287.273,72.5547 223.801,9.08203 145.539,9.08203 67.2773,9.08203 3.80859,72.5547 3.80859,150.816 c 0,78.262 63.46871,141.731 141.73041,141.731 z m 0,-28.348 c 62.609,0 113.387,-50.777 113.387,-113.383 0,-62.609 -50.778,-113.3863 -113.387,-113.3863 -62.6054,0 -113.3827,50.7773 -113.3827,113.3863 0,62.606 50.7773,113.383 113.3827,113.383" id="path3016" style="fill:#fbc707;fill-opacity:1;fill-rule:evenodd;stroke:none"/><path d="m 168.996,96.3633 c 3.844,-1.7578 7.496,-4.0039 10.891,-6.793 10.222,-8.3203 16.179,-19.4609 16.179,-32.7226 0,-13.0625 -6.332,-23.9532 -15.937,-32.4258 -10.414,-9.2813 -23.211,-13.3711 -37.082,-13.3711 -13.035,0 -25.215,3.4844 -35.25,11.9687 -9.8829,8.3243 -15.2579,19.3711 -15.2579,32.3203 0,12.6407 5.0039,23.6719 13.9609,32.4883 4.238,4.211 9.02,7.3399 14.18,9.5469 -3.067,4.191 -3.578,9.41 -3.578,14.648 -0.211,6.02 -2.571,15.758 -3.774,21.766 -3.543,17.703 -7.441,35.367 -11.367,53.039 -3.0352,14.164 -6.0587,28.293 -8.8829,42.445 -1.0898,5.454 -3.2422,14.375 -3.2422,19.86 0,13.035 6.7579,23.449 17.2031,30.816 11.531,8.223 26.008,10.629 39.887,10.629 13.867,0 27.992,-2.805 38.879,-11.89 9.55,-7.911 15.441,-18.305 15.441,-30.903 0,-7.469 -2.894,-19.43 -4.418,-26.828 -3.883,-18.887 -8.16,-37.73 -12.457,-56.543 -2.801,-12.121 -5.59,-24.293 -8.098,-36.476 -0.882,-4.305 -2.457,-10.75 -2.703,-15.125 -0.019,-5.915 -0.574,-11.954 -4.574,-16.4497" id="path3018" style="fill:#ffffff;fill-opacity:1;fill-rule:evenodd;stroke:none"/><path d="m 152.59,104.625 -14.719,0 c -3.023,0 -4.883,0.313 -5.578,0.934 -0.699,0.625 -1.012,2.8 -1.012,6.539 0,5.558 -5.187,31.472 -15.496,77.738 -7.824,36.504 -11.773,56.289 -11.773,59.301 0,7.527 3.718,13.968 11.23,19.265 7.516,5.348 18.051,7.996 31.692,7.996 13.019,0 22.933,-2.855 29.832,-8.617 6.894,-5.715 10.304,-12.363 10.304,-19.992 0,-5.246 -5.5,-31.988 -16.504,-80.18 -7.285,-31.515 -11.003,-49.691 -11.16,-54.468 0,-4.364 -0.386,-6.856 -1.16,-7.528 -0.699,-0.625 -2.637,-0.988 -5.656,-0.988 z m -9.531,-17.1875 c 11.316,0 20.687,-2.9609 27.89,-8.8789 7.285,-5.9219 10.926,-13.1914 10.926,-21.707 0,-7.9961 -3.715,-15.2657 -11.156,-21.8125 -7.356,-6.543 -16.582,-9.8125 -27.66,-9.8125 -10.614,0 -19.289,2.8593 -26.11,8.6211 -6.82,5.7148 -10.226,12.875 -10.226,21.5 0,8.5156 3.254,15.9921 9.761,22.4296 6.512,6.4415 15.34,9.6602 26.575,9.6602" id="path3020" style="fill:#fbc707;fill-opacity:1;fill-rule:nonzero;stroke:none"/></g></g></svg>