<?xml version="1.0" encoding="UTF-8" standalone="no"?><svg xmlns:svg="http://www.w3.org/2000/svg" xmlns="http://www.w3.org/2000/svg" version="1.1" width="35.433052" height="35.433121" id="svg3420" xml:space="preserve"><defs id="defs3424"/><g transform="matrix(1.25,0,0,-1.25,-0.47607375,36.568375)" id="g3428"><g transform="scale(0.1,0.1)" id="g3430"><path d="m 145.539,292.547 c 78.262,0 141.734,-63.469 141.734,-141.731 C 287.273,72.5547 223.801,9.08203 145.539,9.08203 67.2773,9.08203 3.80859,72.5547 3.80859,150.816 c 0,78.262 63.46871,141.731 141.73041,141.731 z m 55.66,-42.938 c 34.453,-19.457 57.727,-56.418 57.727,-98.793 0,-44.777 -25.981,-83.4879 -63.676,-101.9137 -1.996,-9.582 -7.535,-17.7929 -15.121,-24.4804 -10.414,-9.2813 -23.211,-13.3711 -37.082,-13.3711 -13.035,0 -25.215,3.4844 -35.25,11.9687 C 99.1875,30.2695 94,39.5938 92.8086,50.4414 56.7578,69.4258 32.1563,107.25 32.1563,150.816 c 0,42.364 23.2578,79.305 57.6875,98.77 0.1523,12.824 6.871,23.082 17.1952,30.363 11.531,8.223 26.008,10.629 39.887,10.629 13.867,0 27.992,-2.805 38.879,-11.89 9.086,-7.524 14.855,-17.297 15.394,-29.079" id="path3432" style="fill:#fbc707;fill-opacity:1;fill-rule:evenodd;stroke:none"/><path d="m 152.59,104.625 -14.719,0 c -3.023,0 -4.883,0.313 -5.578,0.934 -0.699,0.625 -1.012,2.8 -1.012,6.539 0,5.558 -5.187,31.472 -15.496,77.738 -7.824,36.504 -11.773,56.289 -11.773,59.301 0,7.527 3.718,13.968 11.23,19.265 7.516,5.348 18.051,7.996 31.692,7.996 13.019,0 22.933,-2.855 29.832,-8.617 6.894,-5.715 10.304,-12.363 10.304,-19.992 0,-5.246 -5.5,-31.988 -16.504,-80.18 -7.285,-31.515 -11.003,-49.691 -11.16,-54.468 0,-4.364 -0.386,-6.856 -1.16,-7.528 -0.699,-0.625 -2.637,-0.988 -5.656,-0.988 z m -9.531,-17.1875 c 11.316,0 20.687,-2.9609 27.89,-8.8789 7.285,-5.9219 10.926,-13.1914 10.926,-21.707 0,-7.9961 -3.715,-15.2657 -11.156,-21.8125 -7.356,-6.543 -16.582,-9.8125 -27.66,-9.8125 -10.614,0 -19.289,2.8593 -26.11,8.6211 -6.82,5.7148 -10.226,12.875 -10.226,21.5 0,8.5156 3.254,15.9921 9.761,22.4296 6.512,6.4415 15.34,9.6602 26.575,9.6602" id="path3434" style="fill:#fbc707;fill-opacity:1;fill-rule:nonzero;stroke:none"/></g></g></svg>