<?xml version="1.0" encoding="UTF-8" standalone="no"?><svg xmlns:svg="http://www.w3.org/2000/svg" xmlns="http://www.w3.org/2000/svg" version="1.1" width="35.433071" height="35.433071" xml:space="preserve"><g transform="matrix(1.25,0,0,-1.25,0,35.433065)" id="g3012"><g transform="matrix(0.1,0,0,0.1,1.5727118,-0.00664677)" id="g3014"><path d="m 45.1797,164.012 59.5313,0 0,18.3164 -59.5313,0 0,-18.3164 z" id="path3016" style="fill:#5f4e6a;fill-opacity:1;fill-rule:evenodd;stroke:none"/><path d="m 45.1797,204.766 59.5313,0 0,18.3164 -59.5313,0 0,-18.3164 z" id="path3018" style="fill:#5f4e6a;fill-opacity:1;fill-rule:evenodd;stroke:none"/><path d="m 79.5469,141.57 108.5121,0 -20.375,-5.832 0,-12.242 -34.95,0 -0.125,-0.242 -7.511,0 -0.125,0.242 -45.4261,0 0,18.074" id="path3020" style="fill:#5f4e6a;fill-opacity:1;fill-rule:evenodd;stroke:none"/><path d="m 79.5469,60.0586 5.8437,0 -5.8437,-8.6094 0,8.6094" id="path3022" style="fill:#5f4e6a;fill-opacity:1;fill-rule:evenodd;stroke:none"/><path d="m 247.328,0.0664063 -242.703,0 0,283.4645937 141.5,0 101.203,-101.203 c 0.129,-60.703 0,-121.4999 0,-182.2615937 z M 227.844,162.18 l -101.41,0 0,101.863 -102.3207,0 0,-127.723 -2.0195,-0.582 0,-12.242 -12.3438,0 0,-51.3554 12.3438,0 c 0,-3.957 0,-7.9101 0,-11.8633 0,-6.871 0,-13.7382 0.0039,-20.6093 l 0,-0.8008 -0.0039,-0.1758 0,-0.3594 -0.004,-0.1367 0,-0.1367 -0.0078,-0.5508 0,-0.2812 -0.0039,-0.0508 -0.0234,-1.9492 0,-1.2305 0.0117,-1.0898 0,-0.1016 0.0117,-0.5508 0.0078,-0.2969 0.0039,-0.1523 0.0079,-0.1484 0.0195,-0.6016 0.0195,-0.3047 0,-0.0469 0.0117,-0.25 0.0079,-0.1015 c 0.0351,-0.5743 0.082,-1.1446 0.1367,-1.711 l 0.0156,-0.1484 0.0469,-0.4258 0,-0.0312 c 0.2617,-2.1914 0.7148,-4.3243 1.5312,-6.2618 L 23.9219,21.6836 24,21.5078 l 0.1133,-0.2539 0,-1.7031 0.9336,0 c 0.8164,-1.2774 1.8476,-2.4141 3.164,-3.3633 l 0.1836,-0.125 0.1797,-0.1211 0.1914,-0.125 0.3828,-0.2383 0.1954,-0.1133 0.3554,-0.1953 0.0899,-0.0507 0.3789,-0.1875 0.2187,-0.1055 0.2188,-0.0977 0.2265,-0.0976 0.2227,-0.0938 0.0586,-0.0195 0.0039,-0.0039 0.4062,-0.1524 0.1836,-0.0664 0.0625,-0.0195 0.2383,-0.0781 0.25,-0.0821 0.0703,-0.0234 0.0625,-0.0195 0.5782,-0.1602 0.0507,-0.0117 0.6211,-0.1562 0.1797,-0.0391 0.2735,-0.0547 0.2421,-0.0508 0.043,-0.0039 0.2852,-0.0508 0.289,-0.0468 0.2891,-0.043 0.3047,-0.043 0.2656,-0.0312 0.0352,-0.0078 0.5937,-0.0547 0.0195,-0.0039 0.1329,-0.0157 0.1875,-0.0117 0.621,-0.0429 0.0196,-0.004 0.3281,-0.0156 c 0.4375,-0.0156 0.8906,-0.0273 1.3555,-0.0273 3.8906,0 7.7773,0 11.664,0 5.9571,0 14.3125,-0.7031 20.4883,2.1015 l 0,-2.1015 51.7112,0 3.34,6.2539 1.578,0 3.355,-6.2539 93.895,0 0,6.2539 2.707,0 0,52.5898 14.406,0 0,51.3554 -14.406,0 0,38.684 z m -7.41,19.484 -74.512,74.516 0,-74.516 74.512,0" id="path3024" style="fill:#5f4e6a;fill-opacity:1;fill-rule:evenodd;stroke:none"/><path d="m 184.691,89.1484 -12.343,0 0,17.3396 12.343,0 0,16.426 23.438,6.711 0,-23.137 17.113,0 0,-17.3396 -17.113,0 c 0,-19.6132 0,-39.2304 0,-58.8437 l -23.438,0 c 0,19.6133 0,39.2305 0,58.8437 z m -145.5894,0 -12.3438,0 0,17.3396 12.3438,0 0,16.426 23.4375,6.711 0,-23.137 17.1132,0 0,-17.3396 -17.1132,0 c 0,-19.7421 0,-39.2265 0,-58.8242 0,-0.0273 -21.6914,-0.0195 -23.4336,-0.0195 -0.0039,0 -0.0039,50.6797 -0.0039,58.8437 z M 168.641,106.488 143.5,69.5898 l 24.988,-39.2851 -27.07,0 -11.02,20.5469 c -0.89,1.6211 -1.953,3.9375 -3.203,6.9062 l -0.281,0 c -0.758,-2.0859 -1.777,-4.3164 -3.066,-6.707 l -11.078,-20.7461 -24.5044,0 0,3.6992 23.2384,34.2422 -24.1759,38.2419 27.2189,0 10.871,-21.3552 c 1.445,-2.8164 2.461,-5.207 3.047,-7.1367 l 0.305,0 c 0.789,2.3359 1.855,4.75 3.199,7.2891 l 11.074,21.2028 25.598,0" id="path3026" style="fill:#5f4e6a;fill-opacity:1;fill-rule:nonzero;stroke:none"/></g></g></svg>