<?xml version="1.0" encoding="UTF-8" standalone="no"?><svg xmlns:svg="http://www.w3.org/2000/svg" xmlns="http://www.w3.org/2000/svg" version="1.1" width="35.43306" height="35.433144" id="svg3004" xml:space="preserve"><defs id="defs3008"/><g transform="matrix(1.25,0,0,-1.25,-0.64306625,35.5225)" id="g3012"><g transform="scale(0.1,0.1)" id="g3014"><path d="m 146.875,284.18 c 78.262,0 141.734,-63.473 141.734,-141.735 C 288.609,64.1836 225.137,0.714844 146.875,0.714844 82.0039,0.714844 27.3086,44.3359 10.4844,103.832 L 27.5586,75.1172 C 41.3008,52 62.1328,26.5117 91.6094,26.5117 c 8.1406,0 15.9846,2.7227 23.3706,7.1172 10.122,-2.9648 20.817,-4.5664 31.895,-4.5664 17.797,0 34.629,4.1133 49.617,11.4258 5.477,-1.875 10.973,-2.9727 16.367,-2.9727 28.727,0 47.172,27.668 58.528,50.5625 l 14.218,28.6599 -28.281,0 c 1.914,8.266 2.938,16.864 2.938,25.707 0,7.907 -0.817,15.618 -2.356,23.067 l 18.508,-2.43 -10.266,30.211 c -8.246,24.273 -24.078,46.973 -52.222,46.973 -2.906,0 -5.778,-0.223 -8.606,-0.649 -17.074,10.297 -37.062,16.215 -58.445,16.215 -6.047,0 -11.98,-0.473 -17.773,-1.387 l -3.243,21.817 -26.6481,-20.028 c -12.1328,-9.121 -26.2656,-21.246 -34.4726,-35.636 -19.3594,-20.34 -31.25,-47.864 -31.25,-78.153 0,-12.933 2.1836,-25.355 6.1758,-36.937 l -30.20316,2.16 c -2.8125,11.125 -4.31641,22.773 -4.31641,34.777 0,78.262 63.46877,141.735 141.73047,141.735" id="path3016" style="fill:#d34a37;fill-opacity:1;fill-rule:evenodd;stroke:none"/><path d="m 147.977,99.8125 -3.122,-4.4023 C 123.203,62.6797 105.457,46.3516 91.6094,46.3516 c -15.9766,0 -31.5899,12.9961 -46.9961,38.9062 2.0625,-0.1484 3.6211,-0.2109 4.543,-0.2109 18.1757,0 38.4101,13.8359 60.7657,41.5981 l 5.613,7.031 -7.312,7.949 c -20.3753,21.574 -30.5277,39.965 -30.5277,55.086 0,12.352 11.1445,26.906 33.4377,43.66 3.191,-21.512 12.703,-42.453 28.539,-62.832 l 6.25,-7.875 4.969,6.457 c 23.136,29.531 44.156,44.301 63.035,44.301 14.691,0 25.84,-11.145 33.437,-33.512 -2.203,0.289 -3.836,0.43 -4.754,0.43 -6.671,0 -16.043,-4.469 -28.117,-13.422 -12.062,-8.945 -22.215,-19.02 -30.527,-30.242 l -6.242,-8.516 6.039,-5.824 c 22.289,-21.648 45.57,-32.4376 69.851,-32.4376 -13.07,-26.3437 -26.629,-39.539 -40.754,-39.539 -12.769,0 -31.234,11.207 -55.3,33.7109 l -9.582,8.7422" id="path3018" style="fill:#d34a37;fill-opacity:1;fill-rule:nonzero;stroke:none"/></g></g></svg>