<?xml version="1.0" encoding="UTF-8" standalone="no"?><svg xmlns:svg="http://www.w3.org/2000/svg" xmlns="http://www.w3.org/2000/svg" version="1.1" width="36.25" height="36.25" id="svg3004" xml:space="preserve"><defs id="defs3008"/><g transform="matrix(1.25,0,0,-1.25,0,36.25)" id="g3012"><g transform="scale(0.1,0.1)" id="g3014"><path d="m 146.875,284.18 c 78.262,0 141.734,-63.473 141.734,-141.735 C 288.609,64.1836 225.137,0.714844 146.875,0.714844 68.6133,0.714844 5.14453,64.1836 5.14453,142.445 c 0,78.262 63.46877,141.735 141.73047,141.735 z m 0,-28.348 c 62.609,0 113.387,-50.777 113.387,-113.387 0,-62.6052 -50.778,-113.3825 -113.387,-113.3825 -62.6094,0 -113.3867,50.7773 -113.3867,113.3825 0,62.61 50.7773,113.387 113.3867,113.387" id="path3016" style="fill:#d34a37;fill-opacity:1;fill-rule:evenodd;stroke:none"/><path d="m 204.309,137.441 c 13.964,-11.898 30.406,-20.703 49.304,-20.703 l 31.992,0 -14.218,-28.6599 C 260.031,65.1836 241.586,37.5156 212.859,37.5156 c -21.511,0 -44.683,17.3907 -61.531,32.3711 C 136.375,49.4453 115.27,26.5117 91.6094,26.5117 62.1328,26.5117 41.3008,52 27.5586,75.1172 L 8.14844,107.758 46.0273,105.051 c 1.0196,-0.074 2.1055,-0.164 3.129,-0.164 13.4023,0 29.8984,16.238 40.1328,28.008 -15.6836,17.457 -31.4336,40.089 -31.4336,63.816 0,24.988 22.9843,45.715 41.3554,59.523 l 26.6481,20.028 4.899,-32.977 c 2.219,-14.941 8.023,-28.711 15.93,-41.277 17.722,19.703 40.804,38.258 67.238,38.258 28.144,0 43.976,-22.7 52.222,-46.973 l 10.266,-30.211 -31.637,4.156 c -0.66,0.086 -1.367,0.184 -2.047,0.239 -4.144,-0.762 -13.277,-7.168 -16.417,-9.5 -8.129,-6.024 -15.543,-12.844 -22.004,-20.536" id="path3018" style="fill:#ffffff;fill-opacity:1;fill-rule:evenodd;stroke:none"/><path d="m 147.977,99.8125 -3.122,-4.4023 C 123.203,62.6797 105.457,46.3516 91.6094,46.3516 c -15.9766,0 -31.5899,12.9961 -46.9961,38.9062 2.0625,-0.1484 3.6211,-0.2109 4.543,-0.2109 18.1757,0 38.4101,13.8359 60.7657,41.5981 l 5.613,7.031 -7.312,7.949 c -20.3753,21.574 -30.5277,39.965 -30.5277,55.086 0,12.352 11.1445,26.906 33.4377,43.66 3.191,-21.512 12.703,-42.453 28.539,-62.832 l 6.25,-7.875 4.969,6.457 c 23.136,29.531 44.156,44.301 63.035,44.301 14.691,0 25.84,-11.145 33.437,-33.512 -2.203,0.289 -3.836,0.43 -4.754,0.43 -6.671,0 -16.043,-4.469 -28.117,-13.422 -12.062,-8.945 -22.215,-19.02 -30.527,-30.242 l -6.242,-8.516 6.039,-5.824 c 22.289,-21.648 45.57,-32.4376 69.851,-32.4376 -13.07,-26.3437 -26.629,-39.539 -40.754,-39.539 -12.769,0 -31.234,11.207 -55.3,33.7109 l -9.582,8.7422" id="path3020" style="fill:#d34a37;fill-opacity:1;fill-rule:nonzero;stroke:none"/></g></g></svg>