<?xml version="1.0" encoding="UTF-8" standalone="no"?><svg xmlns:svg="http://www.w3.org/2000/svg" xmlns="http://www.w3.org/2000/svg" version="1.1" width="35.433071" height="35.433071" xml:space="preserve"><g transform="matrix(1.25,0,0,-1.25,-0.33816877,35.44137)" id="g3012"><g transform="matrix(0.1,0,0,0.1,0.84334611,-2.7695898e-6)" id="g3014"><path d="m 257.328,0.0664063 -242.703,0 0,3.7226537 C 28.7344,-0.375 42.3711,7.42578 54.3906,19.5508 l 183.4534,0 0,49.8711 c 6.98,-0.9531 13.633,-0.9336 19.511,0.5273 -0.011,-23.2929 -0.027,-46.5898 -0.027,-69.8827937 z M 14.625,60.8359 l 0,222.6951 141.5,0 101.203,-101.203 c 0.039,-19.019 0.047,-38.055 0.051,-57.086 -5.883,1.942 -12.559,2.961 -19.535,3.367 l 0,33.571 -84.977,0 c -4.527,7.328 -8.363,15.215 -11.558,23.574 5.992,25.191 18.89,94.543 -18.973,95.07 -11.246,0.188 -22.6602,-4.273 -25.9805,-16.094 l -0.1758,-0.687 -62.0664,0 0,-189.6094 C 27.1797,70.375 20.4922,65.9102 14.625,60.8359 z m 215.809,120.8281 -74.512,74.516 0,-74.516 74.512,0" id="path3016" style="fill:#f3917a;fill-opacity:1;fill-rule:evenodd;stroke:none"/><path d="m 123.246,263.375 c -2.191,-2.402 -2.625,-15.828 -2.66,-18.348 0,-12.148 1.902,-24.429 4.777,-36.32 3.133,11.02 13.789,47.395 -2.117,54.668 z M 66.6523,74.1328 c -14.4414,-25.5937 -30.9531,-46.5781 -49,-51.5078 1.5274,15.3828 34.3204,48.3281 49,51.5078 z M 132.43,185.223 c 10.625,-29.168 28.367,-53.11 55.375,-68.918 19.816,2.851 62.644,9.484 77.437,-5.075 6.391,-6.261 4.16,-19.3237 0.649,-26.3237 C 250.559,64.2461 198.102,90.5469 180.105,100.727 147.598,95.8789 115.395,88.1055 84.1445,77.9258 72.8672,57.957 41.3867,-0.625 13.3945,13.3867 6.88672,16.6602 1.23047,18.8594 3.05078,27.8008 9.01563,56.9805 48.5742,72.2695 72.4766,84.9023 c 17.8672,34.3247 32.1914,73.6837 41.8594,93.6057 -6.043,22.961 -16.0001,61.078 -9.789,83.941 2.207,7.848 10.473,9.992 17.664,9.871 29.156,-0.406 14.426,-70.117 10.219,-87.097 z m 120.008,-82.461 c -12.032,3.855 -27.653,3.023 -41.403,1.683 15.211,-6.8552 39.258,-16.1559 49.399,-11.3591 8.39,4.0196 -4.532,8.6091 -7.996,9.6761 z M 123.617,160.73 C 112.5,148.293 100.531,111.797 90.9922,91.9414 c 23.1988,9.0356 47.4218,15.2776 71.8438,20.0746 -16.758,13.089 -28.875,30.175 -39.219,48.714" id="path3018" style="fill:#eb3826;fill-opacity:1;fill-rule:evenodd;stroke:none"/></g></g></svg>