<?xml version="1.0" encoding="UTF-8" standalone="no"?><svg xmlns:svg="http://www.w3.org/2000/svg" xmlns="http://www.w3.org/2000/svg" version="1.1" width="35.433125" height="35.433094" id="svg3239" xml:space="preserve"><defs id="defs3243"/><g transform="matrix(1.25,0,0,-1.25,-1.234375,35.7495)" id="g3247"><g transform="scale(0.1,0.1)" id="g3249"><path d="m 151.609,285.996 c 78.262,0 141.731,-63.473 141.731,-141.734 C 293.34,66 229.871,2.53125 151.609,2.53125 73.3477,2.53125 9.875,66 9.875,144.262 c 0,78.261 63.4727,141.734 141.734,141.734 z m 64.465,-48.461 c 29.555,-20.469 48.918,-54.613 48.918,-93.273 0,-56.2073 -40.933,-102.8636 -94.605,-111.8167 -3.676,-2.7773 -7.465,-5.414 -11.379,-7.9062 -11.129,-7.043 -23.676,-11.8321 -36.981,-11.8321 -8.597,0 -16.859,2.1055 -23.8864,7.375 -7.2461,5.5743 -11.5625,13.4141 -11.5625,22.6172 0,2.5469 0.3242,5.3008 0.8477,8.1055 C 57.7148,71.25 38.2227,105.48 38.2227,144.262 c 0,60.843 47.957,110.508 108.1253,113.265 2.031,3.707 4.855,6.989 8.351,9.758 7.231,5.852 15.864,8.535 25.137,8.535 9.281,0 17.98,-2.687 25.102,-8.586 7.429,-6.019 11.695,-14.324 11.695,-23.918 0,-1.992 -0.195,-3.918 -0.559,-5.781" id="path3251" style="fill:#1c63b7;fill-opacity:1;fill-rule:evenodd;stroke:none"/><path d="M 187.973,198.559 143.012,68.8594 c -3.098,-8.6953 -4.547,-13.8633 -4.547,-15.5899 0,-1.957 0.676,-3.5976 2.129,-4.7734 1.351,-1.25 2.996,-1.8789 4.933,-1.8789 2.414,0 5.223,1.0156 8.219,2.9726 8.703,5.5625 17.5,13.3946 26.297,23.6563 l 7.93,-4.3867 c -10.34,-12.6875 -22.532,-23.418 -36.551,-32.3516 -10.149,-6.418 -20.016,-9.6289 -29.395,-9.6289 -6.289,0 -11.312,1.4883 -15.281,4.4649 -3.969,3.0507 -5.996,6.8164 -5.996,11.3554 0,4.6211 1.934,12.2227 5.711,22.793 l 29.684,82.7848 c 4.738,13.469 7.062,21.93 7.062,25.453 0,2.668 -1.16,4.782 -3.484,6.583 -2.418,1.722 -5.508,2.66 -9.477,2.66 -3.387,0 -10.441,-0.707 -20.984,-2.114 l 0,7.125 78.711,10.575 z m -8.137,63.086 c 6.387,0 11.801,-1.797 16.152,-5.399 4.352,-3.527 6.473,-7.914 6.473,-12.93 0,-5.089 -2.219,-9.394 -6.57,-13.074 -4.45,-3.687 -9.774,-5.484 -16.055,-5.484 -6.188,0 -11.602,1.797 -16.148,5.484 -4.547,3.68 -6.77,7.985 -6.77,13.074 0,5.016 2.223,9.403 6.668,12.93 4.453,3.602 9.867,5.399 16.25,5.399" id="path3253" style="fill:#1c63b7;fill-opacity:1;fill-rule:nonzero;stroke:none"/></g></g></svg>