<?xml version="1.0" encoding="UTF-8" standalone="no"?><svg xmlns:svg="http://www.w3.org/2000/svg" xmlns="http://www.w3.org/2000/svg" version="1.1" width="35.433071" height="35.433071" xml:space="preserve"><defs id="defs3306"><clipPath id="clipPath3318"><path d="M 38.043,65.7305 C 37.5,61.5781 35.8945,58.0156 32.9766,56.1211 31.2813,55.0234 24.5195,51.5391 24.0313,49.5 23.793,48.5117 27.4648,44 28.0078,43.2109 c 0.5391,-0.789 3.418,-5.8593 4.4336,-5.9961 2.4258,-0.3242 9.207,5.7657 11.1484,7.1602 13.2188,9.5508 31.7579,-5.3594 28.5352,-20.3359 -0.4375,-2.0235 -2.9727,-9.9258 -1.7617,-11.5352 0.8555,-1.1406 7.7734,-1.7344 9.2031,-2.0312 0.7969,-0.168 4.6836,-1.13676 5.4492,-0.67973 2.4883,2.75783 2.7305,12.31253 3.3047,16.12503 1.6992,11.3203 26.3597,15.039 31.6997,6.2968 1.718,-2.8125 3.523,-5.5664 5.359,-8.2968 1.226,-1.8242 2.926,-5.5782 5.223,-4.2774 2.617,1.4883 9.605,5.1797 10.964,7.8633 0.762,1.4961 -5.543,8.8867 -6.363,10.0313 -4.836,6.7421 0.754,22.1757 8.281,28.1953 l -30.14,0 c -5.453,-5.4883 -13.008,-8.8907 -21.3557,-8.8907 -8.3477,0 -15.9024,3.4024 -21.3555,8.8907 l -32.5898,0 z m 123.187,0 c 2.293,-0.4727 4.852,-0.8203 5.235,-0.0274 l 0.012,0.0274 -5.247,0 z" id="path3320"/></clipPath><linearGradient x1="-5.9697299" y1="0" x2="5.9697299" y2="0" id="linearGradient3322" gradientUnits="userSpaceOnUse" gradientTransform="matrix(0.936366,0.351025,-0.351025,0.936366,9.52485,3.77012)" spreadMethod="pad"><stop id="stop3324" style="stop-color:#495363;stop-opacity:1" offset="0"/><stop id="stop3326" style="stop-color:#3775aa;stop-opacity:1" offset="1"/></linearGradient><clipPath id="clipPath3334"><path d="m 248.348,217.867 c 0.316,3.414 1.414,6.192 3.484,7.469 1.785,1.105 3.551,2.25 5.301,3.41 0.902,0.598 7.289,4.09 6.722,5.613 -0.843,2.27 -6.457,12.934 -9.464,11.532 -3.875,-1.809 -7.594,-4.95 -11.012,-7.524 -7.844,-5.906 -30.328,8.781 -28.133,18.235 0.43,1.847 0.828,3.703 1.207,5.562 0.305,1.488 2.121,7.563 1.227,8.758 -1.922,1.91 -12.094,3.547 -14.7,2.769 -0.796,-0.554 -1.41,-4.933 -1.566,-5.804 -0.449,-2.446 -0.875,-4.895 -1.269,-7.356 -1.864,-11.613 -28.247,-15.433 -33.852,-6.593 -1.727,2.734 -3.527,5.425 -5.352,8.089 -3.418,5 -10.558,-2.621 -13.503,-5.031 -1.54,-1.25 -0.622,-2.469 0.378,-3.93 l 4.688,-6.718 c 4.969,-6.977 -2.992,-22.93 -12.27,-28.481 l 34.711,0 c 5.453,5.457 12.993,8.84 21.313,8.84 8.324,0 15.859,-3.383 21.308,-8.84 l 30.782,0 z m -122.914,0 -0.493,0.098 c -0.652,0.121 -2.101,0.34 -2.785,-0.098 l 3.278,0 z" id="path3336"/></clipPath><linearGradient x1="-5.9429898" y1="0" x2="5.9429898" y2="0" id="linearGradient3338" gradientUnits="userSpaceOnUse" gradientTransform="matrix(0.936366,0.351025,-0.351025,0.936366,19.3026,24.5875)" spreadMethod="pad"><stop id="stop3340" style="stop-color:#495363;stop-opacity:1" offset="0"/><stop id="stop3342" style="stop-color:#3775aa;stop-opacity:1" offset="1"/></linearGradient></defs><g transform="matrix(1.25,0,0,-1.25,0,35.433065)" id="g3310"><g transform="matrix(0.1,0,0,0.1,-0.22694805,-0.00673397)" id="g3312"><g id="g3314"><g clip-path="url(#clipPath3318)" id="g3316"><path d="M 38.043,65.7305 C 37.5,61.5781 35.8945,58.0156 32.9766,56.1211 31.2813,55.0234 24.5195,51.5391 24.0313,49.5 23.793,48.5117 27.4648,44 28.0078,43.2109 c 0.5391,-0.789 3.418,-5.8593 4.4336,-5.9961 2.4258,-0.3242 9.207,5.7657 11.1484,7.1602 13.2188,9.5508 31.7579,-5.3594 28.5352,-20.3359 -0.4375,-2.0235 -2.9727,-9.9258 -1.7617,-11.5352 0.8555,-1.1406 7.7734,-1.7344 9.2031,-2.0312 0.7969,-0.168 4.6836,-1.13676 5.4492,-0.67973 2.4883,2.75783 2.7305,12.31253 3.3047,16.12503 1.6992,11.3203 26.3597,15.039 31.6997,6.2968 1.718,-2.8125 3.523,-5.5664 5.359,-8.2968 1.226,-1.8242 2.926,-5.5782 5.223,-4.2774 2.617,1.4883 9.605,5.1797 10.964,7.8633 0.762,1.4961 -5.543,8.8867 -6.363,10.0313 -4.836,6.7421 0.754,22.1757 8.281,28.1953 l -30.14,0 c -5.453,-5.4883 -13.008,-8.8907 -21.3557,-8.8907 -8.3477,0 -15.9024,3.4024 -21.3555,8.8907 l -32.5898,0 z m 123.187,0 c 2.293,-0.4727 4.852,-0.8203 5.235,-0.0274 l 0.012,0.0274 -5.247,0" id="path3328" style="fill:url(#linearGradient3322);fill-opacity:1;fill-rule:nonzero;stroke:none"/></g></g><g id="g3330"><g clip-path="url(#clipPath3334)" id="g3332"><path d="m 248.348,217.867 c 0.316,3.414 1.414,6.192 3.484,7.469 1.785,1.105 3.551,2.25 5.301,3.41 0.902,0.598 7.289,4.09 6.722,5.613 -0.843,2.27 -6.457,12.934 -9.464,11.532 -3.875,-1.809 -7.594,-4.95 -11.012,-7.524 -7.844,-5.906 -30.328,8.781 -28.133,18.235 0.43,1.847 0.828,3.703 1.207,5.562 0.305,1.488 2.121,7.563 1.227,8.758 -1.922,1.91 -12.094,3.547 -14.7,2.769 -0.796,-0.554 -1.41,-4.933 -1.566,-5.804 -0.449,-2.446 -0.875,-4.895 -1.269,-7.356 -1.864,-11.613 -28.247,-15.433 -33.852,-6.593 -1.727,2.734 -3.527,5.425 -5.352,8.089 -3.418,5 -10.558,-2.621 -13.503,-5.031 -1.54,-1.25 -0.622,-2.469 0.378,-3.93 l 4.688,-6.718 c 4.969,-6.977 -2.992,-22.93 -12.27,-28.481 l 34.711,0 c 5.453,5.457 12.993,8.84 21.313,8.84 8.324,0 15.859,-3.383 21.308,-8.84 l 30.782,0 z m -122.914,0 -0.493,0.098 c -0.652,0.121 -2.101,0.34 -2.785,-0.098 l 3.278,0" id="path3344" style="fill:url(#linearGradient3338);fill-opacity:1;fill-rule:nonzero;stroke:none"/></g></g><path d="m 265.328,0.0664063 -132.922,0 c 2.469,0.3906247 5.032,1.2929737 7.703,2.8085937 7.153,4.05469 14.766,8.25 18.653,15.9102 l 0.375,0.7656 86.707,0 0,46.1797 19.5,0 -0.016,-65.6640937 z m -138.558,0 -24.985,0 c 3.492,5.3750037 4.176,11.0780937 4.871,17.2148937 0.899,-1.3829 1.813,-2.7579 2.735,-4.129 4.57,-6.78902 10.457,-11.96871 17.379,-13.0858937 z m -71.1372,0 -33.0078,0 0,20.3671937 c 1.9727,-1.1328 4.3125,-1.9297 7.2617,-2.3242 4.8477,-0.6524 8.7305,0.2148 12.2266,1.8789 l 0,-0.4375 9.3008,0 C 50.2461,13.2188 50.2031,7.26172 54.9375,0.945313 55.1641,0.640625 55.3984,0.347656 55.6328,0.0664063 z M 22.625,217.867 l 0,65.664 141.5,0 1.145,-1.144 c -9.899,3.222 -20.86,-2.977 -30.024,-10.457 -2.844,-2.325 -4.887,-5.008 -6.18,-7.887 l -86.9527,0 0,-46.176 -19.4883,0" id="path3346" style="fill:#5f4e6a;fill-opacity:1;fill-rule:evenodd;stroke:none"/><path d="m 196.258,226.707 c 8.328,0 15.863,-3.379 21.312,-8.84 l -42.625,0 c 5.453,5.461 12.989,8.84 21.313,8.84" id="path3348" style="fill:#5f4e6a;fill-opacity:1;fill-rule:evenodd;stroke:none"/><path d="m 166.293,253.938 c 5.605,-8.84 31.988,-5.02 33.852,6.593 0.394,2.461 0.82,4.91 1.269,7.356 0.156,0.871 0.77,5.25 1.566,5.804 2.606,0.778 12.778,-0.859 14.7,-2.769 0.894,-1.195 -0.922,-7.27 -1.227,-8.758 -0.379,-1.859 -0.777,-3.715 -1.207,-5.562 -2.195,-9.454 20.289,-24.141 28.133,-18.235 3.418,2.574 7.137,5.715 11.012,7.524 3.007,1.402 8.621,-9.262 9.464,-11.532 0.567,-1.523 -5.82,-5.015 -6.722,-5.613 -1.75,-1.16 -3.516,-2.305 -5.301,-3.41 -2.07,-1.277 -3.172,-4.051 -3.484,-7.469 l 9.711,0 4.394,2.844 c 5.879,3.887 13.66,8.336 10.438,17.004 -3.102,8.332 -11.993,21.844 -22.571,16.91 -4.453,-2.074 -8.257,-5.16 -12.14,-8.109 -3.223,0.293 -11.735,5.847 -13.367,8.679 l 1.082,5.039 c 1.125,5.516 3.304,11.379 -0.543,16.508 -4.047,5.395 -18.829,8.063 -25.082,6.199 -6.313,-1.871 -7.348,-7.828 -8.34,-13.332 -0.461,-2.511 -0.895,-5.027 -1.301,-7.55 -1.449,-2.59 -13.481,-4.297 -16.379,-2.664 -1.734,2.722 -3.531,5.41 -5.352,8.078 -8.285,12.097 -19.519,3.558 -27.554,-3.008 -5.75,-4.692 -5.399,-11.117 -1.481,-16.844 l 4.598,-6.601 c 0.504,-3.61 -6.832,-15.489 -10.273,-15.485 -2.52,0.442 -4.938,1.43 -7.473,1.903 -9.633,1.804 -13.074,-3.125 -14.934,-9.571 l 10.364,0 c 0.675,0.446 2.144,0.219 2.796,0.098 l 0.536,-0.098 14.753,0 c 9.286,5.543 17.247,21.496 12.274,28.481 l -4.688,6.718 c -1,1.461 -1.918,2.68 -0.378,3.93 2.945,2.41 10.085,10.031 13.503,5.031 1.825,-2.664 3.625,-5.355 5.352,-8.089" id="path3350" style="fill:#5f4e6a;fill-opacity:1;fill-rule:evenodd;stroke:none"/><path d="m 113.344,65.7305 c -5.453,-5.4883 -13.008,-8.8907 -21.3557,-8.8907 -8.3477,0 -15.9024,3.4024 -21.3555,8.8907 l 42.7112,0" id="path3352" style="fill:#5f4e6a;fill-opacity:1;fill-rule:evenodd;stroke:none"/><path d="m 166.477,65.7305 -0.012,-0.0274 c -0.383,-0.7929 -2.942,-0.4453 -5.235,0.0274 l -17.746,0 c -7.527,-6.0196 -13.117,-21.4532 -8.281,-28.1953 0.82,-1.1446 7.125,-8.5352 6.363,-10.0313 -1.359,-2.6836 -8.347,-6.375 -10.964,-7.8633 -2.297,-1.3008 -3.997,2.4532 -5.223,4.2774 -1.836,2.7304 -3.641,5.4843 -5.359,8.2968 C 114.68,40.957 90.0195,37.2383 88.3203,25.918 87.7461,22.1055 87.5039,12.5508 85.0156,9.79297 84.25,9.33594 80.3633,10.3047 79.5664,10.4727 c -1.4297,0.2968 -8.3476,0.8906 -9.2031,2.0312 -1.211,1.6094 1.3242,9.5117 1.7617,11.5352 C 75.3477,39.0156 56.8086,53.9258 43.5898,44.375 41.6484,42.9805 34.8672,36.8906 32.4414,37.2148 31.4258,37.3516 28.5469,42.4219 28.0078,43.2109 27.4648,44 23.793,48.5117 24.0313,49.5 c 0.4882,2.0391 7.25,5.5234 8.9453,6.6211 2.9179,1.8945 4.539,5.457 5.082,9.6094 l -9.5742,0 C 28.3242,65.043 28.0703,64.5078 27.7188,64.1953 22.6914,60.9414 16.2305,58.293 14.6602,51.7539 c -1.4141,-5.8984 2.4375,-9.6758 5.3945,-13.9883 2.9531,-4.3242 5.0742,-9.2968 11.1094,-10.1015 7.2187,-0.9727 12.789,5.1015 18.0586,8.8945 5.8281,4.207 14.8984,-3.8984 13.4765,-10.4922 -1.332,-6.1992 -4.4258,-13.5 -0.0508,-19.34374 3.8086,-5.07422 9.586,-4.56641 14.9493,-5.6875 5.1523,-1.0742225 10.4882,-2.21094 14.5664,2.30078 5.0351,5.57422 4.6367,14.17966 5.6836,21.14846 1.3125,2.2383 11.5113,3.7422 14.1603,2.3633 1.726,-2.8125 3.535,-5.5743 5.379,-8.3125 4.32,-6.418 9.769,-11.92582 17.968,-7.2774 5.067,2.875 12.102,6.5391 14.809,11.8828 3.875,7.6485 -3.07,14.3438 -7.125,20.0078 -1.445,2.6875 3.695,13.1836 6.649,15.2891 1.972,-0.4648 3.949,-0.8906 5.937,-1.2969 6.859,-1.4062 15.543,-3.8867 19.523,4.3867 0.645,1.3399 1.211,2.7579 1.696,4.2032 l -10.367,0" id="path3354" style="fill:#5f4e6a;fill-opacity:1;fill-rule:evenodd;stroke:none"/><path d="m 17.6055,179.141 c -4.4883,0 -8.168,1.324 -11.01956,4 -2.8711,2.675 -4.31641,5.925 -4.31641,9.812 0,4 1.44531,7.25 4.31641,9.777 2.85156,2.532 6.53126,3.801 11.01956,3.801 4.5742,0 8.2578,-1.269 11.1054,-3.801 2.8204,-2.527 4.2579,-5.777 4.2579,-9.777 0,-4.058 -1.4375,-7.367 -4.2579,-9.957 -2.8476,-2.558 -6.5312,-3.855 -11.1054,-3.855 z m 13.1523,-99.973 -26.61327,0 0,86.309 26.61327,0 0,-86.309 z m 105.7852,0 -26.555,0 0,47.961 c 0,13.375 -4.777,20.051 -14.3317,20.051 -4.5977,0 -8.3985,-1.754 -11.3633,-5.293 -2.9883,-3.539 -4.4844,-8.055 -4.4844,-13.492 l 0,-49.227 -26.6094,0 0,86.309 26.6094,0 0,-13.664 0.3477,0 c 6.3554,10.531 15.5898,15.765 27.7307,15.765 19.101,0 28.656,-11.855 28.656,-35.558 l 0,-52.852 z m 15.418,2.2734 0,21.5786 c 4.402,-2.649 8.773,-4.602 13.117,-5.8989 4.348,-1.293 8.461,-1.9297 12.344,-1.9297 4.719,0 8.461,0.6367 11.16,1.9297 2.738,1.2969 4.09,3.2499 4.09,5.8989 0,1.699 -0.606,3.105 -1.844,4.23 -1.238,1.117 -2.816,2.098 -4.777,2.934 -1.926,0.832 -4.051,1.609 -6.356,2.269 -2.3,0.692 -4.515,1.442 -6.644,2.274 -3.422,1.296 -6.446,2.707 -9.063,4.175 -2.617,1.493 -4.804,3.219 -6.59,5.203 -1.753,1.958 -3.105,4.231 -4.023,6.821 -0.953,2.586 -1.414,5.64 -1.414,9.176 0,4.836 1.066,9.003 3.164,12.488 2.102,3.48 4.922,6.328 8.43,8.539 3.511,2.219 7.535,3.859 12.054,4.898 4.516,1.032 9.235,1.551 14.125,1.551 3.829,0 7.684,-0.289 11.625,-0.89 3.942,-0.579 7.829,-1.438 11.625,-2.563 l 0,-20.57 c -3.367,1.988 -6.964,3.449 -10.82,4.429 -3.855,0.981 -7.625,1.469 -11.336,1.469 -1.754,0 -3.394,-0.144 -4.922,-0.457 -1.551,-0.289 -2.929,-0.754 -4.113,-1.355 -1.18,-0.575 -2.098,-1.352 -2.758,-2.274 -0.691,-0.922 -1.008,-1.984 -1.008,-3.168 0,-1.551 0.493,-2.906 1.496,-4.023 1.04,-1.121 2.332,-2.102 3.969,-2.906 1.641,-0.836 3.453,-1.555 5.438,-2.188 1.988,-0.66 3.972,-1.32 5.957,-1.984 3.535,-1.239 6.734,-2.59 9.609,-4.055 2.848,-1.469 5.32,-3.164 7.367,-5.148 2.039,-1.961 3.621,-4.258 4.711,-6.907 1.094,-2.644 1.645,-5.785 1.645,-9.437 0,-5.121 -1.098,-9.4924 -3.34,-13.1174 -2.215,-3.625 -5.145,-6.5586 -8.832,-8.8359 -3.68,-2.2696 -7.938,-3.9375 -12.742,-4.9766 -4.805,-1.0352 -9.785,-1.5508 -14.961,-1.5508 -9.492,0 -18.27,1.4688 -26.383,4.3711 z m 133.773,-1.2656 c -3.937,-2.0703 -9.863,-3.1055 -17.773,-3.1055 -18.762,0 -28.168,9.75 -28.168,29.2307 l 0,39.527 -13.98,0 0,19.649 13.98,0 0,18.617 26.555,7.59 0,-26.207 19.386,0 0,-19.649 -19.386,0 0,-34.867 c 0,-9.004 3.566,-13.4962 10.699,-13.4962 2.82,0 5.726,0.8086 8.687,2.4493 l 0,-19.7383" id="path3356" style="fill:#5f4e6a;fill-opacity:1;fill-rule:nonzero;stroke:none"/></g></g></svg>