<?xml version="1.0" encoding="UTF-8" standalone="no"?><svg xmlns:svg="http://www.w3.org/2000/svg" xmlns="http://www.w3.org/2000/svg" viewBox="0 0 35.43307 35.43307" height="10mm" width="10mm" xml:space="preserve" version="1.1"><g transform="matrix(1.25,0,0,-1.25,0,35.433069)" id="g3546"><g transform="scale(0.1,0.1)" id="g3548"><path id="path3550" style="fill:#5e98ba;fill-opacity:1;fill-rule:evenodd;stroke:none" d="m 263.059,0.00390625 -20.661,0 C 253.855,6.36719 261.719,15.0664 262.637,26.9648 l 0.426,5.5391 -0.004,-32.49999375 z m -219.1176,0 -23.5898,0 0,283.46509375 132.0354,0 1.062,-4.188 c 3.598,-14.172 -2.422,-24.031 -11.285,-32.519 l 0,17.218 -102.3242,0 0,-211.1362 C 29.2773,47.5117 19.875,39.2734 20.8438,26.9336 21.168,22.8008 21.5273,21.6641 23.4492,18.4414 27.5352,10.7617 34.8242,4.73438 43.9414,0.00390625 Z M 223.59,221.734 263.059,182.266 c 0.101,-48.676 0.035,-97.4183 0.004,-146.1449 l -6.731,5.4062 c -4.512,3.625 -8.355,7.6563 -12.758,11.1407 l 0,24.2226 c 28.321,22.375 21.684,53.6484 0,65.9804 l 0,19.246 -55.801,0 c -1.05,2.274 -2.375,4.555 -3.98,6.817 -1.434,2.011 -7.191,9.605 -8.363,12.668 l 60.734,0 -26.879,26.878 c 1.957,1.18 3.52,2.11 4.492,2.676 l 10.774,6.239 -0.961,4.339" /><path id="path3552" style="fill:#5e98ba;fill-opacity:1;fill-rule:evenodd;stroke:none" d="M 186.277,51.9648 C 142.961,33.4023 90.7148,44.832 91.1914,56.4609 l -0.0195,0 C 89.1484,79.0781 60.875,103.016 60.4102,112.961 c -0.2032,0.203 0.5273,2.617 5.1328,4.844 24.4609,11.828 44.367,10.488 44.367,10.488 0,0 -51.2537,-12.172 -18.1522,-16.59 35.2152,-4.73 75.3712,0.086 110.2692,6.32 -8.48,-24.9488 -13.937,-47.1558 -15.75,-66.0582" /><path id="path3554" style="fill:#ee5e1f;fill-opacity:1;fill-rule:evenodd;stroke:none" d="m 134.832,135.504 c -22.797,21.367 -37.789,40.484 -25.867,58.383 19.297,28.98 72.793,43.035 60.969,89.582 13.605,-13.66 31.32,-39.555 35.316,-57.598 -61.488,-35.629 -50.133,-45.992 -35.316,-66.793 15.863,-22.332 -18.672,-40.152 -18.672,-40.152 0.543,4.621 -12.504,12.898 -16.43,16.578" /><path id="path3556" style="fill:#5e98ba;fill-opacity:1;fill-rule:evenodd;stroke:none" d="m 227.824,42.6172 c 0,0 7.977,-6.582 -8.781,-11.6484 C 187.195,21.3203 86.4531,18.4023 58.4766,30.582 c -10.0625,4.3711 8.8007,10.4453 14.7304,11.7266 6.1914,1.3359 9.7305,1.0977 9.7305,1.0977 -8.9883,6.3203 -50.1836,-7.504 -44.6367,-16.6524 18.5351,-37.082 204.5902,-34.76562 207.3792,1.5156 -4.575,3.6758 -12.242,11.8203 -17.856,14.3477" /><path id="path3558" style="fill:#5e98ba;fill-opacity:1;fill-rule:evenodd;stroke:none" d="m 201.82,76.9141 c 52.891,27.4839 28.434,53.8989 11.364,50.3399 -4.18,-0.871 -6.043,-1.625 -6.043,-1.625 0,0 1.55,2.434 4.515,3.484 33.77,11.875 59.742,-35.0153 -10.902,-53.5857 0,0 0.82,0.7344 1.066,1.3868" /></g></g></svg>