<?xml version="1.0" encoding="UTF-8" standalone="no"?><svg xmlns:svg="http://www.w3.org/2000/svg" xmlns="http://www.w3.org/2000/svg" version="1.1" width="35.433052" height="35.433121" id="svg3058" xml:space="preserve"><defs id="defs3062"/><g transform="matrix(1.25,0,0,-1.25,-0.47607375,36.568375)" id="g3066"><g transform="scale(0.1,0.1)" id="g3068"><path d="m 145.539,292.547 c 51.606,0 96.77,-27.594 121.559,-68.832 -2.317,0.297 -4.641,0.445 -6.977,0.445 -6.379,0 -12.605,-1.289 -18.094,-4.652 -1.468,-0.875 -2.843,-1.86 -4.109,-2.953 -20.559,28.84 -54.27,47.644 -92.379,47.644 -48.3163,0 -89.5742,-30.234 -105.8984,-72.816 C 30.5039,189.25 22.5469,184.215 16.2305,176.547 7.84375,166.324 4.80469,153.102 4.21484,140.121 c -0.26562,3.531 -0.40625,7.094 -0.40625,10.695 0,78.262 63.46871,141.731 141.73041,141.731 z M 282.418,187.652 c 3.16,-11.746 4.855,-24.097 4.855,-36.836 C 287.273,72.5547 223.801,9.08203 145.539,9.08203 87.3086,9.08203 37.2813,44.2305 15.4805,94.457 l 0.5547,-0.7226 C 24.5117,83.1953 36.0039,77.4688 49.543,77.4688 c 3.0273,0 5.9765,0.3007 8.8086,0.8867 20.8007,-25 52.1364,-40.9258 87.1874,-40.9258 35.512,0 67.203,16.3437 87.996,41.9062 l 33.242,0 0,72.0271 13.555,0 0,28.024 0.867,-0.196 1.219,8.461" id="path3070" style="fill:#1c63b7;fill-opacity:1;fill-rule:evenodd;stroke:none"/><path d="m 67.2344,123.91 11.5664,-1.812 C 77.4648,112.203 74.1484,104.656 68.7852,99.457 63.4531,94.2305 57.0273,91.6406 49.543,91.6406 c -9.0899,0 -16.5742,3.6563 -22.4532,10.9614 -5.8789,7.336 -8.8203,18.136 -8.8203,32.48 0,14.426 2.9688,25.227 8.9024,32.453 5.9336,7.203 13.5508,10.828 22.832,10.828 7.1875,0 13.2305,-2.187 18.1563,-6.562 4.9257,-4.399 8.0546,-10.957 9.4414,-19.703 l -11.3985,-2.11 c -1.1172,5.629 -3.0508,9.84 -5.8281,12.614 -2.75,2.8 -6.0664,4.187 -9.9609,4.187 -5.7969,0 -10.586,-2.508 -14.3985,-7.547 -3.7851,-5.015 -5.6875,-12.984 -5.6875,-23.945 0,-11.281 1.8242,-19.469 5.4727,-24.531 3.6211,-5.043 8.3008,-7.575 13.9883,-7.575 4.4648,0 8.2734,1.68 11.4297,5.039 3.1562,3.36 5.1718,8.586 6.0156,15.68 z m 17.0625,11.094 c 0,14.32 3.0781,25.121 9.2265,32.398 6.1289,7.305 13.9106,10.961 23.3246,10.961 9.226,0 16.984,-3.656 23.191,-10.961 6.234,-7.277 9.332,-17.785 9.332,-31.547 0,-14.906 -3.047,-26 -9.168,-33.281 -6.125,-7.3045 -13.906,-10.9334 -23.355,-10.9334 -9.305,0 -17.0628,3.6563 -23.2425,10.9614 -6.2032,7.336 -9.3086,18.136 -9.3086,32.402 z m 12.0586,0 c 0,-10.746 1.9843,-18.719 5.9605,-23.949 4,-5.25 8.954,-7.864 14.832,-7.864 5.524,0 10.29,2.637 14.235,7.946 3.972,5.281 5.965,13.226 5.965,23.867 0,10.664 -2.016,18.613 -5.993,23.863 -4,5.227 -8.925,7.84 -14.832,7.84 -5.578,0 -10.343,-2.637 -14.289,-7.891 -3.9176,-5.253 -5.8785,-13.199 -5.8785,-23.812 z m 66.7925,-41.4923 0,82.9573 10.61,0 0,-11.785 c 2.562,4.586 5.691,7.996 9.363,10.265 3.703,2.266 7.949,3.414 12.738,3.414 3.704,0 7.157,-0.722 10.317,-2.16 3.156,-1.441 5.715,-3.308 7.644,-5.629 1.965,-2.316 3.407,-5.332 4.356,-9.011 0.953,-3.708 1.445,-9.387 1.445,-17.04 l 0,-51.0113 -11.816,0 0,50.4763 c 0,6.082 -0.516,10.535 -1.602,13.36 -1.062,2.8 -2.723,4.988 -4.98,6.507 -2.262,1.547 -4.871,2.321 -7.84,2.321 -5.633,0 -10.125,-2.082 -13.473,-6.188 -3.347,-4.105 -5.035,-11.172 -5.035,-21.172 l 0,-45.3043 -11.727,0 z m 77.809,0 0,72.0233 -10.422,0 0,10.934 10.422,0 0,8.828 c 0,6.531 0.707,11.41 2.094,14.664 1.363,3.254 3.484,5.734 6.344,7.441 2.828,1.735 6.398,2.586 10.726,2.586 3.348,0 6.992,-0.453 10.992,-1.41 l -1.765,-12.269 c -2.426,0.531 -4.739,0.796 -6.918,0.796 -3.508,0 -6.039,-0.902 -7.539,-2.691 -1.52,-1.812 -2.286,-5.223 -2.286,-10.293 l 0,-7.652 13.555,0 0,-10.934 -13.555,0 0,-72.0233 -11.648,0" id="path3072" style="fill:#1c63b7;fill-opacity:1;fill-rule:nonzero;stroke:none"/></g></g></svg>