<?xml version="1.0" encoding="UTF-8" standalone="no"?><svg xmlns:svg="http://www.w3.org/2000/svg" xmlns="http://www.w3.org/2000/svg" version="1.1" width="35.433052" height="35.433121" id="svg3004" xml:space="preserve"><defs id="defs3008"/><g transform="matrix(1.25,0,0,-1.25,-0.47607375,36.568375)" id="g3012"><g transform="scale(0.1,0.1)" id="g3014"><path d="m 145.539,292.547 c 78.262,0 141.734,-63.469 141.734,-141.731 C 287.273,72.5547 223.801,9.08203 145.539,9.08203 67.2773,9.08203 3.80859,72.5547 3.80859,150.816 c 0,78.262 63.46871,141.731 141.73041,141.731 z m 0,-28.348 c 62.609,0 113.387,-50.777 113.387,-113.383 0,-62.609 -50.778,-113.3863 -113.387,-113.3863 -62.6054,0 -113.3827,50.7773 -113.3827,113.3863 0,62.606 50.7773,113.383 113.3827,113.383" id="path3016" style="fill:#1c63b7;fill-opacity:1;fill-rule:evenodd;stroke:none"/><path d="m 216.363,186.816 0,3.825 10.571,0 c 0.296,5.093 1.121,10.285 3.058,14.82 2.488,5.949 6.559,10.781 12.035,14.047 5.489,3.363 11.715,4.652 18.094,4.652 4.817,0 9.613,-0.68 14.293,-1.801 l 12.57,-3.011 -5.785,-40.157 -0.867,0.196 0,-28.024 -13.555,0 0,-72.0271 -73.144,0 0,64.6521 c 0,1.825 -0.024,5.742 -0.613,8.012 -0.918,-0.027 -1.485,-0.18 -2.118,-0.961 -1.562,-2.113 -1.855,-9.734 -1.855,-12.223 l 0,-59.4801 -40.074,0 0,11.793 c -8.528,-8.9648 -19.496,-13.6601 -32.125,-13.6601 -13.618,0 -25.2855,5.5976 -34.0667,15.9804 -0.0665,0.0781 -0.129,0.1524 -0.1915,0.2266 -1.1875,-1.5274 -2.4882,-2.9883 -3.914,-4.3711 C 70.7188,81.5 60.7266,77.4688 49.543,77.4688 36.0039,77.4688 24.5117,83.1953 16.0352,93.7344 6.74219,105.324 4.09766,120.602 4.09766,135.082 c 0,14.523 2.66015,29.922 12.13284,41.465 8.6054,10.445 20.2304,15.988 33.7734,15.988 10.332,0 19.8281,-3.262 27.5899,-10.152 1.9609,-1.758 3.6914,-3.668 5.2109,-5.707 8.7656,10.367 20.4413,15.859 34.0433,15.859 12.644,0 23.605,-4.875 32.125,-13.871 l 0,11.977 34.582,0 c 3.937,1.277 8.07,1.894 12.304,1.894 5.602,0 11.09,-1.113 16.2,-3.437 1.488,-0.68 2.925,-1.438 4.304,-2.282 z M 50.3008,152.613 c -1.418,-0.039 -2.1094,-0.765 -2.9766,-1.91 -2.4453,-3.246 -2.8203,-11.578 -2.8203,-15.406 0,-3.938 0.3711,-12.887 2.8047,-16.262 0.7187,-1 1.2422,-1.672 2.4805,-1.672 0.5664,0 0.6875,0.129 1.1015,0.571 1.3086,1.394 2.0586,5.871 2.2696,7.644 l 1.2851,10.84 -2.1445,10.812 c -0.2227,1.129 -0.9649,4.145 -2,5.383 z m 60.2302,-17.609 c 0,-4.137 0.418,-11.883 3.063,-15.363 0.98,-1.282 1.894,-2.278 3.554,-2.278 1.192,0 2.25,1.407 2.899,2.278 2.676,3.562 3.125,11.136 3.125,15.363 0,4.207 -0.426,11.758 -3.082,15.266 -0.996,1.3 -1.891,2.265 -3.567,2.265 -1.257,0 -2.273,-1.32 -2.933,-2.203 -2.637,-3.535 -3.059,-11.144 -3.059,-15.328" id="path3018" style="fill:#ffffff;fill-opacity:1;fill-rule:evenodd;stroke:none"/><path d="m 67.2344,123.91 11.5664,-1.812 C 77.4648,112.203 74.1484,104.656 68.7852,99.457 63.4531,94.2305 57.0273,91.6406 49.543,91.6406 c -9.0899,0 -16.5742,3.6563 -22.4532,10.9614 -5.8789,7.336 -8.8203,18.136 -8.8203,32.48 0,14.426 2.9688,25.227 8.9024,32.453 5.9336,7.203 13.5508,10.828 22.832,10.828 7.1875,0 13.2305,-2.187 18.1563,-6.562 4.9257,-4.399 8.0546,-10.957 9.4414,-19.703 l -11.3985,-2.11 c -1.1172,5.629 -3.0508,9.84 -5.8281,12.614 -2.75,2.8 -6.0664,4.187 -9.9609,4.187 -5.7969,0 -10.586,-2.508 -14.3985,-7.547 -3.7851,-5.015 -5.6875,-12.984 -5.6875,-23.945 0,-11.281 1.8242,-19.469 5.4727,-24.531 3.6211,-5.043 8.3008,-7.575 13.9883,-7.575 4.4648,0 8.2734,1.68 11.4297,5.039 3.1562,3.36 5.1718,8.586 6.0156,15.68 z m 17.0625,11.094 c 0,14.32 3.0781,25.121 9.2265,32.398 6.1289,7.305 13.9106,10.961 23.3246,10.961 9.226,0 16.984,-3.656 23.191,-10.961 6.234,-7.277 9.332,-17.785 9.332,-31.547 0,-14.906 -3.047,-26 -9.168,-33.281 -6.125,-7.3045 -13.906,-10.9334 -23.355,-10.9334 -9.305,0 -17.0628,3.6563 -23.2425,10.9614 -6.2032,7.336 -9.3086,18.136 -9.3086,32.402 z m 12.0586,0 c 0,-10.746 1.9843,-18.719 5.9605,-23.949 4,-5.25 8.954,-7.864 14.832,-7.864 5.524,0 10.29,2.637 14.235,7.946 3.972,5.281 5.965,13.226 5.965,23.867 0,10.664 -2.016,18.613 -5.993,23.863 -4,5.227 -8.925,7.84 -14.832,7.84 -5.578,0 -10.343,-2.637 -14.289,-7.891 -3.9176,-5.253 -5.8785,-13.199 -5.8785,-23.812 z m 66.7925,-41.4923 0,82.9573 10.61,0 0,-11.785 c 2.562,4.586 5.691,7.996 9.363,10.265 3.703,2.266 7.949,3.414 12.738,3.414 3.704,0 7.157,-0.722 10.317,-2.16 3.156,-1.441 5.715,-3.308 7.644,-5.629 1.965,-2.316 3.407,-5.332 4.356,-9.011 0.953,-3.708 1.445,-9.387 1.445,-17.04 l 0,-51.0113 -11.816,0 0,50.4763 c 0,6.082 -0.516,10.535 -1.602,13.36 -1.062,2.8 -2.723,4.988 -4.98,6.507 -2.262,1.547 -4.871,2.321 -7.84,2.321 -5.633,0 -10.125,-2.082 -13.473,-6.188 -3.347,-4.105 -5.035,-11.172 -5.035,-21.172 l 0,-45.3043 -11.727,0 z m 77.809,0 0,72.0233 -10.422,0 0,10.934 10.422,0 0,8.828 c 0,6.531 0.707,11.41 2.094,14.664 1.363,3.254 3.484,5.734 6.344,7.441 2.828,1.735 6.398,2.586 10.726,2.586 3.348,0 6.992,-0.453 10.992,-1.41 l -1.765,-12.269 c -2.426,0.531 -4.739,0.796 -6.918,0.796 -3.508,0 -6.039,-0.902 -7.539,-2.691 -1.52,-1.812 -2.286,-5.223 -2.286,-10.293 l 0,-7.652 13.555,0 0,-10.934 -13.555,0 0,-72.0233 -11.648,0" id="path3020" style="fill:#1c63b7;fill-opacity:1;fill-rule:nonzero;stroke:none"/></g></g></svg>