<?xml version="1.0" encoding="UTF-8" standalone="no"?><svg xmlns:svg="http://www.w3.org/2000/svg" xmlns="http://www.w3.org/2000/svg" version="1.1" width="35.433071" height="35.433071" xml:space="preserve"><defs id="defs3168"><clipPath id="clipPath3182"><path d="m 166.75,85.8633 c -3.566,0.668 -7.145,1.3008 -10.73,1.8789 -5.254,0.8437 -9.68,21.6128 -6.04,23.8708 1.829,1.137 3.629,2.301 5.422,3.489 3.703,2.445 10.645,5.761 8.578,11.308 -2.046,5.508 -8.925,17.524 -16.015,14.219 -4.203,-1.961 -8.117,-5.215 -11.875,-8.039 -4.145,-3.121 -21.68,8.39 -20.539,13.285 0.441,1.895 0.844,3.793 1.23,5.695 0.739,3.602 2.852,9.282 0.324,12.657 -2.753,3.668 -15.66,5.718 -19.855,4.464 -3.9219,-1.16 -4.3711,-6.246 -4.9727,-9.57 -0.4492,-2.48 -0.8789,-4.957 -1.2812,-7.453 -1.1523,-7.172 -21.8633,-9.758 -25.0195,-4.777 -1.7657,2.781 -3.5899,5.515 -5.4493,8.234 -5.9648,8.711 -14.5195,0.887 -20.5273,-4.02 -3.7031,-3.023 -3.0742,-6.699 -0.5508,-10.39 1.5625,-2.277 3.1367,-4.547 4.7383,-6.789 3.5938,-5.051 -7.543,-24.094 -15.1875,-22.766 -2.5625,0.442 -5.4219,1.512 -7.5625,1.91 C 11.457,114.938 11.6602,105.723 10.2031,98.4375 8.14453,88.1094 16.7734,87.8945 25.0391,86.5 32.0938,85.3164 36.7109,64.375 30.2344,60.1641 26.7422,57.9063 20.2969,55.0859 19.2266,50.6328 c -0.8946,-3.7187 2.789,-7.375 4.6836,-10.1406 1.8945,-2.7695 3.9687,-7.543 7.7734,-8.0508 4.9766,-0.668 10.8672,5.3399 14.6055,8.0274 9.4414,6.8203 23.3515,-4.5118 21.0039,-15.4102 -0.8985,-4.1602 -3.836,-11.5273 -0.9102,-15.44141 2.461,-3.27735 8.4688,-3.10547 12.0781,-3.85938 3.1329,-0.65625 7.4883,-1.98047 10.0118,0.8086 3.8007,4.21089 3.6836,13.26949 4.4921,18.63669 1.0274,6.8555 19.9062,9.2735 22.8242,4.5 1.754,-2.8672 3.594,-5.6836 5.473,-8.4726 2.89,-4.293 6.054,-8.918 11.597,-5.7774 3.844,2.1836 10.821,5.7969 12.887,9.8711 2.477,4.8946 -4.183,11.4453 -6.742,15.0235 -4.309,6.0039 5.769,24.1914 10.801,22.9882 2.211,-0.5312 4.437,-1.0156 6.664,-1.4726 4.285,-0.875 11.676,-3.5274 14.219,1.7539 3.453,7.1875 6.242,20.3398 -3.938,22.2461 l 0,0 z M 86.7031,64.5195 C 73.5781,66.9766 63.7188,79.6016 66.2383,93.043 68.7539,106.488 82.5156,114.699 95.6367,112.242 108.762,109.781 118.617,97.1523 116.102,83.7109 113.586,70.2656 99.8242,62.0625 86.7031,64.5195 z" id="path3184"/></clipPath><linearGradient x1="-8.1213398" y1="0" x2="8.1213398" y2="0" id="linearGradient3186" gradientUnits="userSpaceOnUse" gradientTransform="matrix(0.928615,0.371044,-0.371044,0.928615,9.21292,8.70864)" spreadMethod="pad"><stop id="stop3188" style="stop-color:#495363;stop-opacity:1" offset="0"/><stop id="stop3190" style="stop-color:#3775aa;stop-opacity:1" offset="1"/></linearGradient><clipPath id="clipPath3198"><path d="m 271.141,195.492 c -3.567,0.664 -7.145,1.305 -10.731,1.879 -5.254,0.844 -9.683,21.613 -6.039,23.871 1.828,1.133 3.629,2.301 5.422,3.485 3.703,2.449 10.641,5.765 8.582,11.312 -2.051,5.508 -8.93,17.527 -16.02,14.219 -4.203,-1.961 -8.117,-5.215 -11.871,-8.039 -4.148,-3.125 -21.683,8.39 -20.543,13.289 0.438,1.887 0.844,3.789 1.231,5.691 0.734,3.602 2.851,9.285 0.324,12.653 -2.754,3.671 -15.66,5.722 -19.851,4.472 -3.93,-1.168 -4.372,-6.25 -4.973,-9.574 -0.453,-2.48 -0.883,-4.961 -1.281,-7.453 -1.157,-7.172 -21.868,-9.758 -25.024,-4.781 -1.765,2.785 -3.59,5.523 -5.449,8.238 -5.965,8.707 -14.52,0.883 -20.527,-4.02 -3.703,-3.023 -3.075,-6.703 -0.551,-10.39 1.562,-2.278 3.14,-4.547 4.738,-6.789 3.594,-5.055 -7.539,-24.094 -15.191,-22.766 -2.559,0.445 -5.418,1.512 -7.559,1.91 -9.98,1.871 -9.781,-7.344 -11.234,-14.633 -2.063,-10.328 6.57,-10.546 14.836,-11.941 7.054,-1.18 11.672,-22.121 5.195,-26.328 -3.496,-2.262 -9.937,-5.082 -11.008,-9.539 -0.894,-3.719 2.789,-7.375 4.684,-10.137 1.89,-2.766 3.969,-7.543 7.773,-8.047 4.977,-0.672 10.867,5.336 14.606,8.028 9.441,6.82 23.347,-4.516 21.004,-15.414 -0.895,-4.157 -3.84,-11.524 -0.907,-15.442 2.457,-3.273 8.465,-3.105 12.075,-3.859 3.136,-0.657 7.488,-1.981 10.011,0.808 3.801,4.211 3.688,13.27 4.492,18.637 1.032,6.859 19.911,9.273 22.825,4.496 1.758,-2.867 3.593,-5.68 5.476,-8.469 2.883,-4.293 6.055,-8.918 11.594,-5.777 3.844,2.184 10.82,5.797 12.887,9.871 2.476,4.895 -4.188,11.442 -6.746,15.024 -4.305,6.003 5.773,24.191 10.804,22.984 2.211,-0.527 4.438,-1.012 6.664,-1.469 4.286,-0.879 11.676,-3.523 14.219,1.754 3.453,7.188 6.242,20.336 -3.937,22.246 l 0,0 z m -80.047,-21.344 c -13.125,2.457 -22.985,15.082 -20.469,28.528 2.52,13.445 16.277,21.648 29.406,19.191 13.121,-2.457 22.977,-15.086 20.461,-28.531 -2.519,-13.441 -16.277,-21.645 -29.398,-19.188 z" id="path3200"/></clipPath><linearGradient x1="-8.25735" y1="0" x2="8.25735" y2="0" id="linearGradient3202" gradientUnits="userSpaceOnUse" gradientTransform="matrix(0.936366,0.351025,-0.351025,0.936366,19.6516,19.6725)" spreadMethod="pad"><stop id="stop3204" style="stop-color:#495363;stop-opacity:1" offset="0"/><stop id="stop3206" style="stop-color:#3775aa;stop-opacity:1" offset="1"/></linearGradient></defs><g transform="matrix(1.25,0,0,-1.25,0,35.433065)" id="g3172"><g transform="matrix(0.1,0,0,0.1,-0.22689571,-0.00673397)" id="g3174"><path d="m 265.328,0.0664063 -132.922,0 c 2.469,0.3906247 5.032,1.2929737 7.703,2.8085937 7.153,4.05469 14.766,8.25 18.653,15.9102 l 0.375,0.7656 86.707,0 0,93.7772 c 6.703,3.813 13.566,7.945 17.187,15.086 5.547,10.953 0.137,18.926 -5.781,27.07 0.23,0.579 0.52,1.207 0.82,1.825 2.45,-0.5 4.891,-0.95 7.293,-1.223 0.055,-51.981 -0.035,-104.0079 -0.035,-156.0195937 z m -138.558,0 -24.985,0 c 3.492,5.3750037 4.176,11.0780937 4.871,17.2148937 0.899,-1.3829 1.813,-2.7579 2.735,-4.129 4.57,-6.78902 10.457,-11.96871 17.379,-13.0858937 z m -71.1372,0 -33.0078,0 0,20.3671937 c 1.9727,-1.1328 4.3125,-1.9297 7.2617,-2.3242 4.8477,-0.6524 8.7305,0.2148 12.2266,1.8789 l 0,-0.4375 9.3008,0 C 50.2461,13.2188 50.2031,7.26172 54.9375,0.945313 55.1641,0.640625 55.3984,0.347656 55.6328,0.0664063 z M 22.625,127.539 l 0,155.992 141.5,0 1.145,-1.144 c -9.899,3.222 -20.86,-2.977 -30.024,-10.457 -2.844,-2.325 -4.887,-5.008 -6.18,-7.887 l -86.9527,0 0,-94.188 c -3.8672,-2.031 -7.6367,-4.695 -11.1367,-7.558 -9.6524,-7.875 -10.0977,-19.863 -3.3282,-29.766 l 2.0235,-2.898 c -0.5703,-1.067 -1.293,-2.246 -1.9961,-3.238 -1.1406,0.335 -2.293,0.664 -3.461,0.882 -0.5429,0.102 -1.0703,0.188 -1.5898,0.262" id="path3176" style="fill:#5f4e6a;fill-opacity:1;fill-rule:evenodd;stroke:none"/><g id="g3178"><g clip-path="url(#clipPath3182)" id="g3180"><path d="m 166.75,85.8633 c -3.566,0.668 -7.145,1.3008 -10.73,1.8789 -5.254,0.8437 -9.68,21.6128 -6.04,23.8708 1.829,1.137 3.629,2.301 5.422,3.489 3.703,2.445 10.645,5.761 8.578,11.308 -2.046,5.508 -8.925,17.524 -16.015,14.219 -4.203,-1.961 -8.117,-5.215 -11.875,-8.039 -4.145,-3.121 -21.68,8.39 -20.539,13.285 0.441,1.895 0.844,3.793 1.23,5.695 0.739,3.602 2.852,9.282 0.324,12.657 -2.753,3.668 -15.66,5.718 -19.855,4.464 -3.9219,-1.16 -4.3711,-6.246 -4.9727,-9.57 -0.4492,-2.48 -0.8789,-4.957 -1.2812,-7.453 -1.1523,-7.172 -21.8633,-9.758 -25.0195,-4.777 -1.7657,2.781 -3.5899,5.515 -5.4493,8.234 -5.9648,8.711 -14.5195,0.887 -20.5273,-4.02 -3.7031,-3.023 -3.0742,-6.699 -0.5508,-10.39 1.5625,-2.277 3.1367,-4.547 4.7383,-6.789 3.5938,-5.051 -7.543,-24.094 -15.1875,-22.766 -2.5625,0.442 -5.4219,1.512 -7.5625,1.91 C 11.457,114.938 11.6602,105.723 10.2031,98.4375 8.14453,88.1094 16.7734,87.8945 25.0391,86.5 32.0938,85.3164 36.7109,64.375 30.2344,60.1641 26.7422,57.9063 20.2969,55.0859 19.2266,50.6328 c -0.8946,-3.7187 2.789,-7.375 4.6836,-10.1406 1.8945,-2.7695 3.9687,-7.543 7.7734,-8.0508 4.9766,-0.668 10.8672,5.3399 14.6055,8.0274 9.4414,6.8203 23.3515,-4.5118 21.0039,-15.4102 -0.8985,-4.1602 -3.836,-11.5273 -0.9102,-15.44141 2.461,-3.27735 8.4688,-3.10547 12.0781,-3.85938 3.1329,-0.65625 7.4883,-1.98047 10.0118,0.8086 3.8007,4.21089 3.6836,13.26949 4.4921,18.63669 1.0274,6.8555 19.9062,9.2735 22.8242,4.5 1.754,-2.8672 3.594,-5.6836 5.473,-8.4726 2.89,-4.293 6.054,-8.918 11.597,-5.7774 3.844,2.1836 10.821,5.7969 12.887,9.8711 2.477,4.8946 -4.183,11.4453 -6.742,15.0235 -4.309,6.0039 5.769,24.1914 10.801,22.9882 2.211,-0.5312 4.437,-1.0156 6.664,-1.4726 4.285,-0.875 11.676,-3.5274 14.219,1.7539 3.453,7.1875 6.242,20.3398 -3.938,22.2461 l 0,0 z M 86.7031,64.5195 C 73.5781,66.9766 63.7188,79.6016 66.2383,93.043 68.7539,106.488 82.5156,114.699 95.6367,112.242 108.762,109.781 118.617,97.1523 116.102,83.7109 113.586,70.2656 99.8242,62.0625 86.7031,64.5195" id="path3192" style="fill:url(#linearGradient3186);fill-opacity:1;fill-rule:nonzero;stroke:none"/></g></g><g id="g3194"><g clip-path="url(#clipPath3198)" id="g3196"><path d="m 271.141,195.492 c -3.567,0.664 -7.145,1.305 -10.731,1.879 -5.254,0.844 -9.683,21.613 -6.039,23.871 1.828,1.133 3.629,2.301 5.422,3.485 3.703,2.449 10.641,5.765 8.582,11.312 -2.051,5.508 -8.93,17.527 -16.02,14.219 -4.203,-1.961 -8.117,-5.215 -11.871,-8.039 -4.148,-3.125 -21.683,8.39 -20.543,13.289 0.438,1.887 0.844,3.789 1.231,5.691 0.734,3.602 2.851,9.285 0.324,12.653 -2.754,3.671 -15.66,5.722 -19.851,4.472 -3.93,-1.168 -4.372,-6.25 -4.973,-9.574 -0.453,-2.48 -0.883,-4.961 -1.281,-7.453 -1.157,-7.172 -21.868,-9.758 -25.024,-4.781 -1.765,2.785 -3.59,5.523 -5.449,8.238 -5.965,8.707 -14.52,0.883 -20.527,-4.02 -3.703,-3.023 -3.075,-6.703 -0.551,-10.39 1.562,-2.278 3.14,-4.547 4.738,-6.789 3.594,-5.055 -7.539,-24.094 -15.191,-22.766 -2.559,0.445 -5.418,1.512 -7.559,1.91 -9.98,1.871 -9.781,-7.344 -11.234,-14.633 -2.063,-10.328 6.57,-10.546 14.836,-11.941 7.054,-1.18 11.672,-22.121 5.195,-26.328 -3.496,-2.262 -9.937,-5.082 -11.008,-9.539 -0.894,-3.719 2.789,-7.375 4.684,-10.137 1.89,-2.766 3.969,-7.543 7.773,-8.047 4.977,-0.672 10.867,5.336 14.606,8.028 9.441,6.82 23.347,-4.516 21.004,-15.414 -0.895,-4.157 -3.84,-11.524 -0.907,-15.442 2.457,-3.273 8.465,-3.105 12.075,-3.859 3.136,-0.657 7.488,-1.981 10.011,0.808 3.801,4.211 3.688,13.27 4.492,18.637 1.032,6.859 19.911,9.273 22.825,4.496 1.758,-2.867 3.593,-5.68 5.476,-8.469 2.883,-4.293 6.055,-8.918 11.594,-5.777 3.844,2.184 10.82,5.797 12.887,9.871 2.476,4.895 -4.188,11.442 -6.746,15.024 -4.305,6.003 5.773,24.191 10.804,22.984 2.211,-0.527 4.438,-1.012 6.664,-1.469 4.286,-0.879 11.676,-3.523 14.219,1.754 3.453,7.188 6.242,20.336 -3.937,22.246 l 0,0 z m -80.047,-21.344 c -13.125,2.457 -22.985,15.082 -20.469,28.528 2.52,13.445 16.277,21.648 29.406,19.191 13.121,-2.457 22.977,-15.086 20.461,-28.531 -2.519,-13.441 -16.277,-21.645 -29.398,-19.188" id="path3208" style="fill:url(#linearGradient3202);fill-opacity:1;fill-rule:nonzero;stroke:none"/></g></g><path d="m 196.258,226.707 c 16.633,0 30.117,-13.488 30.117,-30.117 0,-16.633 -13.484,-30.121 -30.117,-30.121 -16.629,0 -30.117,13.488 -30.117,30.121 0,16.629 13.488,30.117 30.117,30.117 z m 0,-9.719 c 11.265,0 20.398,-9.133 20.398,-20.398 0,-11.266 -9.133,-20.399 -20.398,-20.399 -11.262,0 -20.395,9.133 -20.395,20.399 0,11.265 9.133,20.398 20.395,20.398" id="path3210" style="fill:#5f4e6a;fill-opacity:1;fill-rule:evenodd;stroke:none"/><path d="m 166.293,253.938 c 5.605,-8.84 31.988,-5.02 33.852,6.593 0.394,2.461 0.82,4.91 1.269,7.356 0.156,0.871 0.77,5.25 1.566,5.804 2.606,0.778 12.778,-0.859 14.7,-2.769 0.894,-1.195 -0.922,-7.27 -1.227,-8.758 -0.379,-1.859 -0.777,-3.715 -1.207,-5.562 -2.195,-9.454 20.289,-24.141 28.133,-18.235 3.418,2.574 7.137,5.715 11.012,7.524 3.007,1.402 8.621,-9.262 9.464,-11.532 0.567,-1.523 -5.82,-5.015 -6.722,-5.613 -1.75,-1.16 -3.516,-2.305 -5.301,-3.41 -7.855,-4.859 -1.644,-31.203 7.813,-32.723 3.523,-0.566 7.035,-1.191 10.539,-1.843 l 0.07,-0.016 c 6.012,-1.125 2.078,-12.094 0.484,-15.418 -0.668,-1.383 -7.886,0.668 -8.91,0.879 -2.176,0.441 -4.348,0.918 -6.504,1.433 -10.422,2.497 -22.238,-21.574 -15.851,-30.48 0.824,-1.148 7.125,-8.535 6.363,-10.035 -1.356,-2.68 -8.348,-6.375 -10.961,-7.86 -2.301,-1.304 -4,2.454 -5.223,4.278 -1.839,2.73 -3.644,5.484 -5.363,8.297 -5.34,8.742 -30,5.023 -31.699,-6.297 -0.57,-3.817 -0.813,-13.367 -3.301,-16.125 -0.769,-0.457 -4.652,0.508 -5.449,0.676 -1.434,0.3 -8.348,0.89 -9.207,2.035 -1.211,1.609 1.328,9.511 1.762,11.531 3.222,14.98 -15.317,29.891 -28.536,20.34 -1.941,-1.399 -8.718,-7.488 -11.144,-7.16 -1.016,0.132 -3.899,5.207 -4.438,5.992 -0.539,0.793 -4.214,5.301 -3.976,6.293 0.492,2.039 7.25,5.519 8.945,6.617 10.145,6.59 4.547,33.195 -7.019,35.133 -2.2,0.367 -9.258,1.133 -10.711,2.734 -0.672,0.754 -0.368,2.656 -0.196,3.508 0.422,2.113 1.211,9.266 2.707,10.648 0.61,0.563 2.223,0.321 2.914,0.192 2.543,-0.473 4.993,-1.469 7.622,-1.926 11.644,-2.016 26.269,21.418 19.941,30.309 l -4.688,6.718 c -1,1.461 -1.918,2.68 -0.378,3.93 2.945,2.41 10.085,10.031 13.503,5.031 1.825,-2.664 3.625,-5.355 5.352,-8.089 z m 59.059,22.804 c -4.047,5.395 -18.829,8.063 -25.082,6.199 -6.313,-1.871 -7.348,-7.828 -8.34,-13.332 -0.461,-2.511 -0.895,-5.027 -1.301,-7.55 -1.449,-2.59 -13.481,-4.297 -16.379,-2.664 -1.734,2.722 -3.531,5.41 -5.352,8.078 -8.285,12.097 -19.519,3.558 -27.554,-3.008 -5.75,-4.692 -5.399,-11.117 -1.481,-16.844 l 4.598,-6.601 c 0.504,-3.61 -6.832,-15.489 -10.273,-15.485 -2.52,0.442 -4.938,1.43 -7.473,1.903 -13.832,2.589 -14.906,-8.719 -16.848,-18.426 -2.828,-14.196 8.328,-15.879 18.762,-17.637 3.008,-1.43 5.91,-15.277 3.359,-17.547 -5.027,-3.258 -11.484,-5.906 -13.054,-12.441 -1.418,-5.903 2.433,-9.68 5.39,-13.992 2.953,-4.321 5.074,-9.297 11.114,-10.102 7.214,-0.973 12.785,5.105 18.058,8.895 5.824,4.21 14.895,-3.895 13.477,-10.489 -1.336,-6.199 -4.426,-13.504 -0.055,-19.344 3.809,-5.078 9.59,-4.566 14.949,-5.687 5.153,-1.078 10.488,-2.211 14.571,2.297 5.035,5.578 4.636,14.183 5.683,21.152 1.309,2.238 11.508,3.738 14.156,2.36 1.731,-2.813 3.536,-5.575 5.379,-8.309 4.321,-6.418 9.77,-11.926 17.969,-7.277 5.066,2.875 12.102,6.543 14.809,11.882 3.875,7.649 -3.071,14.344 -7.125,20.004 -1.442,2.692 3.695,13.188 6.648,15.293 1.973,-0.465 3.949,-0.89 5.941,-1.297 6.856,-1.406 15.543,-3.89 19.52,4.387 5.293,11.016 5.633,26.629 -7.387,29.07 l -0.074,0.012 -4.668,0.875 -5.469,0.903 c -2.105,2.359 -4.441,12.261 -3.933,15.734 l 4.566,2.957 c 5.879,3.887 13.66,8.336 10.438,17.004 -3.102,8.332 -11.993,21.844 -22.571,16.91 -4.453,-2.074 -8.257,-5.16 -12.14,-8.109 -3.223,0.293 -11.735,5.847 -13.367,8.679 l 1.082,5.039 c 1.125,5.516 3.304,11.379 -0.543,16.508" id="path3212" style="fill:#5f4e6a;fill-opacity:1;fill-rule:evenodd;stroke:none"/><path d="m 91.9883,117.074 c 16.6327,0 30.1167,-13.488 30.1167,-30.117 0,-16.6328 -13.484,-30.1172 -30.1167,-30.1172 -16.6289,0 -30.1172,13.4844 -30.1172,30.1172 0,16.629 13.4883,30.117 30.1172,30.117 z m 0,-9.719 c 11.2657,0 20.3987,-9.1362 20.3987,-20.398 0,-11.2656 -9.133,-20.3984 -20.3987,-20.3984 -11.2617,0 -20.3945,9.1328 -20.3945,20.3984 0,11.2618 9.1328,20.398 20.3945,20.398" id="path3214" style="fill:#5f4e6a;fill-opacity:1;fill-rule:evenodd;stroke:none"/><path d="m 62.0234,144.305 c 5.6055,-8.836 31.9844,-5.024 33.8516,6.597 0.3945,2.453 0.8203,4.907 1.2656,7.356 0.1563,0.867 0.7696,5.246 1.5703,5.805 2.6021,0.777 12.7731,-0.864 14.6951,-2.774 0.895,-1.195 -0.918,-7.269 -1.222,-8.758 -0.383,-1.859 -0.778,-3.711 -1.207,-5.558 -2.2,-9.457 20.289,-24.145 28.132,-18.239 3.418,2.575 7.137,5.719 11.012,7.524 3.008,1.402 8.621,-9.262 9.465,-11.531 0.566,-1.52 -5.824,-5.016 -6.723,-5.61 -1.754,-1.164 -3.515,-2.304 -5.3,-3.414 -7.856,-4.855 -1.649,-31.203 7.808,-32.7225 3.524,-0.5664 7.039,-1.1875 10.543,-1.8438 l 0.07,-0.0156 c 6.012,-1.125 2.079,-12.0938 0.481,-15.418 -0.668,-1.3789 -7.887,0.668 -8.91,0.8789 -2.176,0.4453 -4.348,0.918 -6.504,1.4375 -10.422,2.4922 -22.235,-21.5781 -15.848,-30.4843 0.82,-1.1446 7.125,-8.5352 6.363,-10.0313 -1.359,-2.6836 -8.347,-6.375 -10.964,-7.8633 -2.297,-1.3008 -3.997,2.4532 -5.223,4.2774 -1.836,2.7304 -3.641,5.4843 -5.359,8.2968 C 114.68,40.957 90.0195,37.2383 88.3203,25.918 87.7461,22.1055 87.5039,12.5508 85.0156,9.79297 84.25,9.33594 80.3633,10.3047 79.5664,10.4727 c -1.4297,0.2968 -8.3476,0.8906 -9.2031,2.0312 -1.211,1.6094 1.3242,9.5117 1.7617,11.5352 C 75.3477,39.0156 56.8086,53.9258 43.5898,44.375 41.6484,42.9805 34.8672,36.8906 32.4414,37.2148 31.4258,37.3516 28.5469,42.4219 28.0078,43.2109 27.4648,44 23.793,48.5117 24.0313,49.5 c 0.4882,2.0391 7.25,5.5234 8.9453,6.6211 10.1406,6.5898 4.5429,33.1914 -7.0235,35.1289 -2.1953,0.3672 -9.2539,1.1328 -10.707,2.7383 -0.6758,0.75 -0.3711,2.6562 -0.1992,3.5039 0.4258,2.1172 1.2109,9.2698 2.707,10.6488 0.6133,0.562 2.2266,0.32 2.918,0.191 2.5429,-0.473 4.9922,-1.469 7.6172,-1.926 11.6445,-2.015 26.2734,21.418 19.9453,30.309 l -4.6914,6.723 c -0.9961,1.457 -1.9141,2.675 -0.375,3.929 2.9453,2.41 10.082,10.031 13.5039,5.031 1.8242,-2.668 3.6211,-5.355 5.3515,-8.093 z m 59.0586,22.804 c -4.047,5.395 -18.832,8.063 -25.0859,6.2 -6.3086,-1.868 -7.3438,-7.825 -8.3398,-13.332 -0.4571,-2.508 -0.8946,-5.028 -1.2969,-7.551 -1.4492,-2.586 -13.4844,-4.297 -16.3789,-2.664 -1.7344,2.726 -3.5313,5.41 -5.3555,8.078 -8.2812,12.098 -19.5156,3.558 -27.5508,-3.004 -5.7539,-4.695 -5.3984,-11.121 -1.4804,-16.848 l 4.5976,-6.597 c 0.5039,-3.61 -6.832,-15.489 -10.2734,-15.485 -2.5196,0.438 -4.9414,1.426 -7.4766,1.899 C 8.61328,120.398 7.53906,109.09 5.59375,99.3789 2.76563,85.1875 13.9258,83.5039 24.3594,81.7422 27.3672,80.3125 30.2695,66.4648 27.7188,64.1953 22.6914,60.9414 16.2305,58.293 14.6602,51.7539 c -1.4141,-5.8984 2.4375,-9.6758 5.3945,-13.9883 2.9531,-4.3242 5.0742,-9.2968 11.1094,-10.1015 7.2187,-0.9727 12.789,5.1015 18.0586,8.8945 5.8281,4.207 14.8984,-3.8984 13.4765,-10.4922 -1.332,-6.1992 -4.4258,-13.5 -0.0508,-19.34374 3.8086,-5.07422 9.586,-4.56641 14.9493,-5.6875 5.1523,-1.0742225 10.4882,-2.21094 14.5664,2.30078 5.0351,5.57422 4.6367,14.17966 5.6836,21.14846 1.3125,2.2383 11.5113,3.7422 14.1603,2.3633 1.726,-2.8125 3.535,-5.5743 5.379,-8.3125 4.32,-6.418 9.769,-11.92582 17.968,-7.2774 5.067,2.875 12.102,6.5391 14.809,11.8828 3.875,7.6485 -3.07,14.3438 -7.125,20.0078 -1.445,2.6875 3.695,13.1836 6.649,15.2891 1.972,-0.4648 3.949,-0.8906 5.937,-1.2969 6.859,-1.4062 15.543,-3.8867 19.523,4.3867 5.293,11.0157 5.633,26.629 -7.386,29.0665 l -0.074,0.0156 -4.668,0.875 -5.469,0.9062 c -2.11,2.3555 -4.442,12.2574 -3.934,15.7344 l 4.567,2.957 c 5.879,3.883 13.66,8.332 10.433,17.004 -3.097,8.328 -11.988,21.844 -22.566,16.906 -4.453,-2.074 -8.262,-5.16 -12.141,-8.109 -3.222,0.297 -11.738,5.847 -13.371,8.68 l 1.086,5.039 c 1.125,5.515 3.305,11.378 -0.543,16.507" id="path3216" style="fill:#5f4e6a;fill-opacity:1;fill-rule:evenodd;stroke:none"/><path d="m 145.824,169.344 43.946,0 0,-1.633 c 0.609,0.289 1.23,0.566 1.855,0.828 4.148,1.703 8.539,2.508 13.02,2.508 5.863,0 11.671,-1.117 16.777,-4.078 1.746,-1.008 3.348,-2.188 4.805,-3.512 1.664,1.309 3.468,2.465 5.406,3.469 5.476,2.832 11.422,4.121 17.578,4.121 9.203,0 17.559,-3.059 23.473,-10.277 5.992,-7.313 7.804,-16.879 7.804,-26.11 l 0,-52.3241 -223.1364,0 0,0.5664 c -3.8125,-1.4609 -7.8047,-2.2695 -11.9336,-2.2695 -7.3008,0 -14.25,1.7891 -20.4102,5.7695 -6.1133,3.9493 -10.5664,9.4532 -13.4219,16.1367 -2.98043,6.945 -4.07027,14.547 -4.07027,22.063 0,8.07 1.40234,16.027 4.83597,23.363 3.2343,6.922 7.9804,12.711 14.3789,16.906 6.3515,4.16 13.4804,6.176 21.0664,6.176 3.2187,0 6.4336,-0.402 9.5547,-1.305 l 0,33.223 46.1284,0 0,-9.848 c 0.817,1 1.743,1.938 2.77,2.813 4.891,4.152 10.992,5.754 17.313,5.754 6.3,0 12.332,-1.61 17.214,-5.696 4.985,-4.129 7.551,-9.812 7.551,-16.269 0,-3.762 -0.84,-7.27 -2.504,-10.375 z M 57.9609,127.961 c 0,1.176 -0.125,3.48 -0.9179,4.469 -0.2383,0.304 -0.375,0.293 -0.961,0.281 -0.1757,-0.102 -0.4375,-0.484 -0.5468,-0.645 -1.2305,-1.793 -1.4727,-4.668 -1.4727,-6.761 0,-1.235 0.1094,-5.313 1.0195,-6.305 0.1836,-0.07 0.5235,-0.031 0.7188,-0.031 0.5156,0 0.582,0.062 0.8945,0.488 1.082,1.488 1.2656,4.922 1.2656,6.664 l 0,1.84" id="path3218" style="fill:#ffffff;fill-opacity:1;fill-rule:evenodd;stroke:none"/><path d="m 65.8555,90.8398 0,8.1446 -0.2774,0 C 63.2422,95.9258 60.2344,93.5234 56.4766,91.7734 52.7461,90 49.0547,89.1367 45.418,89.1367 c -5.9727,0 -11.2461,1.4688 -15.7969,4.4102 -4.5508,2.9375 -7.957,7.0471 -10.2188,12.3401 -2.2656,5.277 -3.3828,11.531 -3.3828,18.715 0,7.445 1.3516,14.023 4.0352,19.765 2.6836,5.738 6.4648,10.196 11.3398,13.391 4.8789,3.199 10.3594,4.785 16.4024,4.785 2.8711,0 5.5312,-0.398 7.9804,-1.215 2.4258,-0.84 4.5508,-1.937 6.3477,-3.336 1.7969,-1.375 2.9648,-2.754 3.4531,-4.129 l 0.2774,0 0,40.598 29.1211,0 0,-103.6212 -29.1211,0 z m 0.6093,37.1212 c 0,4.203 -0.9101,7.445 -2.7773,9.777 -1.8437,2.309 -4.3398,3.477 -7.4648,3.477 -3.1524,0 -5.7188,-1.445 -7.7032,-4.34 -1.9843,-2.891 -2.9609,-6.742 -2.9609,-11.57 0,-9.895 3.4062,-14.84 10.2422,-14.84 3.2461,0 5.832,1.328 7.7695,3.988 1.9375,2.66 2.8945,6.555 2.8945,11.668 l 0,1.84 z m 73.3592,51.758 c 0,-4.11 -1.492,-7.446 -4.476,-9.989 -2.989,-2.566 -6.91,-3.828 -11.785,-3.828 -4.739,0 -8.633,1.309 -11.668,3.965 -3.032,2.637 -4.528,5.93 -4.528,9.852 0,3.988 1.473,7.254 4.391,9.726 2.937,2.496 6.879,3.735 11.805,3.735 4.875,0 8.796,-1.239 11.785,-3.735 2.984,-2.472 4.476,-5.738 4.476,-9.726 z M 109,90.8398 l 0,70.0002 29.121,0 0,-70.0002 -29.121,0 z m 133.914,0 0,40.3442 c 0,3.359 -0.586,5.879 -1.801,7.535 -1.211,1.679 -3.172,2.496 -5.925,2.496 -2.68,0 -4.782,-1 -6.278,-3.031 -1.515,-2.032 -2.262,-4.852 -2.262,-8.446 l 0,-38.8982 -29.121,0 0,39.6402 c 0,7.165 -2.425,10.735 -7.3,10.735 -2.965,0 -5.207,-1.024 -6.7,-3.102 -1.515,-2.078 -2.261,-5.039 -2.261,-8.914 l 0,-38.3592 -29.121,0 0,70.0002 29.121,0 0,-11.082 0.281,0 c 1.074,1.957 2.82,3.965 5.226,5.996 2.375,2.027 5.086,3.66 8.094,4.922 3.012,1.238 6.254,1.867 9.778,1.867 4.968,0 9.148,-0.98 12.527,-2.941 3.41,-1.957 6.254,-5.063 8.519,-9.286 2.473,3.918 5.743,6.93 9.848,9.055 4.106,2.121 8.656,3.172 13.672,3.172 7.328,0 12.973,-2.379 16.894,-7.164 3.922,-4.781 5.879,-11.691 5.879,-20.719 l 0,-43.8202 -29.07,0" id="path3220" style="fill:#d34a37;fill-opacity:1;fill-rule:nonzero;stroke:none"/></g></g></svg>