<?xml version="1.0" encoding="UTF-8" standalone="no"?><svg xmlns:svg="http://www.w3.org/2000/svg" xmlns="http://www.w3.org/2000/svg" version="1.1" width="35.433071" height="35.433071" xml:space="preserve"><defs id="defs3156"><clipPath id="clipPath3168"><path d="M 38.25,68.7188 C 38.1836,63.3359 36.5781,58.4609 32.9766,56.1211 31.2813,55.0234 24.5195,51.5391 24.0313,49.5 23.793,48.5117 27.4648,44 28.0078,43.2109 c 0.5391,-0.789 3.418,-5.8593 4.4336,-5.9961 2.4258,-0.3242 9.207,5.7657 11.1484,7.1602 13.2188,9.5508 31.7579,-5.3594 28.5352,-20.3359 -0.4375,-2.0235 -2.9727,-9.9258 -1.7617,-11.5352 0.8555,-1.1406 7.7734,-1.7344 9.2031,-2.0312 0.7969,-0.168 4.6836,-1.13676 5.4492,-0.67973 2.4883,2.75783 2.7305,12.31253 3.3047,16.12503 1.6992,11.3203 26.3597,15.039 31.6997,6.2968 1.718,-2.8125 3.523,-5.5664 5.359,-8.2968 1.226,-1.8242 2.926,-5.5782 5.223,-4.2774 2.617,1.4883 9.605,5.1797 10.964,7.8633 0.762,1.4961 -5.543,8.8867 -6.363,10.0313 -6.387,8.9062 5.426,32.9765 15.848,30.4843 2.156,-0.5195 4.328,-0.9922 6.504,-1.4375 1.023,-0.2109 8.242,-2.2578 8.91,-0.8789 0.34,0.711 0.781,1.7774 1.219,3.0157 l -51.743,0 c -5.507,-7.2149 -14.179,-11.879 -23.9527,-11.879 -9.7735,0 -18.461,4.6641 -23.961,11.879 l -29.7773,0 z" id="path3170"/></clipPath><linearGradient x1="-6.05478" y1="0" x2="6.05478" y2="0" id="linearGradient3172" gradientUnits="userSpaceOnUse" gradientTransform="matrix(0.936366,0.351025,-0.351025,0.936366,9.58516,3.91934)" spreadMethod="pad"><stop id="stop3174" style="stop-color:#495363;stop-opacity:1" offset="0"/><stop id="stop3176" style="stop-color:#3775aa;stop-opacity:1" offset="1"/></linearGradient><clipPath id="clipPath3184"><path d="m 248.266,214.875 c -0.137,4.742 0.922,8.824 3.566,10.461 1.785,1.105 3.551,2.25 5.301,3.41 0.902,0.598 7.289,4.09 6.722,5.613 -0.843,2.27 -6.457,12.934 -9.464,11.532 -3.875,-1.809 -7.594,-4.95 -11.012,-7.524 -7.844,-5.906 -30.328,8.781 -28.133,18.235 0.43,1.847 0.828,3.703 1.207,5.562 0.305,1.488 2.121,7.563 1.227,8.758 -1.922,1.91 -12.094,3.547 -14.7,2.769 -0.796,-0.554 -1.41,-4.933 -1.566,-5.804 -0.449,-2.446 -0.875,-4.895 -1.269,-7.356 -1.864,-11.613 -28.247,-15.433 -33.852,-6.593 -1.727,2.734 -3.527,5.425 -5.352,8.089 -3.418,5 -10.558,-2.621 -13.503,-5.031 -1.54,-1.25 -0.622,-2.469 0.378,-3.93 l 4.688,-6.718 c 6.328,-8.891 -8.297,-32.325 -19.941,-30.309 -2.629,0.457 -5.079,1.453 -7.622,1.926 -0.691,0.129 -2.304,0.371 -2.914,-0.192 -0.496,-0.46 -0.906,-1.566 -1.257,-2.898 l 51.562,0 c 5.504,7.188 14.176,11.832 23.926,11.832 9.754,0 18.406,-4.644 23.914,-11.832 l 28.094,0 z" id="path3186"/></clipPath><linearGradient x1="-6.03442" y1="0" x2="6.03442" y2="0" id="linearGradient3188" gradientUnits="userSpaceOnUse" gradientTransform="matrix(0.936366,0.351025,-0.351025,0.936366,19.233,24.438)" spreadMethod="pad"><stop id="stop3190" style="stop-color:#495363;stop-opacity:1" offset="0"/><stop id="stop3192" style="stop-color:#3775aa;stop-opacity:1" offset="1"/></linearGradient></defs><g transform="matrix(1.25,0,0,-1.25,0,35.433065)" id="g3160"><g transform="matrix(0.1,0,0,0.1,-0.22694805,-0.00673397)" id="g3162"><g id="g3164"><g clip-path="url(#clipPath3168)" id="g3166"><path d="M 38.25,68.7188 C 38.1836,63.3359 36.5781,58.4609 32.9766,56.1211 31.2813,55.0234 24.5195,51.5391 24.0313,49.5 23.793,48.5117 27.4648,44 28.0078,43.2109 c 0.5391,-0.789 3.418,-5.8593 4.4336,-5.9961 2.4258,-0.3242 9.207,5.7657 11.1484,7.1602 13.2188,9.5508 31.7579,-5.3594 28.5352,-20.3359 -0.4375,-2.0235 -2.9727,-9.9258 -1.7617,-11.5352 0.8555,-1.1406 7.7734,-1.7344 9.2031,-2.0312 0.7969,-0.168 4.6836,-1.13676 5.4492,-0.67973 2.4883,2.75783 2.7305,12.31253 3.3047,16.12503 1.6992,11.3203 26.3597,15.039 31.6997,6.2968 1.718,-2.8125 3.523,-5.5664 5.359,-8.2968 1.226,-1.8242 2.926,-5.5782 5.223,-4.2774 2.617,1.4883 9.605,5.1797 10.964,7.8633 0.762,1.4961 -5.543,8.8867 -6.363,10.0313 -6.387,8.9062 5.426,32.9765 15.848,30.4843 2.156,-0.5195 4.328,-0.9922 6.504,-1.4375 1.023,-0.2109 8.242,-2.2578 8.91,-0.8789 0.34,0.711 0.781,1.7774 1.219,3.0157 l -51.743,0 c -5.507,-7.2149 -14.179,-11.879 -23.9527,-11.879 -9.7735,0 -18.461,4.6641 -23.961,11.879 l -29.7773,0" id="path3178" style="fill:url(#linearGradient3172);fill-opacity:1;fill-rule:nonzero;stroke:none"/></g></g><g id="g3180"><g clip-path="url(#clipPath3184)" id="g3182"><path d="m 248.266,214.875 c -0.137,4.742 0.922,8.824 3.566,10.461 1.785,1.105 3.551,2.25 5.301,3.41 0.902,0.598 7.289,4.09 6.722,5.613 -0.843,2.27 -6.457,12.934 -9.464,11.532 -3.875,-1.809 -7.594,-4.95 -11.012,-7.524 -7.844,-5.906 -30.328,8.781 -28.133,18.235 0.43,1.847 0.828,3.703 1.207,5.562 0.305,1.488 2.121,7.563 1.227,8.758 -1.922,1.91 -12.094,3.547 -14.7,2.769 -0.796,-0.554 -1.41,-4.933 -1.566,-5.804 -0.449,-2.446 -0.875,-4.895 -1.269,-7.356 -1.864,-11.613 -28.247,-15.433 -33.852,-6.593 -1.727,2.734 -3.527,5.425 -5.352,8.089 -3.418,5 -10.558,-2.621 -13.503,-5.031 -1.54,-1.25 -0.622,-2.469 0.378,-3.93 l 4.688,-6.718 c 6.328,-8.891 -8.297,-32.325 -19.941,-30.309 -2.629,0.457 -5.079,1.453 -7.622,1.926 -0.691,0.129 -2.304,0.371 -2.914,-0.192 -0.496,-0.46 -0.906,-1.566 -1.257,-2.898 l 51.562,0 c 5.504,7.188 14.176,11.832 23.926,11.832 9.754,0 18.406,-4.644 23.914,-11.832 l 28.094,0" id="path3194" style="fill:url(#linearGradient3188);fill-opacity:1;fill-rule:nonzero;stroke:none"/></g></g><path d="m 265.328,0.0664063 -132.922,0 c 2.469,0.3906247 5.032,1.2929737 7.703,2.8085937 7.153,4.05469 14.766,8.25 18.653,15.9102 l 0.375,0.7656 86.707,0 0,49.168 19.511,0 -0.027,-68.6523937 z m -138.558,0 -24.985,0 c 3.492,5.3750037 4.176,11.0780937 4.871,17.2148937 0.899,-1.3829 1.813,-2.7579 2.735,-4.129 4.57,-6.78902 10.457,-11.96871 17.379,-13.0858937 z m -71.1372,0 -33.0078,0 0,20.3671937 c 1.9727,-1.1328 4.3125,-1.9297 7.2617,-2.3242 4.8477,-0.6524 8.7305,0.2148 12.2266,1.8789 l 0,-0.4375 9.3008,0 C 50.2461,13.2188 50.2031,7.26172 54.9375,0.945313 55.1641,0.640625 55.3984,0.347656 55.6328,0.0664063 z M 22.625,214.875 l 0,68.656 141.5,0 1.145,-1.144 c -9.899,3.222 -20.86,-2.977 -30.024,-10.457 -2.844,-2.325 -4.887,-5.008 -6.18,-7.887 l -86.9527,0 0,-49.168 -19.4883,0" id="path3196" style="fill:#5f4e6a;fill-opacity:1;fill-rule:evenodd;stroke:none"/><path d="m 196.258,226.707 c 9.758,0 18.426,-4.637 23.926,-11.832 l -14.875,0 c -2.731,1.352 -5.793,2.113 -9.051,2.113 -3.254,0 -6.317,-0.761 -9.047,-2.113 l -14.879,0 c 5.504,7.195 14.172,11.832 23.926,11.832" id="path3198" style="fill:#5f4e6a;fill-opacity:1;fill-rule:evenodd;stroke:none"/><path d="m 166.293,253.938 c 5.605,-8.84 31.988,-5.02 33.852,6.593 0.394,2.461 0.82,4.91 1.269,7.356 0.156,0.871 0.77,5.25 1.566,5.804 2.606,0.778 12.778,-0.859 14.7,-2.769 0.894,-1.195 -0.922,-7.27 -1.227,-8.758 -0.379,-1.859 -0.777,-3.715 -1.207,-5.562 -2.195,-9.454 20.289,-24.141 28.133,-18.235 3.418,2.574 7.137,5.715 11.012,7.524 3.007,1.402 8.621,-9.262 9.464,-11.532 0.567,-1.523 -5.82,-5.015 -6.722,-5.613 -1.75,-1.16 -3.516,-2.305 -5.301,-3.41 -2.648,-1.637 -3.703,-5.711 -3.566,-10.461 l 9.64,0 c -0.113,1.156 -0.125,2.156 -0.019,2.879 l 4.566,2.957 c 5.879,3.887 13.66,8.336 10.438,17.004 -3.102,8.332 -11.993,21.844 -22.571,16.91 -4.453,-2.074 -8.257,-5.16 -12.14,-8.109 -3.223,0.293 -11.735,5.847 -13.367,8.679 l 1.082,5.039 c 1.125,5.516 3.304,11.379 -0.543,16.508 -4.047,5.395 -18.829,8.063 -25.082,6.199 -6.313,-1.871 -7.348,-7.828 -8.34,-13.332 -0.461,-2.511 -0.895,-5.027 -1.301,-7.55 -1.449,-2.59 -13.481,-4.297 -16.379,-2.664 -1.734,2.722 -3.531,5.41 -5.352,8.078 -8.285,12.097 -19.519,3.558 -27.554,-3.008 -5.75,-4.692 -5.399,-11.117 -1.481,-16.844 l 4.598,-6.601 c 0.504,-3.61 -6.832,-15.489 -10.273,-15.485 -2.52,0.442 -4.938,1.43 -7.473,1.903 -11.082,2.074 -13.965,-4.766 -15.68,-12.563 l 9.731,0 c 0.351,1.344 0.761,2.438 1.261,2.898 0.61,0.563 2.223,0.321 2.914,0.192 2.543,-0.473 4.993,-1.469 7.622,-1.926 11.644,-2.016 26.269,21.418 19.941,30.309 l -4.688,6.718 c -1,1.461 -1.918,2.68 -0.378,3.93 2.945,2.41 10.085,10.031 13.503,5.031 1.825,-2.664 3.625,-5.355 5.352,-8.089" id="path3200" style="fill:#5f4e6a;fill-opacity:1;fill-rule:evenodd;stroke:none"/><path d="m 115.941,68.7188 c -5.507,-7.2149 -14.179,-11.879 -23.9527,-11.879 -9.7735,0 -18.4492,4.6641 -23.9492,11.879 l 14.8281,0 c 2.7461,-1.375 5.8398,-2.1602 9.1211,-2.1602 3.2812,0 6.375,0.7852 9.1207,2.1602 l 14.832,0" id="path3202" style="fill:#5f4e6a;fill-opacity:1;fill-rule:evenodd;stroke:none"/><path d="m 167.684,68.7188 c -0.438,-1.2383 -0.879,-2.3047 -1.219,-3.0157 -0.668,-1.3789 -7.887,0.668 -8.91,0.8789 -2.176,0.4453 -4.348,0.918 -6.504,1.4375 -10.422,2.4922 -22.235,-21.5781 -15.848,-30.4843 0.82,-1.1446 7.125,-8.5352 6.363,-10.0313 -1.359,-2.6836 -8.347,-6.375 -10.964,-7.8633 -2.297,-1.3008 -3.997,2.4532 -5.223,4.2774 -1.836,2.7304 -3.641,5.4843 -5.359,8.2968 C 114.68,40.957 90.0195,37.2383 88.3203,25.918 87.7461,22.1055 87.5039,12.5508 85.0156,9.79297 84.25,9.33594 80.3633,10.3047 79.5664,10.4727 c -1.4297,0.2968 -8.3476,0.8906 -9.2031,2.0312 -1.211,1.6094 1.3242,9.5117 1.7617,11.5352 C 75.3477,39.0156 56.8086,53.9258 43.5898,44.375 41.6484,42.9805 34.8672,36.8906 32.4414,37.2148 31.4258,37.3516 28.5469,42.4219 28.0078,43.2109 27.4648,44 23.793,48.5117 24.0313,49.5 c 0.4882,2.0391 7.25,5.5234 8.9453,6.6211 3.6015,2.3398 5.2226,7.2148 5.2929,12.5977 l -9.5781,0 c 0.0703,-2.1133 -0.207,-3.8399 -0.9726,-4.5235 -5.0274,-3.2539 -11.4883,-5.9023 -13.0586,-12.4414 -1.4141,-5.8984 2.4375,-9.6758 5.3945,-13.9883 2.9531,-4.3242 5.0742,-9.2968 11.1094,-10.1015 7.2187,-0.9727 12.789,5.1015 18.0586,8.8945 5.8281,4.207 14.8984,-3.8984 13.4765,-10.4922 -1.332,-6.1992 -4.4258,-13.5 -0.0508,-19.34374 3.8086,-5.07422 9.586,-4.56641 14.9493,-5.6875 5.1523,-1.0742225 10.4882,-2.21094 14.5664,2.30078 5.0351,5.57422 4.6367,14.17966 5.6836,21.14846 1.3125,2.2383 11.5113,3.7422 14.1603,2.3633 1.726,-2.8125 3.535,-5.5743 5.379,-8.3125 4.32,-6.418 9.769,-11.92582 17.968,-7.2774 5.067,2.875 12.102,6.5391 14.809,11.8828 3.875,7.6485 -3.07,14.3438 -7.125,20.0078 -1.445,2.6875 3.695,13.1836 6.649,15.2891 1.972,-0.4648 3.949,-0.8906 5.937,-1.2969 6.859,-1.4062 15.543,-3.8867 19.523,4.3867 1.086,2.254 1.954,4.7071 2.547,7.1915 l -10.011,0" id="path3204" style="fill:#5f4e6a;fill-opacity:1;fill-rule:evenodd;stroke:none"/><path d="m 87.457,82.0547 -25.3281,0 0,11.2969 -0.3008,0 C 56.0547,84.4883 47.5703,80.0547 36.4102,80.0547 c -10.2539,0 -18.5196,3.6133 -24.7539,10.8633 -6.26567,7.2226 -9.38677,17.344 -9.38677,30.336 0,13.57 3.44922,24.43 10.34377,32.609 6.8945,8.18 15.9219,12.254 27.082,12.254 10.586,0 17.9453,-3.769 22.1328,-11.379 l 0.3008,0 0,48.805 25.3281,0 0,-121.4883 z m -24.8359,39.9143 0,6.179 c 0,5.336 -1.5625,9.766 -4.6523,13.293 -3.0938,3.532 -7.1407,5.282 -12.0938,5.282 -5.6055,0 -10.0117,-2.188 -13.1562,-6.59 -3.1485,-4.434 -4.7305,-10.481 -4.7305,-18.164 0,-7.227 1.5312,-12.778 4.5664,-16.66 3.0625,-3.914 7.2773,-5.8598 12.6641,-5.8598 5.1445,0 9.3281,2.0588 12.5585,6.1598 3.2266,4.129 4.8438,9.571 4.8438,16.36 z m 58.9769,55.144 c -4.266,0 -7.766,1.262 -10.477,3.805 -2.734,2.543 -4.105,5.637 -4.105,9.328 0,3.805 1.371,6.895 4.105,9.301 2.711,2.406 6.211,3.613 10.477,3.613 4.347,0 7.851,-1.207 10.562,-3.613 2.68,-2.406 4.047,-5.496 4.047,-9.301 0,-3.855 -1.367,-7 -4.047,-9.465 -2.711,-2.433 -6.215,-3.668 -10.562,-3.668 z m 12.504,-95.0583 -25.305,0 0,82.0703 25.305,0 0,-82.0703 z m 151.632,0 -25.246,0 0,46.8043 c 0,11.903 -4.379,17.864 -13.133,17.864 -4.156,0 -7.55,-1.778 -10.175,-5.36 -2.625,-3.586 -3.938,-8.043 -3.938,-13.379 l 0,-45.9293 -25.304,0 0,47.2973 c 0,11.574 -4.325,17.371 -12.915,17.371 -4.324,0 -7.796,-1.692 -10.367,-5.114 -2.601,-3.421 -3.91,-8.07 -3.91,-13.953 l 0,-45.6013 -25.305,0 0,82.0703 25.305,0 0,-12.832 0.328,0 c 2.625,4.375 6.289,7.957 11.024,10.695 4.73,2.762 9.902,4.129 15.511,4.129 11.598,0 19.528,-5.086 23.797,-15.293 6.266,10.207 15.434,15.293 27.578,15.293 17.832,0 26.75,-10.996 26.75,-33.015 l 0,-51.0473" id="path3206" style="fill:#5f4e6a;fill-opacity:1;fill-rule:nonzero;stroke:none"/></g></g></svg>